<svg xmlns="http://www.w3.org/2000/svg" xmlns:xlink="http://www.w3.org/1999/xlink" viewBox="0 0 500 500"><defs><clipPath id="freepik--clip-path--inject-5"><path d="M239.32,190.92a5.43,5.43,0,0,1-2.51-.1c-1-.47-1.41-1.74-2.23-2.53a2.93,2.93,0,0,0-2.31-.8,5.87,5.87,0,0,1-1.66.18c-1.14-.2-1.63-1.56-2.56-2.23a4.83,4.83,0,0,0-3.17-.53l-2.8,2.35a4.89,4.89,0,0,1,3.17.53c.94.67,1.43,2,2.56,2.23a5.94,5.94,0,0,0,1.67-.18,3,3,0,0,1,2.3.8c.82.79,1.2,2.06,2.23,2.53a5.47,5.47,0,0,0,2.52.1,5.78,5.78,0,0,1,4.78,2.25l2.8-2.35A5.8,5.8,0,0,0,239.32,190.92Z" style="fill:#FFC100"></path></clipPath></defs><g id="freepik--Floor--inject-5"><path id="freepik--floor--inject-5" d="M105.71,414.45c76.92,36.65,201.64,36.65,278.56,0s76.92-96.08,0-132.73-201.64-36.65-278.56,0S28.78,377.8,105.71,414.45Z" style="fill:#f5f5f5"></path></g><g id="freepik--Shadows--inject-5"><path id="freepik--Shadow--inject-5" d="M383.56,349.93l-44.7-25.83a5.87,5.87,0,0,0-4.8-.22l-50,23.1c-1.35.62-1.4,1.74-.11,2.48l55.72,32.17a4.53,4.53,0,0,0,4.53-.23l39.51-28.54A1.62,1.62,0,0,0,383.56,349.93Z" style="fill:#e0e0e0"></path><path id="freepik--shadow--inject-5" d="M84.75,367.44l44.69-25.82a5.81,5.81,0,0,1,4.79-.22l50,23.09c1.35.63,1.4,1.74.11,2.49l-55.71,32.16a4.55,4.55,0,0,1-4.54-.23L84.6,370.38A1.62,1.62,0,0,1,84.75,367.44Z" style="fill:#e0e0e0"></path></g><g id="freepik--Plants--inject-5"><g id="freepik--plants--inject-5"><path d="M377.05,314.27s.67-15.55,7.49-28.06,16.85-20.72,26.63-22.2,18.36,7,8.28,14-28.34,14.62-35.31,38.47Z" style="fill:#FFC100"></path><path d="M377.05,314.27s.67-15.55,7.49-28.06,16.85-20.72,26.63-22.2,18.36,7,8.28,14-28.34,14.62-35.31,38.47Z" style="opacity:0.2"></path><path d="M379.65,310.06l-.11,0a.53.53,0,0,1-.33-.67c8.57-26.29,27.58-38.36,36.44-41.07a.53.53,0,0,1,.65.35.52.52,0,0,1-.35.66c-8.67,2.65-27.3,14.51-35.74,40.39A.53.53,0,0,1,379.65,310.06Z" style="fill:#fff"></path><path d="M432.47,306.64c-.79,2.2-3.05,3.47-5.15,4.5s-4.4,2.13-5.42,4.23c-2.08,4.24,2.2,9.7,0,13.85a7.33,7.33,0,0,1-4.78,3.24,47,47,0,0,1-4.87.78,20.28,20.28,0,0,1-2.34,0c-2.27-.17-4.72-.11-6.7,1.19-3.11,2.05-3.82,6.21-5.56,9.5a15.41,15.41,0,0,1-10.43,7.62c-1.44.29-4.13.75-5.67,0a2,2,0,0,1-.33-.17l0,0c-.22-.22-.5-.49-.62-.64a.36.36,0,0,1-.07-.1c-.72-2.07.06-4.34,0-6.52l0-.4c-.27-2.53-.52-5-.76-7.58q-.67-7-1.12-14c-.19-3-.79-6.32.3-9.26,1.19-3.24,4.72-3.55,5.83-6.73.45-1.26.64-2.6,1.07-3.87a10.87,10.87,0,0,1,8.78-7.1c6.14-.75,12,3.85,18.14,3a47.53,47.53,0,0,0,4.65-1.23c4.93-1.29,10.79-.27,13.9,3.75A6.5,6.5,0,0,1,432.47,306.64Z" style="fill:#FFC100"></path><g style="opacity:0.07"><path d="M432.47,306.64c-.79,2.2-3.05,3.47-5.15,4.5s-4.4,2.13-5.42,4.23c-2.08,4.24,2.2,9.7,0,13.85a7.33,7.33,0,0,1-4.78,3.24,24.85,24.85,0,0,1-4.87.78,20.28,20.28,0,0,1-2.34,0c-2.27-.17-4.72-.11-6.7,1.19-3.11,2.05-3.82,6.21-5.56,9.5a15.41,15.41,0,0,1-10.43,7.62c-1.44.29-4.13.75-5.67,0a2,2,0,0,1-.33-.17l0,0a2.48,2.48,0,0,1-.26-.19,2,2,0,0,1-.36-.45.36.36,0,0,1-.07-.1c-.95-1.68,0-4.62,0-6.52l0-.4c-.27-2.53-.52-5-.76-7.58q-.67-7-1.12-14c-.19-3-.79-6.32.3-9.26,1.19-3.24,4.72-3.55,5.83-6.73.45-1.26.64-2.6,1.07-3.87a10.87,10.87,0,0,1,8.78-7.1c6.14-.75,12,3.85,18.14,3a47.53,47.53,0,0,0,4.65-1.23c4.93-1.29,10.79-.27,13.9,3.75A6.5,6.5,0,0,1,432.47,306.64Z" style="fill:#263238"></path></g><path d="M379.28,341h0a.53.53,0,0,1-.41-.62c6.26-32.53,39.57-39.51,47.49-39.5a.53.53,0,0,1,.52.53.52.52,0,0,1-.53.52c-7.74,0-40.32,6.82-46.45,38.65A.53.53,0,0,1,379.28,341Z" style="fill:#fff"></path><path d="M415.52,322.15a.46.46,0,0,1-.29-.13,28,28,0,0,0-23.35-4.83.53.53,0,0,1-.23-1,29.09,29.09,0,0,1,24.27,5.07.54.54,0,0,1,.05.75A.53.53,0,0,1,415.52,322.15Z" style="fill:#fff"></path></g></g><g id="freepik--Table--inject-5"><g id="freepik--table--inject-5"><g id="freepik--table--inject-5"><path d="M159.4,337.39a2,2,0,0,0,.91,1.58l45.25,26.12a2,2,0,0,0,1.82,0l130.84-75.53a2,2,0,0,0,.92-1.58V155.61l-47.07-27.18L159.4,205Z" style="fill:#37474f"></path><path d="M159.4,337.39a2,2,0,0,0,.91,1.58l45.25,26.12a1.8,1.8,0,0,0,.91.22V223.38l-43.42-20.47L159.4,205Z" style="fill:#263238"></path><path d="M205.1,241.29l-52.89-30.54a3,3,0,0,1-1.37-2.37V206.6a3,3,0,0,1,1.37-2.37l138.48-79.95a3,3,0,0,1,2.74,0l52.9,30.54a3,3,0,0,1,1.36,2.37V159a3,3,0,0,1-1.36,2.37L207.84,241.29A3,3,0,0,1,205.1,241.29Z" style="fill:#263238"></path><path d="M346.33,156.4,207.84,236.35a3,3,0,0,1-2.74,0l-52.89-30.54a.83.83,0,0,1,0-1.58l138.48-79.95a3,3,0,0,1,2.74,0l52.9,30.54A.84.84,0,0,1,346.33,156.4Z" style="fill:#455a64"></path><path d="M206.47,236.68v4.94a2.74,2.74,0,0,1-1.36-.33l-52.9-30.54a3,3,0,0,1-1.37-2.37V206.6a3,3,0,0,1,1.12-2.19c-.5.43-.42,1,.25,1.4l52.9,30.54A2.85,2.85,0,0,0,206.47,236.68Z" style="fill:#37474f"></path></g><g id="freepik--Eggs--inject-5"><path d="M224.93,179.15c-8.71,5-8.71,13.18,0,18.21s22.84,5,31.55,0,8.72-13.18,0-18.21S233.65,174.12,224.93,179.15Z" style="fill:#f0f0f0"></path><path d="M229.87,182c-6,3.45-6,9.06,0,12.52s15.69,3.45,21.68,0,6-9.07,0-12.52S235.85,178.54,229.87,182Z" style="fill:#e0e0e0"></path><path d="M230.6,182.42c-5.58,3.22-5.58,8.45,0,11.67s14.63,3.22,20.21,0,5.58-8.45,0-11.67S236.19,179.2,230.6,182.42Z" style="fill:#ebebeb"></path><path d="M239.53,181.11a9,9,0,0,0-4.57.19,6.38,6.38,0,0,0-3.33,2.56,15.12,15.12,0,0,1-1,1.67,9.3,9.3,0,0,1-2.84,1.66,6.13,6.13,0,0,0-2.43,2.17,2.39,2.39,0,0,0-.31.76c-.31,1.75,2.19,3.35,3.59,3.7.89.21,1.8.24,2.69.39a28.93,28.93,0,0,1,2.94.27,7.44,7.44,0,0,1,1.86,1.14,9.37,9.37,0,0,0,2.32,1.06,6.78,6.78,0,0,0,4.06,0c2-.69,3.78-1.8,6-1.82,3.1,0,6.39,0,8.64-2.49,1.44-1.62,1.62-4-.32-5.23a8.42,8.42,0,0,0-2.76-1,47.2,47.2,0,0,1-7.5-2C244.17,183.09,242.12,181.62,239.53,181.11Z" style="fill:#fafafa"></path><path d="M241.57,184.35a4.43,4.43,0,0,0-7.8-.22.81.81,0,0,0-.1.18l0,.09c-.38.79,0,1.69,1.07,2.32a6.46,6.46,0,0,0,5.84,0C241.64,186.08,242,185.16,241.57,184.35Z" style="fill:#FFC100"></path><path d="M252.55,188.39a4.43,4.43,0,0,0-7.79-.23.66.66,0,0,0-.1.18.41.41,0,0,0,0,.09c-.38.8,0,1.69,1.06,2.32a6.46,6.46,0,0,0,5.84,0C252.62,190.11,253,189.19,252.55,188.39Z" style="fill:#FFC100"></path><path d="M239.32,190.92a5.43,5.43,0,0,1-2.51-.1c-1-.47-1.41-1.74-2.23-2.53a2.93,2.93,0,0,0-2.31-.8,5.87,5.87,0,0,1-1.66.18c-1.14-.2-1.63-1.56-2.56-2.23a4.83,4.83,0,0,0-3.17-.53l-2.8,2.35a4.89,4.89,0,0,1,3.17.53c.94.67,1.43,2,2.56,2.23a5.94,5.94,0,0,0,1.67-.18,3,3,0,0,1,2.3.8c.82.79,1.2,2.06,2.23,2.53a5.47,5.47,0,0,0,2.52.1,5.78,5.78,0,0,1,4.78,2.25l2.8-2.35A5.8,5.8,0,0,0,239.32,190.92Z" style="fill:#FFC100"></path><g style="clip-path:url(#freepik--clip-path--inject-5)"><path d="M223.59,185.51s3-.15,3.8.65,1.3,1.9,2.41,2.1,3.29-.61,4.2.5,1.53,2.56,3,2.9,3.37-.38,4.93.65a7.52,7.52,0,0,1,2.2,2.06" style="fill:none;stroke:#fafafa;stroke-miterlimit:10;stroke-width:0.26338px"></path><path d="M222.19,186.32s2.72-.28,3.81.5c.83.59,1.17,2.16,2.28,2.36s3.22-.43,4.14.67,1.6,2.23,3.06,2.58,3.36-.38,4.92.65a7.52,7.52,0,0,1,2.2,2.06" style="fill:none;stroke:#fafafa;stroke-miterlimit:10;stroke-width:0.26338px"></path></g><path d="M251.39,171.73l8.09,4.68a1,1,0,0,0,.87.07h0a1,1,0,0,1,.87.07L272.46,183a1.69,1.69,0,0,0,1.5.12h0c.36-.2.26-.59-.21-.86l-23-13.3C249.59,169.64,249.89,170.87,251.39,171.73Z" style="fill:#FFC100"></path><path d="M213.21,199.49l1.29-.74,16.24,9.38c.47.27.57.66.21.86h0a1.69,1.69,0,0,1-1.5-.12Z" style="fill:#FFC100"></path><path d="M208.43,194.41c-.12.08-.09.21.08.31l4.12,2.38c.16.1.2.23.07.31h0a.6.6,0,0,1-.53,0L208.05,195a.63.63,0,0,0-.53,0c-.12.07-.09.21.08.31l4.12,2.38c.16.09.2.23.07.3h0a.63.63,0,0,1-.53,0l-4.12-2.38a.56.56,0,0,0-.53,0c-.12.07-.09.2.08.3l4.12,2.38c.17.1.2.23.07.31h0a.6.6,0,0,1-.53-.05L206.23,196a.63.63,0,0,0-.53,0c-.12.07-.09.21.08.31l4.42,2.55.49.28.7.41a1.75,1.75,0,0,0,1.53.12l1.87-1.08c.36-.21.26-.6-.22-.88l-.69-.4-.5-.29L209,194.46A.6.6,0,0,0,208.43,194.41Z" style="fill:#FFC100"></path></g></g></g><g id="freepik--Chair--inject-5"><g id="freepik--chair--inject-5"><path d="M95.8,245.71V370.17a1.93,1.93,0,0,1-.89,1.54l-2.39,1.38a2,2,0,0,1-1.77,0l-2.39-1.38a2,2,0,0,1-.89-1.54V245.71a1,1,0,0,1,1-1h6.29A1,1,0,0,1,95.8,245.71Z" style="fill:#FFC100"></path><path d="M95.8,245.71V370.17a1.93,1.93,0,0,1-.89,1.54l-2.39,1.38a2,2,0,0,1-1.77,0l-2.39-1.38a2,2,0,0,1-.89-1.54V245.71a1,1,0,0,1,1-1h6.29A1,1,0,0,1,95.8,245.71Z" style="opacity:0.1"></path><path d="M88.49,244.69h2.12a1,1,0,0,1,1,1V372.58c0,.56-.4.79-.89.51l-2.39-1.38a2,2,0,0,1-.89-1.54V245.71A1,1,0,0,1,88.49,244.69Z" style="fill:#FFC100"></path><path d="M132,266.44V390.9a2,2,0,0,1-.89,1.54l-2.39,1.38a2,2,0,0,1-1.78,0l-2.39-1.38a2,2,0,0,1-.89-1.54V266.44a1,1,0,0,1,1-1H131A1,1,0,0,1,132,266.44Z" style="fill:#FFC100"></path><path d="M132,266.44V390.9a2,2,0,0,1-.89,1.54l-2.39,1.38a2,2,0,0,1-1.78,0l-2.39-1.38a2,2,0,0,1-.89-1.54V266.44a1,1,0,0,1,1-1H131A1,1,0,0,1,132,266.44Z" style="opacity:0.1"></path><path d="M124.71,265.41h2.11a1,1,0,0,1,1,1V393.3c0,.57-.4.8-.89.52l-2.39-1.38a2,2,0,0,1-.89-1.54V266.44A1,1,0,0,1,124.71,265.41Z" style="fill:#FFC100"></path><path d="M179.1,246.09V363.7a2,2,0,0,1-.89,1.57l-2.39,1.38a2,2,0,0,1-1.78,0l-2.39-1.38a2,2,0,0,1-.89-1.54V246.12a1,1,0,0,1,1-1h6.28A1,1,0,0,1,179.1,246.09Z" style="fill:#FFC100"></path><path d="M179.1,246.09V363.7a2,2,0,0,1-.89,1.57l-2.39,1.38a2,2,0,0,1-1.78,0l-2.39-1.38a2,2,0,0,1-.89-1.54V246.12a1,1,0,0,1,1-1h6.28A1,1,0,0,1,179.1,246.09Z" style="opacity:0.1"></path><path d="M171.79,245.09h2.11a1,1,0,0,1,1,1v120c0,.57-.4.8-.89.52l-2.39-1.38a2,2,0,0,1-.89-1.54V246.12A1,1,0,0,1,171.79,245.09Z" style="fill:#FFC100"></path><polygon points="174.93 337.52 170.76 335.1 132.02 357.35 132.02 362.29 174.93 337.52" style="fill:#FFC100"></polygon><polygon points="174.93 337.52 170.76 335.1 132.02 357.35 132.02 362.29 174.93 337.52" style="opacity:0.2"></polygon><polygon points="174.93 337.52 174.93 342.45 132.02 367.23 132.02 362.29 174.93 337.52" style="fill:#FFC100"></polygon><polygon points="174.93 337.52 174.93 342.45 132.02 367.23 132.02 362.29 174.93 337.52" style="opacity:0.1"></polygon><polygon points="91.64 343.76 95.8 341.35 123.68 357.35 123.68 362.29 91.64 343.76" style="fill:#FFC100"></polygon><polygon points="91.64 343.76 95.8 341.35 123.68 357.35 123.68 362.29 91.64 343.76" style="opacity:0.15"></polygon><polygon points="91.64 343.76 91.64 348.7 123.68 367.23 123.68 362.29 91.64 343.76" style="fill:#FFC100"></polygon><path d="M116.72,184a2.68,2.68,0,0,0,.1.91c2.94,11,4.42,26.49,4.68,41.15l7.33-3.56c-.44-14.16-2-28.76-4.78-39.51-.61-2.28-2.72-2.93-4.86-1.89A3.84,3.84,0,0,0,116.72,184Z" style="fill:#455a64"></path><path d="M120.88,187.49a46.93,46.93,0,0,1,3.69,18.77L89.22,226.72l-6.86-17Z" style="fill:#FFC100"></path><polygon points="79.07 209.12 117.58 186.88 120.88 187.49 82.36 209.73 79.07 209.12" style="fill:#FFC100"></polygon><polygon points="79.07 209.12 117.58 186.88 120.88 187.49 82.36 209.73 79.07 209.12" style="fill:#fff;opacity:0.4"></polygon><path d="M77,207.51A164.41,164.41,0,0,1,87.47,246.6l6.83-4.33a165.47,165.47,0,0,0-10.37-37.66,3.76,3.76,0,0,0-5.31-1.85h0A3.75,3.75,0,0,0,77,207.51Z" style="fill:#455a64"></path><path d="M87.47,251.92v.92a6,6,0,0,0,2.22,4.34l35.94,26.48a4.6,4.6,0,0,0,4.59.23L178,256.31a5.24,5.24,0,0,0,2.37-4.1v-1a4.64,4.64,0,0,0-2.49-3.88l-46.56-20.95a5.89,5.89,0,0,0-4.86.22L89.84,247.82A5.22,5.22,0,0,0,87.47,251.92Z" style="fill:#455a64"></path><path d="M89.91,247.77l-.31,0a5.48,5.48,0,0,0-2.6,4.1v.92a6.31,6.31,0,0,0,2.45,4.34l36.06,26.48a4.78,4.78,0,0,0,2.34.72s.13-9.86.15-10.09Z" style="fill:#263238"></path><path d="M180,244.79v1a5,5,0,0,1-2.17,4.1l-47.71,27.58a4.13,4.13,0,0,1-2.17.51,4.34,4.34,0,0,1-2.35-.74L89.44,250.71A6.26,6.26,0,0,1,87,246.37v-.92a5.49,5.49,0,0,1,2.61-4.1l10.29-5.88,26.53-15.29a6,6,0,0,1,4.89-.22l46.38,20.95A4.45,4.45,0,0,1,180,244.79Z" style="fill:#FFC100"></path><path d="M128,271.51v6.42a4.4,4.4,0,0,1-2.37-.74L89.45,250.71A6.27,6.27,0,0,1,87,246.37v-.92a5.49,5.49,0,0,1,2.61-4.1l10.29-5.88,0,0-10.11,5.84a1.64,1.64,0,0,0-.15,3l35.94,26.45A4.4,4.4,0,0,0,128,271.51Z" style="opacity:0.1"></path><path d="M89.84,241.35l36.65-21.17a5.89,5.89,0,0,1,4.86-.22l46.56,20.95c1.38.63,1.43,1.76.12,2.51L130.22,271a4.6,4.6,0,0,1-4.59-.24L89.69,244.32A1.64,1.64,0,0,1,89.84,241.35Z" style="fill:#fff;opacity:0.30000000000000004"></path></g></g><g id="freepik--Character--inject-5"><g id="freepik--character--inject-5"><g id="freepik--chair--inject-5"><g id="freepik--chair--inject-5"><path d="M372.8,226.81V351.27a2.06,2.06,0,0,0,1,1.54l2.45,1.38a2,2,0,0,0,1.8,0l2.63-1.38a2.27,2.27,0,0,0,1.14-1.54V226.81c0-.56-.93-1.21-1.5-1.21H374A1.38,1.38,0,0,0,372.8,226.81Z" style="fill:#FFC100"></path><path d="M372.8,226.81V351.27a2.06,2.06,0,0,0,1,1.54l2.45,1.38a2,2,0,0,0,1.8,0l2.63-1.38a2.27,2.27,0,0,0,1.14-1.54V226.81c0-.56-.93-1.21-1.5-1.21H374A1.38,1.38,0,0,0,372.8,226.81Z" style="opacity:0.1"></path><path d="M380.3,225.6h-2.11c-.57,0-1.39.65-1.39,1.21V353.68a.66.66,0,0,0,1.07.51l2.71-1.38c.49-.28,1.22-1,1.22-1.54V226.81C381.8,226.25,380.87,225.6,380.3,225.6Z" style="fill:#FFC100"></path><path d="M336.8,247.54V372a2,2,0,0,0,.88,1.54l2.39,1.38a2,2,0,0,0,1.77,0l2.23-1.38a1.81,1.81,0,0,0,.73-1.54V247.54c0-.57-.14-.94-.71-.94h-6.28A.94.94,0,0,0,336.8,247.54Z" style="fill:#FFC100"></path><path d="M336.8,247.54V372a2,2,0,0,0,.88,1.54l2.39,1.38a2,2,0,0,0,1.77,0l2.23-1.38a1.81,1.81,0,0,0,.73-1.54V247.54c0-.57-.14-.94-.71-.94h-6.28A.94.94,0,0,0,336.8,247.54Z" style="opacity:0.1"></path><path d="M344.09,246.6H342c-.56,0-1.17.37-1.17.94V374.41c0,.56.47.79,1,.51l2.27-1.38a1.85,1.85,0,0,0,.77-1.54V247.54C344.8,247,344.66,246.6,344.09,246.6Z" style="fill:#FFC100"></path><path d="M289.8,227.19V344.8a2,2,0,0,0,.84,1.57l2.36,1.38a2,2,0,0,0,1.77,0l2.26-1.38a1.85,1.85,0,0,0,.77-1.54V227.22c0-.57-.22-.62-.79-.62h-6.28C290.16,226.6,289.8,226.65,289.8,227.19Z" style="fill:#FFC100"></path><path d="M289.8,227.19V344.8a2,2,0,0,0,.84,1.57l2.36,1.38a2,2,0,0,0,1.77,0l2.26-1.38a1.85,1.85,0,0,0,.77-1.54V227.22c0-.57-.22-.62-.79-.62h-6.28C290.16,226.6,289.8,226.65,289.8,227.19Z" style="opacity:0.1"></path><path d="M297,226.6h-2.12c-.56,0-1.09.05-1.09.62v120c0,.57.43.8.92.52l2.29-1.38a1.89,1.89,0,0,0,.79-1.54V227.22C297.8,226.65,297.58,226.6,297,226.6Z" style="fill:#FFC100"></path><polygon points="293.88 318.62 298.05 316.2 336.8 338.45 336.8 343.39 293.88 318.62" style="fill:#FFC100"></polygon><polygon points="293.88 318.62 298.05 316.2 336.8 338.45 336.8 343.39 293.88 318.62" style="opacity:0.2"></polygon><polygon points="293.8 318.62 293.8 323.55 336.8 348.33 336.8 343.39 293.8 318.62" style="fill:#FFC100"></polygon><polygon points="293.8 318.62 293.8 323.55 336.8 348.33 336.8 343.39 293.8 318.62" style="opacity:0.1"></polygon><polygon points="377 324.87 372.76 322.45 344.8 338.45 344.8 343.39 377 324.87" style="fill:#FFC100"></polygon><polygon points="377 324.87 372.76 322.45 344.8 338.45 344.8 343.39 377 324.87" style="opacity:0.15"></polygon><polygon points="376.8 324.87 376.8 329.8 344.8 348.33 344.8 343.39 376.8 324.87" style="fill:#FFC100"></polygon><path d="M352.07,165.05a2.93,2.93,0,0,1-.09.91c-2.94,11-4.42,26.49-4.68,41.15L340,203.55c.44-14.16,2-28.76,4.78-39.51.6-2.28,2.72-2.93,4.86-1.89A3.81,3.81,0,0,1,352.07,165.05Z" style="fill:#455a64"></path><path d="M347.92,168.59a46.74,46.74,0,0,0-3.69,18.77l35.35,20.46,6.86-17Z" style="fill:#FFC100"></path><path d="M347.92,168.59a46.74,46.74,0,0,0-3.69,18.77l35.35,20.46,6.86-17Z" style="opacity:0.2"></path><polygon points="389.73 190.22 351.22 167.98 347.92 168.59 386.44 190.83 389.73 190.22" style="fill:#FFC100"></polygon><polygon points="389.73 190.22 351.22 167.98 347.92 168.59 386.44 190.83 389.73 190.22" style="fill:#fff;opacity:0.4"></polygon><path d="M391.79,188.61a164.41,164.41,0,0,0-10.46,39.09l-6.84-4.33a166,166,0,0,1,10.38-37.66,3.76,3.76,0,0,1,5.31-1.85v0A3.75,3.75,0,0,1,391.79,188.61Z" style="fill:#37474f"></path><path d="M381.8,233v.92a6.31,6.31,0,0,1-2.45,4.34l-36.07,26.48a4.69,4.69,0,0,1-4.64.23L291,237.41a5.05,5.05,0,0,1-2.2-4.1v-.95a4.45,4.45,0,0,1,2.28-3.88l46.47-20.95a5.75,5.75,0,0,1,4.8.22l36.87,21.17A5.45,5.45,0,0,1,381.8,233Z" style="fill:#37474f"></path><path d="M341,255.5,322.56,223l-6.75-5.68-24.63,11.15a4.37,4.37,0,0,0-2.18,3.88v.95a5,5,0,0,0,2.1,4.1L338.69,265a4.13,4.13,0,0,0,2.31.5Z" style="fill:#263238"></path><path d="M288.8,225.89v1a5,5,0,0,0,2.17,4.1l47.71,27.58a4.13,4.13,0,0,0,2.17.51,4.3,4.3,0,0,0,2.34-.74l36.17-26.48a6.26,6.26,0,0,0,2.44-4.34v-.92a5.49,5.49,0,0,0-2.61-4.1l-10.29-5.88-26.53-15.29a6,6,0,0,0-4.89-.22L291.1,222A4.45,4.45,0,0,0,288.8,225.89Z" style="fill:#FFC100"></path><path d="M340.8,252.61V259a4.4,4.4,0,0,0,2.37-.74l36.18-26.48a6.27,6.27,0,0,0,2.45-4.34v-.92a5.49,5.49,0,0,0-2.61-4.1l-10.29-5.88,0,0L379,222.45a1.64,1.64,0,0,1,.15,3l-35.94,26.45A4.4,4.4,0,0,1,340.8,252.61Z" style="opacity:0.1"></path><path d="M379,222.45,342.3,201.28a5.87,5.87,0,0,0-4.85-.22L290.88,222c-1.37.63-1.42,1.76-.11,2.52l47.81,27.58a4.62,4.62,0,0,0,4.59-.23l35.94-26.46A1.64,1.64,0,0,0,379,222.45Z" style="fill:#fff;opacity:0.30000000000000004"></path></g></g><g id="freepik--character--inject-5"><path d="M273.25,337.09a3.67,3.67,0,0,0,.26,2.47c.28.73,3.07,3.15,10.09,2.47s11.56-4.44,13.95-6.15,6.23-4.25,9.88-4.9,6.8-2.66,7.56-3.77a4,4,0,0,0,.48-3.31,3.15,3.15,0,0,0-2.5-2.06c-3.24-.67-27.76,6.57-27.76,6.57Z" style="fill:#37474f"></path><path d="M300.41,350.77c-.12,1.34,1.61,5.4,6.85,5.76s11.25-1.17,14.88-6.37,6.11-9.49,8.18-11.66a14.29,14.29,0,0,0,3.28-4.89,2.5,2.5,0,0,0,0-1.41,3.86,3.86,0,0,0-.52-1.41,6,6,0,0,0-1.52-1.26c-3.68-2.24-10.49-1.21-15,3.88S300.41,350.77,300.41,350.77Z" style="fill:#37474f"></path><rect x="318.95" y="311.35" width="11.14" height="19.06" style="fill:#ffa8a7"></rect><polygon points="310.26 314.71 298.57 317.47 294.1 299.14 306.63 295.97 310.26 314.71" style="fill:#ffa8a7"></polygon><path d="M319.81,325.24l-.86-2.3c-.28,5.17-5.06,11.2-9.48,15.24-3.52,3.21-9.7,7.6-9.55,10.64.19,3.92,5.79,5.66,10.62,4.53,3.77-.89,8.66-3.07,11.25-5.86s3.92-6.56,5.27-8.39,4.3-3.47,5-5.58c.4-1.16-.12-3.06-.89-5.14a12.12,12.12,0,0,1-1.13-5.08v1.24c-.81.89-3.25,1.78-5.78,1.88C322.66,326.48,319.8,326.48,319.81,325.24Z" style="fill:#ffa8a7"></path><path d="M304.85,340.82s3-1.93,8,.12c4.69,1.94,7.4,6.61,8.12,8a.61.61,0,0,1-.11.72,17.88,17.88,0,0,1-14.55,5.2C301.12,354.22,295.6,347.67,304.85,340.82Z" style="fill:#455a64"></path><path d="M297.56,313.33a8.29,8.29,0,0,1-1.12,4.91c-1.33,2-3.23,3-5.29,4.52-3.51,2.59-13.08,6-16.1,8.22-1.9,1.4-.63,5.6,2.74,6.79,2.5.89,9.84.69,15.81-2.07,3.26-1.5,7.95-5,10.41-5.94,2.7-1,7.51-1.12,9.48-4.56,1.68-2.93.57-4.89-.85-7.34a25.77,25.77,0,0,1-3.17-7.51l-.57,1.88c-.82,2.11-7,4.28-10,3.5Z" style="fill:#ffa8a7"></path><path d="M293.3,336.32a13.18,13.18,0,0,0-9.95-10s-5.75-.39-9.37,3.84c-2.64,3.08-.51,7.51-.51,7.51s2.63,3.06,9.39,2.36C290.88,339.17,293.3,336.32,293.3,336.32Z" style="fill:#455a64"></path><path d="M372,204.46c2.28,16.09.28,19.25-16.76,32.69-8.79,6.94-25.18,22.51-25.18,22.51s2.26,4.9,2.37,16.42c.09,10.15.11,43.72.11,43.72a28.35,28.35,0,0,1-16.87.79s-7.63-60.81-6.39-71.48c.39-3.37,19.39-20.27,23-25.78l-28.78,24.82a49.79,49.79,0,0,1,3.15,15.76c.55,13.77,3,41.86,3,41.86a18.15,18.15,0,0,1-14.52,4.15s-14.7-63.15-14.7-68.08c0-7.51,31.19-37.6,37.36-42.81,3.52-3,7.44-6.16,7.44-6.16Z" style="fill:#455a64"></path><path d="M332.26,223.33a29.57,29.57,0,0,1-5.74-10.51,53.51,53.51,0,0,0,1.18,8.2c.89,3.58-24.22,27.13-24.22,27.13Z" style="fill:#37474f"></path><path d="M320.46,138.52c8.44-8.87,11.54-11.31,16.67-11.27l-6.9,27.2s-15.36,12.85-25.54,20.47l-6-13.16S312,147.39,320.46,138.52Z" style="fill:#ffa8a7"></path><path d="M337.13,127.25s-5.88-1.36-13,6.32-21.85,23.14-21.85,23.14c-.34,3.25,3.72,14.65,8.13,16.13L327.32,158s8.14-6.63,9.81-11.41S337.13,127.25,337.13,127.25Z" style="fill:#FFC100"></path><path d="M298.72,161.76l-15.09-32.1-8.58,3.53s12.56,38,14.37,42.16c1.07,2.44,4.47,5.4,9.4,3,1.09-.53,3.21-1.79,5.87-3.43" style="fill:#ffa8a7"></path><path d="M278.22,142.76c-1-3.15-4.37-6.48-4.85-7.82a6.18,6.18,0,0,1-.43-3.33l3.89.39Z" style="fill:#ffa8a7"></path><path d="M286.26,135.27c-.64-1.45-.75-6.54.05-9.47s-1.06-6.6-.59-8.66-.87-2.69-2.07-2a5.26,5.26,0,0,0-2.47,4.34c-.06,2.14-.2,7.57.67,10.22S286.26,135.27,286.26,135.27Z" style="fill:#ffa8a7"></path><path d="M284.24,130.27c-.23.67-1.11,1.58-3.95,1.09l-5.24,1.83-2.13-.12a5.75,5.75,0,0,0,7.55-.8S284.32,132.75,284.24,130.27Z" style="fill:#f28f8f"></path><path d="M277.37,112.77c-.11-1.19-1.1-2.48-3-3.65a24.69,24.69,0,0,0-17.05-2.38c-2.16.6-3.47,1.56-3.9,2.67h-.07c-1.87,7.5-1.75,16.51.28,21.77,0,0,0,.07,0,.11l0,.08h0a5.91,5.91,0,0,0,1.93,2.41,14.46,14.46,0,0,0,12.94,1.81,5.8,5.8,0,0,0,2.51-1.79h0l0-.07.08-.1c3.39-4.5,6-13.14,6.25-20.86Z" style="fill:#FFC100"></path><g style="opacity:0.30000000000000004"><path d="M274.35,109.12c4.42,2.71,4,6-1,7.41a24.64,24.64,0,0,1-17.05-2.39c-4.42-2.7-4-6,1-7.4A24.69,24.69,0,0,1,274.35,109.12Z" style="fill:#fff"></path></g><path d="M272.53,110.18c3.61,1.87,3.3,4-.68,4.84a24.37,24.37,0,0,1-13.76-1.93c-3.61-1.87-3.3-4,.68-4.84A24.38,24.38,0,0,1,272.53,110.18Z" style="fill:#FFC100"></path><g style="opacity:0.1"><path d="M272.53,110.18c3.61,1.87,3.3,4-.68,4.84a24.37,24.37,0,0,1-13.76-1.93c-3.61-1.87-3.3-4,.68-4.84A24.38,24.38,0,0,1,272.53,110.18Z"></path></g><path d="M272.12,113.1a7.14,7.14,0,0,1,1.77,1.23,7.55,7.55,0,0,1-2,.69,24.37,24.37,0,0,1-13.76-1.93,7.42,7.42,0,0,1-1.77-1.23,7.55,7.55,0,0,1,2-.69A24.37,24.37,0,0,1,272.12,113.1Z" style="fill:#37474f"></path><path d="M274.69,133.48a7.65,7.65,0,0,0,3-.14c1.38-.37,2.67-1.69,3.95-4,1.08-2,2.92-6.38,2.13-8.81-1-3.09-4.57-3.53-7-3.82l-.81-.1-.53,3.74.89.11c1.33.16,3.57.44,3.82,1.23.35,1.52-2.21,7.41-3.52,8.06a5.88,5.88,0,0,1-3.45-.56l-1.71,3.37A10.69,10.69,0,0,0,274.69,133.48Z" style="fill:#FFC100"></path><path d="M263.79,102.53c-4.39-2.87-6.37-7.82-3.51-13S265.52,79.15,262,75a7.47,7.47,0,0,1,6.08,5.37c1.63,5-.88,9.52-3.35,12.82S261.81,100.26,263.79,102.53Z" style="fill:#f0f0f0"></path><path d="M271.89,106.12c-3.95-2.58-5.73-7-3.16-11.73s4.71-9.28,1.54-13a6.72,6.72,0,0,1,5.46,4.83c1.46,4.5-.79,8.56-3,11.52S270.1,104.09,271.89,106.12Z" style="fill:#f0f0f0"></path><path d="M279.17,121.61c2.33,0,9.18,2.72,9.33,5.19s-4.51,2.28-4.51,2.28a1.83,1.83,0,0,1-.37,2.31c-1.15,1-9.95-2-9.95-2a9.76,9.76,0,0,1,1.38-2.82,2.67,2.67,0,0,1,1.78-1S275.7,121.61,279.17,121.61Z" style="fill:#ffa8a7"></path><path d="M365.74,131.62a34,34,0,0,1,5,17.36v21.39l1.92,36.19c-7.65,8.33-41.65,6.67-50.14-11.48,0,0,.8-39.93,1.94-48.35,1.56-11.44,4.44-19.7,15.47-19.94l14.18,1.94Z" style="fill:#f0f0f0"></path><line x1="334.25" y1="242.85" x2="334.28" y2="242.85" style="fill:none;stroke:#000;stroke-miterlimit:10;stroke-width:0.332403px"></line><path d="M330.54,231.58c-1.1,3.61-.42,8.22,1.52,10.29a3.21,3.21,0,0,0,2.22,1,4.31,4.31,0,0,0,3.36-2.14,10.71,10.71,0,0,0,1.41-3l-4.88.15h0a1.42,1.42,0,0,1-1.07-.51,4.82,4.82,0,0,1-.62-4.22l3.77.41a6.45,6.45,0,0,0-1.3-4.21,2.47,2.47,0,0,0-1.28-.77h-.09C332.37,228.39,331.17,229.5,330.54,231.58Z" style="fill:#ebebeb"></path><path d="M332.47,233.14a4.82,4.82,0,0,0,.62,4.22,1.42,1.42,0,0,0,1.07.51h0c.69,0,1.37-.73,1.74-1.94a8.53,8.53,0,0,0,.33-2.37h0Z" style="fill:#e0e0e0"></path><path d="M333.66,228.57a2.47,2.47,0,0,1,1.28.77,6.45,6.45,0,0,1,1.3,4.21h0a8.53,8.53,0,0,1-.33,2.37c-.37,1.21-1.05,1.91-1.74,1.94l4.88-.15a13.35,13.35,0,0,0-.16-8.35Z" style="fill:#f5f5f5"></path><path d="M398.29,246a13.05,13.05,0,0,0,1.07-11.76c-.84-1.81-2.09-2.73-3.4-2.75h0l-26.24-.35h0l-5.55-.49h0l-28.34-4.42a5.05,5.05,0,0,1,2.88,2.7c.07.14.13.28.19.43a13.35,13.35,0,0,1,.16,8.35,10.71,10.71,0,0,1-1.41,3,4.31,4.31,0,0,1-3.36,2.14l28.66.43h0l5.58.5h0l25.92,4.33h0C395.74,248.34,397.14,247.66,398.29,246Z" style="fill:#fafafa"></path><path d="M342.59,229.4s3,6.33-2.26,13.54l4.6.07a13.93,13.93,0,0,0,2.21-12.7Z" style="fill:#e0e0e0"></path><path d="M350.06,231.27l13.66,2.32s1.8,5.39-.71,9.68l-14.61-.21S351.81,237.37,350.06,231.27Z" style="fill:#f0f0f0"></path><path d="M363.72,233.59l-5.4-.92h0l-3.4,5.81,3.09,3.11-1.12,1.59,6.12.09C365.52,239,363.72,233.59,363.72,233.59Z" style="fill:#e0e0e0"></path><path d="M352.82,236.18a1.52,1.52,0,0,1,1.26-2.71,1.52,1.52,0,0,1-1.26,2.71Z" style="fill:#fafafa"></path><path d="M382,233.69s2,5.29-1.87,12l1.43.24a16.7,16.7,0,0,0,2.05-12.28Z" style="fill:#e0e0e0"></path><path d="M385.85,233.9a14.82,14.82,0,0,1-2,12.45l1.44.24a15.73,15.73,0,0,0,2.13-12.69Z" style="fill:#e0e0e0"></path><path d="M389.69,234.12A14.83,14.83,0,0,1,387.58,247l1.44.25a15,15,0,0,0,2.2-13.11Z" style="fill:#e0e0e0"></path><path d="M393.53,234.33a14.85,14.85,0,0,1-2.24,13.27l1.45.24A14.48,14.48,0,0,0,395,234.32Z" style="fill:#e0e0e0"></path><path d="M374.49,174.92l7.59,15.28s-11.26,32.05-13.81,35.08-5.36,2.61-6.95,4.87a18.48,18.48,0,0,0,4.55.66c1.95,2.4.78,9.1-2.33,12.53,0,0,.8,3.16,6.41,4.28,1.78.35,5.24.09,7-1.15,3.46-2.49,6.06-9.84,5.47-14.28-.47-3.48-.42-5.92,1.05-9.14,6.93-15.23,10-22.13,14.32-30.18-1-7.16-10.17-28.83-10.17-28.83Z" style="fill:#ffa8a7"></path><path d="M365.74,131.62c8.61,3.12,13,11.72,17.88,21.45s9.27,20.18,9.27,20.18-5,7-15.84,9.16l-10.39-19.36S356.11,146.27,365.74,131.62Z" style="fill:#FFC100"></path><circle cx="335.23" cy="95.23" r="15.5" transform="translate(165.52 399.62) rotate(-76.72)" style="fill:#263238"></circle><path d="M360.59,104.49s-2.38,11.17-3.33,13a5.07,5.07,0,0,1-2.93,2.36l.17-7.86Z" style="fill:#263238"></path><path d="M357.6,88.49a5.51,5.51,0,0,1,4.56,1.6c2,2,.86,8.26-1.57,14.4l-4.48.51Z" style="fill:#263238"></path><path d="M354.77,105c.89.53,2.17-1.19,3.28-2.35s4.72-2.74,6.53,1.06-1.6,9-4.44,9.88c-4.9,1.54-5.64-1.61-5.64-1.61l-.37,17.69c-4.23,4.72-18.68,3.59-16-.47v-5.38a31.24,31.24,0,0,1-6.61.34c-3.6-.56-5.87-3.41-7-7.31-1.75-6.27-2.42-11.33-.93-23.66,1.63-13.52,17.35-13.66,25.84-8.32S354.77,105,354.77,105Z" style="fill:#ffa8a7"></path><path d="M354.77,106.52c.45,0,2.16-2.84,3.28-3.86,1.55-1.41-.45-14.17-.45-14.17A6,6,0,0,0,356.11,82c-2.12-2.34-5.67-2.6-11.72-3.55-3.18-.5-8-1.39-11.16-2-3.79-.7-6.92-1.45-9.6.88a6.19,6.19,0,0,0-.78,9.13,6.21,6.21,0,0,0,2.73,1.87s1.65,1.47,7.39,2.17,14.69-.14,15.92-.3c1.66-.23,2,1.38,2.92,5.79C352.59,99.92,353.25,106.49,354.77,106.52Z" style="fill:#263238"></path><path d="M357.59,89.48,363,86.57a3,3,0,0,0-4.11-1.36A3.23,3.23,0,0,0,357.59,89.48Z" style="fill:#263238"></path><path d="M338.18,123.83s8.05-1.62,10.87-3.12a9.33,9.33,0,0,0,3.89-3.85,12.72,12.72,0,0,1-2.21,4.54C348.67,124,338.18,126,338.18,126Z" style="fill:#f28f8f"></path><path d="M340.12,103a1.63,1.63,0,0,0,1.61,1.67,1.68,1.68,0,1,0-1.61-1.67Z" style="fill:#263238"></path><path d="M342.71,96.31l3.45,1.91a2.07,2.07,0,0,0-.8-2.75A1.92,1.92,0,0,0,342.71,96.31Z" style="fill:#263238"></path><path d="M338.91,114.14l-3.68,1.38a1.93,1.93,0,0,0,2.5,1.22A2.05,2.05,0,0,0,338.91,114.14Z" style="fill:#f28f8f"></path><path d="M325.32,97.73l3.15-2.42a1.91,1.91,0,0,0-2.74-.42A2.08,2.08,0,0,0,325.32,97.73Z" style="fill:#263238"></path><path d="M326.7,102.53a1.64,1.64,0,0,0,1.61,1.68,1.66,1.66,0,0,0,1.62-1.69,1.62,1.62,0,1,0-3.23,0Z" style="fill:#263238"></path><polygon points="334.67 101.24 334.49 111.02 328.7 109.75 334.67 101.24" style="fill:#f28f8f"></polygon></g></g></g><g id="freepik--Sun--inject-5"><g id="freepik--sun--inject-5"><circle cx="132.28" cy="96.8" r="19.5" style="fill:#FFC100"></circle><path d="M132.28,71.67a1.83,1.83,0,0,1-1.83-1.84v-8.6a1.84,1.84,0,1,1,3.67,0v8.6A1.84,1.84,0,0,1,132.28,71.67Z" style="fill:#FFC100"></path><path d="M116.43,76.82a1.83,1.83,0,0,1-1.49-.76l-5.06-7a1.84,1.84,0,0,1,3-2.16l5.06,7a1.84,1.84,0,0,1-.41,2.56A1.81,1.81,0,0,1,116.43,76.82Z" style="fill:#FFC100"></path><path d="M106.64,90.3a1.88,1.88,0,0,1-.57-.09l-8.19-2.66A1.83,1.83,0,1,1,99,84.06l8.19,2.66a1.83,1.83,0,0,1-.56,3.58Z" style="fill:#FFC100"></path><path d="M98.45,109.63a1.83,1.83,0,0,1-.57-3.58l8.19-2.66a1.83,1.83,0,0,1,1.13,3.49L99,109.54A1.82,1.82,0,0,1,98.45,109.63Z" style="fill:#FFC100"></path><path d="M111.37,127.42a1.88,1.88,0,0,1-1.08-.35,1.85,1.85,0,0,1-.41-2.57l5.06-7a1.84,1.84,0,1,1,3,2.16l-5.06,7A1.85,1.85,0,0,1,111.37,127.42Z" style="fill:#FFC100"></path><path d="M132.28,134.21a1.83,1.83,0,0,1-1.83-1.83v-8.61a1.84,1.84,0,1,1,3.67,0v8.61A1.84,1.84,0,0,1,132.28,134.21Z" style="fill:#FFC100"></path><path d="M153.19,127.42a1.85,1.85,0,0,1-1.48-.76l-5.06-7a1.84,1.84,0,1,1,3-2.16l5.06,7a1.85,1.85,0,0,1-.41,2.57A1.88,1.88,0,0,1,153.19,127.42Z" style="fill:#FFC100"></path><path d="M166.11,109.63a1.87,1.87,0,0,1-.56-.09l-8.19-2.66a1.84,1.84,0,1,1,1.14-3.49l8.18,2.66a1.83,1.83,0,0,1-.57,3.58Z" style="fill:#FFC100"></path><path d="M157.93,90.3a1.83,1.83,0,0,1-.57-3.58l8.19-2.66a1.83,1.83,0,0,1,1.13,3.49l-8.18,2.66A1.88,1.88,0,0,1,157.93,90.3Z" style="fill:#FFC100"></path><path d="M148.13,76.82a1.83,1.83,0,0,1-1.48-2.91l5.06-7a1.84,1.84,0,0,1,3,2.16l-5.06,7A1.83,1.83,0,0,1,148.13,76.82Z" style="fill:#FFC100"></path></g></g></svg>