<svg xmlns="http://www.w3.org/2000/svg" viewBox="0 0 500 500"><g id="freepik--background-simple--inject-55"><path d="M488.92,234.91a147.78,147.78,0,0,0-37.54-69.41c-17.26-18-42.84-38.94-74.26-48-60.11-17.39-49,11.08-103.6-60.1S79.76,36,66.32,108.77s22.14,94.9-7.91,134.44-78.3,165.28,4,219.85S284.53,420.83,318.57,440s94.92,24.67,135.26-28.31C487.45,367.49,504,300.78,488.92,234.91Z" style="fill:#FFC100"></path><path d="M488.92,234.91a147.78,147.78,0,0,0-37.54-69.41c-17.26-18-42.84-38.94-74.26-48-60.11-17.39-49,11.08-103.6-60.1S79.76,36,66.32,108.77s22.14,94.9-7.91,134.44-78.3,165.28,4,219.85S284.53,420.83,318.57,440s94.92,24.67,135.26-28.31C487.45,367.49,504,300.78,488.92,234.91Z" style="fill:#fff;opacity:0.7000000000000001"></path></g><g id="freepik--Floor--inject-55"><line x1="472.54" y1="461.75" x2="20.89" y2="461.75" style="fill:none;stroke:#263238;stroke-linecap:round;stroke-linejoin:round"></line></g><g id="freepik--Plants--inject-55"><path d="M161.81,130.41C157.38,125.1,115,83.7,105.47,76.77S56.11,44.85,56.11,44.85,68.55,47.71,75,50.32s76.38,20.52,76.38,20.52L52.93,32.14l33.52-3.28L115.57,26a184.06,184.06,0,0,0-33.63-8c-12.26-1.53-28.06,1.8-36.06,3.81,1-.76,2-1.44,2.72-1.89C51.83,18,73.45,16.4,73.45,16.4s-20.66-4.19-26.14-4.19-17.43,5.48-17.43,5.48L21.16,19s-9.35,37.77-9.35,46.16,1.61,27.11,1.61,27.11S19.55,61.59,20.2,58s4.19-16.79,4.19-16.79-2.9,20.34-3.23,32.28-1,30.66-1.29,36.79,10-46.15,10-46.15,2.26-9,2.9-10.65c0,0,0,0,0,0l-1.95,7.45L25,96.77l9.5,48.63s1.05-24.16-1-29.84,7.77-50.41,7.77-50.41,5.2,41.19,3.59,46.24S68,167.79,68,167.79l-6.35-25.41-5.15-64s8.54,39.47,10.62,45.15,38.53,78,38.53,78S91,153.42,87.19,144.41,79,107.28,79,107.28l23.59,35.93,32.7,94.52-7.81-34.79-12.44-56.86L84.22,94.47l39.83,47.81L155.71,207s-24.47-80.19-33-88.47-47.59-51.4-47.59-51.4l25.1,22.5S166.23,135.72,161.81,130.41Z" style="opacity:0.2"></path><path d="M330.36,130.41c4.43-5.31,46.86-46.71,56.34-53.64s49.36-31.92,49.36-31.92-12.44,2.86-18.85,5.47-76.39,20.52-76.39,20.52l98.42-38.7-33.53-3.28L376.59,26a184.29,184.29,0,0,1,33.64-8c12.26-1.53,28.06,1.8,36.06,3.81-1-.76-2-1.44-2.72-1.89-3.23-1.93-24.85-3.55-24.85-3.55s20.65-4.19,26.14-4.19,17.43,5.48,17.43,5.48L471,19s9.36,37.77,9.36,46.16-1.61,27.11-1.61,27.11S472.62,61.59,472,58s-4.19-16.79-4.19-16.79,2.9,20.34,3.22,32.28,1,30.66,1.29,36.79-10-46.15-10-46.15-2.26-9-2.91-10.65c0,0,0,0,0,0l1.95,7.45,5.81,35.83-9.51,48.63s-1-24.16,1-29.84-7.76-50.41-7.76-50.41-5.2,41.19-3.59,46.24-23.17,56.4-23.17,56.4l6.36-25.41,5.15-64s-8.54,39.47-10.62,45.15-38.53,78-38.53,78,14.68-48.11,18.48-57.12,8.17-37.13,8.17-37.13l-23.58,35.93-32.7,94.52,7.81-34.79,12.44-56.86,30.82-51.61-39.83,47.81L336.46,207s24.47-80.19,33-88.47S417,67.08,417,67.08l-25.09,22.5S325.93,135.72,330.36,130.41Z" style="opacity:0.2"></path></g><g id="freepik--pina-colada--inject-55"><path d="M383,191.31s-3.35-2.17-3.94-8.67,7.1-11.23,13.8-9.85,13.79,5.51,11.82,14.78-12.43,9.79-15.67,8.34A20.64,20.64,0,0,1,383,191.31Z" style="fill:#263238;stroke:#263238;stroke-linecap:round;stroke-linejoin:round"></path><path d="M386.2,178.5s4.14-3.74,6.9-2.76" style="fill:none;stroke:#263238;stroke-linecap:round;stroke-linejoin:round"></path><path d="M398.85,178a1.89,1.89,0,1,1-1.87-1.63A1.76,1.76,0,0,1,398.85,178Z" style="fill:#fff;stroke:#263238;stroke-linecap:round;stroke-linejoin:round"></path><path d="M384.17,178.73c0,.59-.65,1.06-1.46,1.06s-1.47-.47-1.47-1.06.66-1.06,1.47-1.06S384.17,178.15,384.17,178.73Z" style="fill:#fff;stroke:#263238;stroke-linecap:round;stroke-linejoin:round"></path><path d="M397.1,173.45s-3.35-2.17-3.94-8.67,7.09-11.24,13.79-9.86,13.8,5.52,11.83,14.78-12.44,9.79-15.68,8.35A20.69,20.69,0,0,1,397.1,173.45Z" style="fill:#263238;stroke:#263238;stroke-linecap:round;stroke-linejoin:round"></path><path d="M400.25,160.64s4.14-3.75,6.9-2.76" style="fill:none;stroke:#263238;stroke-linecap:round;stroke-linejoin:round"></path><ellipse cx="411.03" cy="160.13" rx="1.88" ry="1.63" style="fill:#fff;stroke:#263238;stroke-linecap:round;stroke-linejoin:round"></ellipse><path d="M398.23,160.87c0,.58-.66,1.06-1.47,1.06s-1.47-.48-1.47-1.06.66-1.06,1.47-1.06S398.23,160.28,398.23,160.87Z" style="fill:#fff;stroke:#263238;stroke-linecap:round;stroke-linejoin:round"></path><path d="M422.36,143.6a2.14,2.14,0,0,1-1.27-.41,2.19,2.19,0,0,1-.52-3.06L430,126.9a2.2,2.2,0,0,1,3.58,2.55l-9.39,13.22A2.19,2.19,0,0,1,422.36,143.6Z" style="fill:#fff;stroke:#263238;stroke-linecap:round;stroke-linejoin:round"></path><polygon points="425.71 136.07 354.29 126.72 464.67 186.16 425.71 136.07" style="fill:#FFC100;stroke:#263238;stroke-linecap:round;stroke-linejoin:round"></polygon><line x1="423.37" y1="137.61" x2="389.74" y2="137.44" style="fill:none;stroke:#263238;stroke-linecap:round;stroke-linejoin:round"></line><line x1="421.67" y1="141.06" x2="416.51" y2="145.85" style="fill:none;stroke:#263238;stroke-linecap:round;stroke-linejoin:round"></line><line x1="426.63" y1="140.19" x2="433.33" y2="151.51" style="fill:none;stroke:#263238;stroke-linecap:round;stroke-linejoin:round"></line><line x1="434.7" y1="155.29" x2="441.91" y2="169.19" style="fill:none;stroke:#263238;stroke-linecap:round;stroke-linejoin:round"></line><line x1="393.17" y1="147.22" x2="402.95" y2="143.96" style="fill:none;stroke:#263238;stroke-linecap:round;stroke-linejoin:round"></line><line x1="359.54" y1="129.38" x2="382.19" y2="131.95" style="fill:none;stroke:#263238;stroke-linecap:round;stroke-linejoin:round"></line><line x1="455.64" y1="181.37" x2="446.37" y2="168.16" style="fill:none;stroke:#263238;stroke-linecap:round;stroke-linejoin:round"></line><path d="M334,188.65l23.59,73.48L419.89,215a33.12,33.12,0,0,0-8.17-8.77,14.24,14.24,0,0,0-10.28-2.12l-.9-4.23a77.22,77.22,0,0,0-10.89-6.05c-4.54-1.81-10.58-4.53-11.49-3.62a3.86,3.86,0,0,1-2.42.9s-2.42-3.32-3.63-3.93-13.3-1.51-18.14-1.51a11.94,11.94,0,0,0-7.56,2.42s-3-2.42-4.53-2.42S334,188.65,334,188.65Z" style="fill:#FFC100;stroke:#263238;stroke-linecap:round;stroke-linejoin:round"></path><path d="M371.51,189.26c-1.21-.61-13.31-1.51-18.14-1.51a11.94,11.94,0,0,0-7.56,2.42s-3-2.42-4.54-2.42c-1.11,0-4.85,1.64-6.74,2.5l23.07,71.88L418.55,216a31.64,31.64,0,0,0-7.43-7.66,14.25,14.25,0,0,0-10.28-2.12l-.91-4.23a76.42,76.42,0,0,0-10.88-6.05c-4.54-1.81-10.59-4.54-11.49-3.63a3.83,3.83,0,0,1-2.42.91S372.72,189.86,371.51,189.26Z" style="fill:#fff;stroke:#263238;stroke-linecap:round;stroke-linejoin:round"></path><line x1="411.12" y1="208.31" x2="405.21" y2="214.98" style="fill:#fff;stroke:#263238;stroke-linecap:round;stroke-linejoin:round"></line><line x1="396.33" y1="221.3" x2="394.25" y2="224.01" style="fill:#fff;stroke:#263238;stroke-linecap:round;stroke-linejoin:round"></line><line x1="401.66" y1="214.34" x2="397.66" y2="219.56" style="fill:#fff;stroke:#263238;stroke-linecap:round;stroke-linejoin:round"></line><line x1="376.98" y1="201.16" x2="376.19" y2="203.7" style="fill:#fff;stroke:#263238;stroke-linecap:round;stroke-linejoin:round"></line><line x1="379.09" y1="194.35" x2="377.82" y2="198.45" style="fill:#fff;stroke:#263238;stroke-linecap:round;stroke-linejoin:round"></line><line x1="345.81" y1="190.17" x2="347.82" y2="201.12" style="fill:#fff;stroke:#263238;stroke-linecap:round;stroke-linejoin:round"></line><line x1="351.04" y1="196.61" x2="352.01" y2="205.63" style="fill:#fff;stroke:#263238;stroke-linecap:round;stroke-linejoin:round"></line><polygon points="312.87 259.61 304.36 261.77 303.16 257 301.07 248.77 297.25 233.68 295.18 225.45 291.36 210.36 289.29 202.13 285.46 187.03 283.38 178.81 279.57 163.71 277.49 155.49 274.63 144.19 283.15 142.04 283.96 145.24 286.04 153.47 289.86 168.56 291.94 176.79 295.75 191.89 297.83 200.11 301.65 215.21 303.73 223.44 307.54 238.53 309.62 246.75 312.87 259.61" style="fill:#FFC100;stroke:#263238;stroke-linecap:round;stroke-linejoin:round"></polygon><path d="M295.75,191.89l-6.46,10.24,2.07,8.23,6.47-10.25Zm-5.89-23.33-6.48,10.25,2.08,8.22,6.48-10.24Zm11.79,46.65-6.47,10.24,2.07,8.23,6.48-10.24Zm-17.69-70-6.47,10.25,2.08,8.22L286,153.47Zm17.12,103.53,6.46-10.24,2.08,8.22L303.16,257Z" style="fill:#263238"></path><path d="M378.06,461.69H280.8s-.91-2.72,4.54-4.23,29.32-10.29,31.74-13.91,3.33-3.63,2.42-7.26-6.65-10-5.14-14.81,4.24-9.08,4.54-13a13.07,13.07,0,0,0-.91-6.36,65.32,65.32,0,0,1-9.7-6.7c-9.34-7.62-22.19-21.72-23-42-1.21-32.05,15.72-69.84,9.67-102.19s-13.61-38.41-10.58-42h90c3,3.63-4.54,9.68-10.58,42s10.88,70.14,9.67,102.19c-.76,20.26-13.61,34.36-23,42a65.94,65.94,0,0,1-9.7,6.7,13.07,13.07,0,0,0-.91,6.36c.31,3.92,3,8.16,4.54,13s-4.23,11.18-5.14,14.81,0,3.63,2.42,7.26,26.3,12.4,31.75,13.91S378.06,461.69,378.06,461.69Z" style="fill:none;stroke:#263238;stroke-linecap:round;stroke-linejoin:round"></path><path d="M378.06,461.69H280.8s-.91-2.72,4.54-4.23,29.32-10.29,31.74-13.91,3.33-3.63,2.42-7.26-6.65-10-5.14-14.81,4.24-9.08,4.54-13a13.07,13.07,0,0,0-.91-6.36,65.32,65.32,0,0,1-9.7-6.7h42.27a65.94,65.94,0,0,1-9.7,6.7,13.07,13.07,0,0,0-.91,6.36c.31,3.92,3,8.16,4.54,13s-4.23,11.18-5.14,14.81,0,3.63,2.42,7.26,26.3,12.4,31.75,13.91S378.06,461.69,378.06,461.69Z" style="fill:#e0e0e0;stroke:#263238;stroke-linecap:round;stroke-linejoin:round"></path><path d="M309.13,450.1A85.7,85.7,0,0,1,294,456.39c-7.31,2-1,3.57,5.78,1.36s7.14-3.91,14.28-3.91,3.94-3.09.35-2.91S311,448.91,309.13,450.1Z" style="fill:#fff"></path><path d="M334.59,404.89s-13.72,2.38-11.12,2,7,2.09,12.24,1a11.16,11.16,0,0,1,2.6,6.7c.38,4.47-9.67,1.12-13.77,9.31s3,8.93,6,11.16,3.72,4.1.74,6-4.69-4.61-7.44-1.86,1.49,5.95,4.09,5.95,7.82-1.11,8.56-5.58,5.21-8.93,5.59-15.63a29,29,0,0,0-.59-7.72c-.89-3.92-3.38-6.23-3.38-9.62S335.92,404.31,334.59,404.89Z" style="fill:#b8b8b8"></path><path d="M342.77,446.29a2.46,2.46,0,0,1-1.5,3.32c-2.48,1-26.86,1.32-26.86,1.32s16.09,2,25,1,6-3.32,8.29-2.49,5.47,3.32,3.15,5.31,1.16,3.81-16.25,1.16-22.38.16-25.7,1.82-24.21,3-24.21,3h89.54s-1.66-2.32-6.13-3.32-5.31.66-8.63,0-1.32-1-2.15-3S342.77,446.29,342.77,446.29Z" style="fill:#b8b8b8"></path><path d="M331.43,409.78s-2.94-.3-6.62-.74-7.66,10.9-7.07,13.11,2.65-2.8,6.92-4.86,9,.44,9.57-4.27S331.43,409.78,331.43,409.78Z" style="fill:#fff"></path><path d="M327.75,435.25s-6.47-6.92-7.36-2.94,9.57,9.57,10,6.77S327.75,435.25,327.75,435.25Z" style="fill:#fff"></path><path d="M333.27,445.34s-5.27,1.7-8.67.34-4.08-.68-7.48,1.19-1.7,3.4,8.5,3.06,15.81-2.21,14.45-3.57S339.05,443.47,333.27,445.34Z" style="fill:#fff"></path><line x1="295.28" y1="211.63" x2="354.88" y2="211.63" style="fill:none;stroke:#263238;stroke-linecap:round;stroke-linejoin:round"></line><line x1="286.85" y1="211.63" x2="292.64" y2="211.63" style="fill:none;stroke:#263238;stroke-linecap:round;stroke-linejoin:round"></line><path d="M363.84,251.24c.9-4.78,1.83-9,2.75-12.7H292.26c.93,3.72,1.85,7.92,2.75,12.7,6.05,32.36-10.89,70.15-9.68,102.2S318,402.12,318,402.12s7.35,1.52,22.87,0c0,0,31.45-16.63,32.66-48.68S357.8,283.6,363.84,251.24Z" style="fill:#fff;stroke:#263238;stroke-linecap:round;stroke-linejoin:round"></path><path d="M364.47,457c-5.44-1.5-29.32-10.19-31.74-13.78s-3.33-3.59-2.42-7.19,6.65-9.88,5.14-14.67-4.24-9-4.54-12.88a12.79,12.79,0,0,1,.91-6.29,66.36,66.36,0,0,0,9.7-6.64c9.34-7.55,22.19-21.52,23-41.59,1.21-31.74-15.72-69.19-9.67-101.23s13.61-38,10.58-41.64h5.52c3,3.6-4.54,9.59-10.58,41.64S371.2,322.26,370,354c-.76,20.07-13.61,34-22.95,41.59a66.36,66.36,0,0,1-9.7,6.64,12.79,12.79,0,0,0-.91,6.29c.3,3.89,3,8.09,4.54,12.88s-4.24,11.08-5.14,14.67,0,3.6,2.42,7.19S364.56,455.54,370,457s4.54,4.2,4.54,4.2H369S369.92,458.53,364.47,457Z" style="opacity:0.19"></path></g><g id="freepik--Pineapple--inject-55"><path d="M186.8,267s-4.4-6.21-10.61-7a47.37,47.37,0,0,0-13.45.77s2.84-5.43,5.43-7a62.48,62.48,0,0,1,6.21-3.1,17.8,17.8,0,0,0-6.21-7c-4.4-2.84-11.65-7.24-11.65-7.24s9.32.77,13.72,2.07a50.85,50.85,0,0,1,9.32,4.14s-6.73-7.25-12.17-12.42-16.82-14.76-16.82-14.76L142,210A165.83,165.83,0,0,1,158.59,216c7,3.11,22.26,13.2,22.26,13.2S174.38,218.3,167.39,209s-21.22-21.23-21.22-21.23l30.28,23-12.16-19.41-5.18-5.18s12.94,7,17.08,12.42,14.24,17.08,14.24,17.08-13.2-40.88-19.15-50.46-15.79-19.41-15.79-19.41,16.82,5.69,21.22,8.28,5.95,4.14,6.47,4.92-1.55-10.87-8.28-25.1-9.84-21.74-9.84-21.74S177,120,182.66,130.31,195.86,157,195.86,157s-8-43.74-11.9-52-11.65-19.66-11.65-19.66,19.15,14.75,23,32.09l3.88,17.33S195.6,115.05,193,98.23s-3.1-24.33-3.1-25.11,6.73,8.28,10.61,16.82a94.81,94.81,0,0,1,6.21,21c.52,2.84-.52-9.32,1.29-17.86s3.37-13.46,3.63-15,3.36,15,4.14,27.95.51,32.09.51,32.09,8.8-17.86,10.61-22.26,5.44-9,5.7-10.09A174.29,174.29,0,0,1,229,128.24c-2.33,9.58-3.36,13.72-3.36,13.72l.26,6.73s16-30,22-39.34,16-17.34,16-17.34-1,5.7-8,25.37a222.63,222.63,0,0,1-18.12,38.55c-1.81,2.85-4.4,8-5.17,9.58s.51,12.42.51,12.42,14-8.28,24.85-13.46,30.79-8.79,30.79-8.79-23.8,9.57-31.31,17.08-23.29,19.92-23.29,19.92l.26,11.13s18.63-14.23,31.31-19.67,21.74-6.47,21.74-6.47L254.09,201c-8.54,5.95-18.38,13.72-18.38,13.72s20.71-10.09,37.27-10.61c0,0-29,18.11-31.83,22.25s-7.25,8.8-7.77,9.58,13.46-4.66,21.48-6.73a146.9,146.9,0,0,1,16.82-3.11,75.07,75.07,0,0,0-23,10.36c-12.16,8-16.89,9.66-18.15,11.17l-1.26,1.51s26.66-9.58,33.13-11.13a40.67,40.67,0,0,1,13.45-.52s-18.3,2.78-26.75,11-19.56,18.6-31.6,17.92-18.76-.68-21.09-.94S186.8,267,186.8,267Z" style="fill:#FFC100;stroke:#263238;stroke-miterlimit:10"></path><path d="M186.8,267s-4.4-6.21-10.61-7a47.37,47.37,0,0,0-13.45.77s2.84-5.43,5.43-7a62.48,62.48,0,0,1,6.21-3.1,17.8,17.8,0,0,0-6.21-7c-4.4-2.84-11.65-7.24-11.65-7.24s9.32.77,13.72,2.07a50.85,50.85,0,0,1,9.32,4.14s-6.73-7.25-12.17-12.42-16.82-14.76-16.82-14.76L142,210A165.83,165.83,0,0,1,158.59,216c7,3.11,22.26,13.2,22.26,13.2S174.38,218.3,167.39,209s-21.22-21.23-21.22-21.23l30.28,23-12.16-19.41-5.18-5.18s12.94,7,17.08,12.42,14.24,17.08,14.24,17.08-13.2-40.88-19.15-50.46-15.79-19.41-15.79-19.41,16.82,5.69,21.22,8.28,5.95,4.14,6.47,4.92-1.55-10.87-8.28-25.1-9.84-21.74-9.84-21.74S177,120,182.66,130.31,195.86,157,195.86,157s-8-43.74-11.9-52-11.65-19.66-11.65-19.66,19.15,14.75,23,32.09l3.88,17.33S195.6,115.05,193,98.23s-3.1-24.33-3.1-25.11,6.73,8.28,10.61,16.82a94.81,94.81,0,0,1,6.21,21c.52,2.84-.52-9.32,1.29-17.86s3.37-13.46,3.63-15,3.36,15,4.14,27.95.51,32.09.51,32.09,8.8-17.86,10.61-22.26,5.44-9,5.7-10.09A174.29,174.29,0,0,1,229,128.24c-2.33,9.58-3.36,13.72-3.36,13.72l.26,6.73s16-30,22-39.34,16-17.34,16-17.34-1,5.7-8,25.37a222.63,222.63,0,0,1-18.12,38.55c-1.81,2.85-4.4,8-5.17,9.58s.51,12.42.51,12.42,14-8.28,24.85-13.46,30.79-8.79,30.79-8.79-23.8,9.57-31.31,17.08-23.29,19.92-23.29,19.92l.26,11.13s18.63-14.23,31.31-19.67,21.74-6.47,21.74-6.47L254.09,201c-8.54,5.95-18.38,13.72-18.38,13.72s20.71-10.09,37.27-10.61c0,0-29,18.11-31.83,22.25s-7.25,8.8-7.77,9.58,13.46-4.66,21.48-6.73a146.9,146.9,0,0,1,16.82-3.11,75.07,75.07,0,0,0-23,10.36c-12.16,8-16.89,9.66-18.15,11.17l-1.26,1.51s26.66-9.58,33.13-11.13a40.67,40.67,0,0,1,13.45-.52s-18.3,2.78-26.75,11-19.56,18.6-31.6,17.92-18.76-.68-21.09-.94S186.8,267,186.8,267Z" style="stroke:#263238;stroke-miterlimit:10;opacity:0.2"></path><path d="M186.8,267s-4.4-6.21-10.61-7a47.37,47.37,0,0,0-13.45.77s2.84-5.43,5.43-7a62.48,62.48,0,0,1,6.21-3.1,17.8,17.8,0,0,0-6.21-7c-4.4-2.84-11.65-7.24-11.65-7.24s9.32.77,13.72,2.07a50.85,50.85,0,0,1,9.32,4.14s-6.73-7.25-12.17-12.42-16.82-14.76-16.82-14.76L142,210A165.83,165.83,0,0,1,158.59,216c7,3.11,22.26,13.2,22.26,13.2S174.38,218.3,167.39,209s-21.22-21.23-21.22-21.23l30.28,23-12.16-19.41-5.18-5.18s12.94,7,17.08,12.42,14.24,17.08,14.24,17.08-13.2-40.88-19.15-50.46-15.79-19.41-15.79-19.41,16.82,5.69,21.22,8.28,5.95,4.14,6.47,4.92-1.55-10.87-8.28-25.1-9.84-21.74-9.84-21.74S177,120,182.66,130.31,195.86,157,195.86,157s-8-43.74-11.9-52-11.65-19.66-11.65-19.66,19.15,14.75,23,32.09l3.88,17.33S195.6,115.05,193,98.23s-3.1-24.33-3.1-25.11,6.73,8.28,10.61,16.82a94.81,94.81,0,0,1,6.21,21c.52,2.84-.52-9.32,1.29-17.86s3.37-13.46,3.63-15,3.36,15,4.14,27.95.51,32.09.51,32.09,8.8-17.86,10.61-22.26,5.44-9,5.7-10.09A174.29,174.29,0,0,1,229,128.24c-2.33,9.58-3.36,13.72-3.36,13.72l.26,6.73s16-30,22-39.34,16-17.34,16-17.34-1,5.7-8,25.37a222.63,222.63,0,0,1-18.12,38.55c-1.81,2.85-4.4,8-5.17,9.58s.51,12.42.51,12.42,14-8.28,24.85-13.46,30.79-8.79,30.79-8.79-23.8,9.57-31.31,17.08-23.29,19.92-23.29,19.92l.26,11.13s18.63-14.23,31.31-19.67,21.74-6.47,21.74-6.47L254.09,201c-8.54,5.95-18.38,13.72-18.38,13.72s20.71-10.09,37.27-10.61c0,0-29,18.11-31.83,22.25s-7.25,8.8-7.77,9.58,13.46-4.66,21.48-6.73a146.9,146.9,0,0,1,16.82-3.11,75.07,75.07,0,0,0-23,10.36c-12.16,8-16.89,9.66-18.15,11.17l-1.26,1.51s26.66-9.58,33.13-11.13a40.67,40.67,0,0,1,13.45-.52s-18.3,2.78-26.75,11-19.56,18.6-31.6,17.92-18.76-.68-21.09-.94S186.8,267,186.8,267Z" style="fill:none;stroke:#263238;stroke-linecap:round;stroke-linejoin:round"></path><path d="M206.15,175s-1-38,5.37-55.92S221,95.71,221,95.71s12.17,33.84,11.55,52.83-10.11,45.4-10.11,45.4Z" style="fill:#FFC100;stroke:#263238;stroke-linecap:round;stroke-linejoin:round"></path><path d="M201.4,191.46s-9.9-19.61-8.25-42.3,4.13-32.82,3.09-39.83-1.85-13.62-1.85-13.62,12.79,27.86,21.46,49.32a95.92,95.92,0,0,1,6.4,43.13c-.21,1.24-6.4,11.14-6.4,11.14l-4.33,11.14Z" style="fill:#FFC100;stroke:#263238;stroke-linecap:round;stroke-linejoin:round"></path><path d="M200.37,219.94s-14.65-17.75-26.21-32.81a242.35,242.35,0,0,0-24.76-27.24s17.34,6,27.24,15.47,26.41,25.39,30.54,36.32.21,17.75.21,17.75Z" style="fill:#FFC100;stroke:#263238;stroke-linecap:round;stroke-linejoin:round"></path><path d="M220.18,213.54s14-23.11,23.94-47.26,17.95-34.67,17.95-34.67-30.33,27.66-36.11,38-10.73,14.85-13,25.79.62,24.56.83,25.59S220.18,213.54,220.18,213.54Z" style="fill:#FFC100;stroke:#263238;stroke-linecap:round;stroke-linejoin:round"></path><path d="M211.52,198.68s-4.13-19.6-15.07-34.05-29.3-22.49-29.3-22.49,8.25.62,13.82,18.16,13.83,33.64,18.58,38.18,10.52,10.31,10.52,10.31Z" style="fill:#FFC100;stroke:#263238;stroke-linecap:round;stroke-linejoin:round"></path><path d="M200.37,219.94A100.86,100.86,0,0,1,189,209.62a109.23,109.23,0,0,0-10.52-9.91s6.6-1,10.73,0,10.32,5.16,10.32,5.16a25.16,25.16,0,0,1-3.92-10.11c-.62-5.36-.62-7.63-.62-7.63a82.13,82.13,0,0,1,12.79,7c5.57,3.92,10.53,14,10.53,14s-1.45-3.3,6.39-12.38,21.05-14.24,21.05-14.24-4.13,13.62-7.43,18.78a98.15,98.15,0,0,1-6.39,8.88s7.22-5.78,12.58-7.23,6.61-1.65,6.61-1.65-5,8.46-7,11.35a127.88,127.88,0,0,1-10.52,12C230.29,227,219.77,234,219.77,234l-9.08,4.75Z" style="fill:#FFC100;stroke:#263238;stroke-linecap:round;stroke-linejoin:round"></path><path d="M195.63,237.68s-5.16-3.5-5.37-12.38.21-15.47.21-15.47,8,2.68,13,6a23.88,23.88,0,0,1,7.22,7.43s.83-5,7-8.87,19.39-7,19.39-7-1.65,10.11-3.5,16.3-6.81,11.35-9.7,14.65-14,11.15-14,11.15Z" style="fill:#FFC100;stroke:#263238;stroke-linecap:round;stroke-linejoin:round"></path><path d="M191.7,250.27s-4.33-7.22-6.6-11.76-2.68-5.57-2.68-5.57a88.36,88.36,0,0,1,10.94,1.86,74.71,74.71,0,0,1,8.66,3.5s.42-4.33,5.37-8.87a54.12,54.12,0,0,1,9.49-7s5.57,6.4,6,10.12.82,7,.82,7l7.64-4.54a31.85,31.85,0,0,1-.83,12.59c-1.86,6.19-3.71,8.87-4.33,9.49a11.81,11.81,0,0,1-2.48,1.45s-.62,2.27-7.84.82-13.62-3.51-14.24-3.92-2.27-1.44-3.1-1.86S191.7,250.27,191.7,250.27Z" style="fill:#FFC100;stroke:#263238;stroke-linecap:round;stroke-linejoin:round"></path><path d="M180.35,263.07s-1.65-3.1-9.28-5.78a89.35,89.35,0,0,0-16.51-3.72s7.22-3.3,14.24-2.88,17.13,5.57,18.57,7.22.21-3.92-8.46-11.56S157.24,229.84,153.53,228a64.49,64.49,0,0,0-6-2.69s13.83-.2,23.94,5.57a110.08,110.08,0,0,1,17.75,12.8,45.89,45.89,0,0,0-11.14-18.37,100.94,100.94,0,0,0-15.69-13s13.21,5.16,22.08,11.35,25.38,24.15,25.38,24.15,2.89-13.62,13.62-22.29A61.9,61.9,0,0,1,246,214.16a37.44,37.44,0,0,1-5.16,16.51,122.68,122.68,0,0,1-8.26,12.38s15.89-9.49,23.12-11.35S270.54,228,270.54,228s-24.15,14.23-28.48,19.39-5.57,6.81-5.57,6.81,10.73-4.33,15.89-5.57,14.44-1.44,14.44-1.44-21.67,8-25.79,10.73-11.77,6.81-11.77,6.81-29.09-.83-35.28-1S180.35,263.07,180.35,263.07Z" style="fill:#FFC100;stroke:#263238;stroke-linecap:round;stroke-linejoin:round"></path><path d="M194.18,269.67a11.49,11.49,0,0,1-1-.87,24.78,24.78,0,0,1-5.38-7.8c-2.68-6-10.73-15.27-10.73-15.27A54.41,54.41,0,0,1,188,247.38a41.54,41.54,0,0,1,9.91,4.54,23.3,23.3,0,0,1,4.33-7.22l2.89-3.09s7.63,7.63,9.7,10.52a17.47,17.47,0,0,1,2.68,5.57s1-3.71,11.14-5.16,20.43-4.12,20.43-4.12-10.52,13.2-14,16.09a62.43,62.43,0,0,1-9.9,6Z" style="fill:#FFC100;stroke:#263238;stroke-linecap:round;stroke-linejoin:round"></path><path d="M191.91,274.21s-9.29-.62-14-4.75-8-6.6-8-6.6,6.4-1.44,10.52.21S191.91,268,191.91,268s-1-.41-1.86-5.16a46.12,46.12,0,0,1-.82-6.81s7.63.41,12.17,3.51,6,5.16,6,5.16-2.48-.62,5-2.68a128.59,128.59,0,0,1,17.95-3.1s.62,3.71,1.24,8.46-1.24,7.43-1.24,7.43Z" style="fill:#FFC100;stroke:#263238;stroke-linecap:round;stroke-linejoin:round"></path><path d="M180.88,273.39c-10.4,4-18.57,8.16-26.26,16.71-12.28,13.65-16.54,33.66-17.51,51.57-1.55,28.72,1.58,63.4,12.65,90.2,5.63,13.6,17.94,27.15,33.39,29,7.5.91,20.46.91,26.6,1.36s6.81.46,15.9-.22c47.53-3.57,59.28-61.18,59.75-99.72.09-6.77-.08-13.6-.41-20.36-1.24-25.35-9.29-51.9-32.52-65.38a70.76,70.76,0,0,0-11.82-5.68l1.82-4.32s-3.63.23-5,1.36-5.68,2.28-5.68,2.28l-5-6.14-2.95,3.64-6.37-1.37-2.5,5.23-8.41-2.27-3.63,3.41L196.56,270a11.72,11.72,0,0,1-2.95,2.73c-1.59.9-8.64-.91-8.64-.91Z" style="fill:#e0e0e0;stroke:#263238;stroke-linecap:round;stroke-linejoin:round"></path><path d="M190.32,280.67c-3.34,5.63-9.29,11.53-15.88,13.2s-7.39-8.14-1.28-13.34,15.88-5.08,20.17-7.65S193.66,275,190.32,280.67Z" style="fill:#e0e0e0;stroke:#263238;stroke-linecap:round;stroke-linejoin:round"></path><path d="M189.86,281.4c-1.62-2.33-3.92-1.33-4.64-1.12-.95.27,1.25-3.22,1.25-3.22s-4.27,4.72-8.78,3.23c-2.17-.72-3.13-.73-3.72-.5l-.81.74c-6.11,5.2-5.32,15,1.28,13.34C180.75,292.28,186.42,286.74,189.86,281.4Z" style="fill:#fff;stroke:#263238;stroke-linecap:round;stroke-linejoin:round"></path><path d="M206.74,280.6c-.35,5.7-6.21,10.8-11.75,12.78s-8-7.08-4.67-12.71,11.35-6.85,14.07-9.36S207.08,274.89,206.74,280.6Z" style="fill:#e0e0e0;stroke:#263238;stroke-linecap:round;stroke-linejoin:round"></path><path d="M206.66,281.33a7.83,7.83,0,0,0-6.16-1.65c-1.2.11-1.51-3.68-1.51-3.68s-1.53,6.43-5.37,4.48c-1.85-.94-2.64-.94-3-.67a4.17,4.17,0,0,1-.3.86c-3.34,5.63-.86,14.68,4.67,12.71C200.29,291.49,206,286.78,206.66,281.33Z" style="fill:#fff;stroke:#263238;stroke-linecap:round;stroke-linejoin:round"></path><path d="M221.46,277.92c2.64,5.86-1.59,12.05-5.85,14.71s-9.22-6.33-8.87-12,7.27-7.35,8.88-10.67S218.82,272.05,221.46,277.92Z" style="fill:#e0e0e0;stroke:#263238;stroke-linecap:round;stroke-linejoin:round"></path><path d="M221.76,278.68c-3.35-2-5.18-.46-6-.19-1.12.36-4-3.51-4-3.51s1.91,6.61-2.4,5c-2.07-.78-2.73-.67-2.87-.33a3.78,3.78,0,0,1,.24,1c-.35,5.7,4.62,14.69,8.87,12C219.69,290.09,223.83,284.28,221.76,278.68Z" style="fill:#fff;stroke:#263238;stroke-linecap:round;stroke-linejoin:round"></path><path d="M236,279c5.64,5.53,4.68,7.29-.4,9.86s-11.46-5-14.1-10.89,1.88-9.53,4.23-12.39S230.31,273.42,236,279Z" style="fill:#e0e0e0;stroke:#263238;stroke-linecap:round;stroke-linejoin:round"></path><path d="M236.65,279.66c-3.45-2.83-4.37-3.1-5.65-4.21-1.69-1.45-7.69-4.64-7.69-4.64s5,7.64.15,6.19c-2.35-.69-2.86-.52-2.79-.13a6.52,6.52,0,0,1,.79,1.05c2.64,5.86,9,13.47,14.1,10.89C240.42,286.35,241.58,284.83,236.65,279.66Z" style="fill:#fff;stroke:#263238;stroke-linecap:round;stroke-linejoin:round"></path><path d="M252.24,276.8c8.3,5,8.71,11.92,2.08,13.92S241.6,284.48,236,279s-5.29-7.7-.78-9.49S243.94,271.77,252.24,276.8Z" style="fill:#e0e0e0;stroke:#263238;stroke-linecap:round;stroke-linejoin:round"></path><path d="M253.28,277.45c-3.92-1.14-6,.77-7.63.86-2.1.13-11.68-4.06-11.68-4.06s6.59,7.92,2.4,4.91c-2-1.45-2.14-1.57-1.75-1.27s1.07.8,1.34,1.06c5.64,5.53,11.73,13.77,18.36,11.77C260.66,288.81,260.69,282.34,253.28,277.45Z" style="fill:#fff;stroke:#263238;stroke-linecap:round;stroke-linejoin:round"></path><path d="M173.76,295.28c-3.19,7.22-9.76,15.21-18.36,13.5-6.56-1.31-8.71-8.3-3.24-15.47,4.62-6.06,13.68-12.13,19.88-11.81C176.12,281.72,177.15,287.6,173.76,295.28Z" style="fill:#e0e0e0;stroke:#263238;stroke-linecap:round;stroke-linejoin:round"></path><path d="M173.26,296.3c-2.65-1.27-6.5-1.11-7.89-2.06-1.84-1.24.86-7.4.86-7.4s-3.47,4.93-9,4.87c-2.67,0-3.73.26-4.26.62-.27.33-.54.65-.79,1-5.46,7.22-3.5,13.89,3.24,15.47C161.83,310.28,169.5,303.81,173.26,296.3Z" style="fill:#fff;stroke:#263238;stroke-linecap:round;stroke-linejoin:round"></path><path d="M194.72,294.82c-1.48,7.93-7.71,16.68-14.49,15.43s-10.09-7.2-6.47-15,11.17-15,16-13.55S196.19,286.89,194.72,294.82Z" style="fill:#e0e0e0;stroke:#263238;stroke-linecap:round;stroke-linejoin:round"></path><path d="M194.49,295.86c-2.66-1.12-6.14.16-7.47-.8-1.76-1.27-.85-7.68-.85-7.68s-3.72,4.3-7.8,5.1a9.47,9.47,0,0,0-4.06,1.73c-.19.35-.38.71-.55,1.07-3.62,7.77-.3,13.72,6.47,15C186.72,311.44,192.76,303.54,194.49,295.86Z" style="fill:#fff;stroke:#263238;stroke-linecap:round;stroke-linejoin:round"></path><path d="M215.73,294.08c.64,8-3.56,16.9-10.54,16.1s-11.95-7.43-10.47-15.36,7-14.16,11.95-13.15S215.1,286.12,215.73,294.08Z" style="fill:#e0e0e0;stroke:#263238;stroke-linecap:round;stroke-linejoin:round"></path><path d="M215.79,295.13c-2.53-.76-5.63.5-7.12-.36-2-1.13-3.08-7.37-3.08-7.37a11,11,0,0,1-7,4.67c-2.27.44-3.24,1.09-3.67,1.65-.09.36-.18.73-.24,1.1-1.48,7.93,3.48,14.57,10.47,15.36C211.86,311,216.08,302.89,215.79,295.13Z" style="fill:#fff;stroke:#263238;stroke-linecap:round;stroke-linejoin:round"></path><path d="M236.1,290.26c2.89,8-.42,18-7.7,17.55s-12-5.76-12.67-13.73,1.11-15.84,6.2-15.07S233.21,282.28,236.1,290.26Z" style="fill:#e0e0e0;stroke:#263238;stroke-linecap:round;stroke-linejoin:round"></path><path d="M236.43,291.32c-3.54-.8-6,1.55-7.73.78-2.3-1-5.44-7.22-5.44-7.22s-.89,4.43-4.83,6c-1.89.75-2.53,1.51-2.76,2.11,0,.37,0,.74.06,1.11.64,8,5.4,13.26,12.67,13.73C235.36,308.26,238.73,299.09,236.43,291.32Z" style="fill:#fff;stroke:#263238;stroke-linecap:round;stroke-linejoin:round"></path><path d="M255.25,292.05c5,7.28,2.17,16.69-3.77,15.25s-12.49-9.05-15.38-17-2.92-12.73.88-10.27S250.28,284.76,255.25,292.05Z" style="fill:#e0e0e0;stroke:#263238;stroke-linecap:round;stroke-linejoin:round"></path><path d="M255.83,293c-4.87-.89-6.47,1.07-8.06,0-2.1-1.41-6.79-7.66-6.79-7.66s2.69,5.82-2.09,3.15c-2.3-1.28-3,.07-3.16.67.12.36.23.73.37,1.1,2.89,8,9.43,15.59,15.38,17C257.16,308.68,259.94,300.09,255.83,293Z" style="fill:#fff;stroke:#263238;stroke-linecap:round;stroke-linejoin:round"></path><path d="M180.62,312.58c-1.18,8.1-8,16.77-14.79,17.36-7.32.65-12.4-11.27-10.32-18.87,2-7.42,11.42-12.81,18.16-14.12C179.9,295.74,182,303.31,180.62,312.58Z" style="fill:#e0e0e0;stroke:#263238;stroke-linecap:round;stroke-linejoin:round"></path><path d="M180.39,313.78c-3.3-3.15-6.76-1.85-8.18-2.21-1.88-.46-2-7-2-7s-2.69,8-9.22,5.85c-3.14-1-4.44-1-5-.59-.15.4-.3.81-.42,1.23-2.22,7.67,2.38,19,10.32,18.87C172.44,329.8,178.61,322.55,180.39,313.78Z" style="fill:#fff;stroke:#263238;stroke-linecap:round;stroke-linejoin:round"></path><path d="M205.93,312.47A17.63,17.63,0,0,1,192.14,330c-9.1,2.18-12.6-10.57-11.52-17.46,1.47-9.35,8.59-14.15,14.39-16.08S205.94,303.18,205.93,312.47Z" style="fill:#e0e0e0;stroke:#263238;stroke-linecap:round;stroke-linejoin:round"></path><path d="M205.87,313.67c-3.72-2.92-7.76-2-9.39-2.31-2.14-.41-3.21-7.07-3.21-7.07s-1.75,9.41-7.8,7.38c-2.91-1-4.09-.81-4.59-.37-.1.42-.19.84-.26,1.28-1.08,6.89,2.1,19.42,11.52,17.46A17.49,17.49,0,0,0,205.87,313.67Z" style="fill:#fff;stroke:#263238;stroke-linecap:round;stroke-linejoin:round"></path><path d="M229.51,310.08c1.28,9.44-5.33,17.22-11.21,19.32s-12.46-7.57-12.37-16.93,5.94-14.16,10.45-16.77S228.23,300.64,229.51,310.08Z" style="fill:#e0e0e0;stroke:#263238;stroke-linecap:round;stroke-linejoin:round"></path><path d="M229.63,311.29c-4.25-2.75-8.08-.85-9.5-1-1.88-.19-3.72-6.7-3.72-6.7s-.11,9.38-6,7.7c-2.82-.81-4-.57-4.44-.1,0,.42-.06.84-.06,1.28-.09,9.36,6.49,19,12.37,16.93C223.92,327.39,230.3,320.2,229.63,311.29Z" style="fill:#fff;stroke:#263238;stroke-linecap:round;stroke-linejoin:round"></path><path d="M252.77,309.57c2.75,8.85-1.5,13.82-8.19,16.06-8.78,2.95-14.12-8.57-15.07-15.55-1.28-9.44,3.74-17.57,7.84-18.19C242.84,291.06,250.71,302.9,252.77,309.57Z" style="fill:#e0e0e0;stroke:#263238;stroke-linecap:round;stroke-linejoin:round"></path><path d="M253.07,310.72c-3.9-3.12-6.67-2.18-8.38-3.32-2.25-1.49-5.64-7.61-5.64-7.61s1.48,10.08-5,8.82c-3.12-.61-4.29-.32-4.66.18,0,.42.07.85.13,1.29,1,7,6.29,18.5,15.07,15.55C251,323.48,255.1,319.17,253.07,310.72Z" style="fill:#fff;stroke:#263238;stroke-linecap:round;stroke-linejoin:round"></path><path d="M276.44,304.77c3.36,6.75-.31,17.45-7.45,20-9,3.15-14.19-8.21-16.22-15.17-2.61-9-2.24-14,4.37-16C265.26,291.09,273.12,298.09,276.44,304.77Z" style="fill:#e0e0e0;stroke:#263238;stroke-linecap:round;stroke-linejoin:round"></path><path d="M276.88,305.87c-3.49-1.62-7.49,1-9.32,1-2.43-.05-7.28-6.09-7.28-6.09s.21,8-4.22,7.88c-2.13-.07-3.41-.73-3.62-.32.11.4.21.81.33,1.23,2,7,6.92,18.15,16.22,15.17C276.18,322.42,279.92,313.94,276.88,305.87Z" style="fill:#fff;stroke:#263238;stroke-linecap:round;stroke-linejoin:round"></path><path d="M165.34,334.55c-1,7.51-6.47,17.8-15.11,14.94-7-2.31-12.29-11.26-11.14-19.13,1.33-9,8.14-16.55,15.27-15C162.19,317.1,166.26,327.55,165.34,334.55Z" style="fill:#e0e0e0;stroke:#263238;stroke-linecap:round;stroke-linejoin:round"></path><path d="M165.18,335.81c-3.92-2.1-8-1.5-9.89-2.69-2.55-1.57-3.45-9.58-3.45-9.58s-1.07,6.9-7.55,5.49c-3.12-.68-4.52-.36-5,.08-.08.42-.16.83-.22,1.25-1.15,7.87,4.08,16.7,11.14,19.13C156.86,351.77,163.84,345.05,165.18,335.81Z" style="fill:#fff;stroke:#263238;stroke-linecap:round;stroke-linejoin:round"></path><path d="M192,334.75c-.23,8-5.11,19.29-14.43,17.85-7.89-1.23-13.14-10.18-12.22-18.05.81-6.92,5.56-19.07,14.64-17.5C187,318.27,192.27,324.78,192,334.75Z" style="fill:#e0e0e0;stroke:#263238;stroke-linecap:round;stroke-linejoin:round"></path><path d="M191.9,336c-3.9-1.89-8,.08-9.86-1-2.46-1.39-3.83-9.48-3.83-9.48s-2.33,6.78-7.92,6.41c-2.69-.19-4.23.59-4.76,1.2-.07.45-.14.9-.19,1.35-.79,7.94,4.32,16.81,12.22,18.05C186.41,354,191.32,343.74,191.9,336Z" style="fill:#fff;stroke:#263238;stroke-linecap:round;stroke-linejoin:round"></path><path d="M218.45,334.14c.27,7.89-3,19.51-12.49,18.61-8.27-.78-14.38-9.59-14-18,.38-8,4.47-18.56,13.9-17.81C212.88,317.5,218.12,324.1,218.45,334.14Z" style="fill:#e0e0e0;stroke:#263238;stroke-linecap:round;stroke-linejoin:round"></path><path d="M218.45,335.45c-3.25-1.62-7.11.34-8.92-.62-2.38-1.28-4.47-9.28-4.47-9.28s-1.16,8.24-8.09,6.59c-3.33-.79-4.42.58-4.89,1.22,0,.46-.07.93-.09,1.39-.35,8.35,5.57,17.07,14,18C213,353.54,218.33,345.05,218.45,335.45Z" style="fill:#fff;stroke:#263238;stroke-linecap:round;stroke-linejoin:round"></path><path d="M245.12,330.41c.8,7.93-2.46,20.71-12.48,20.52-9.24-.18-14.11-8.31-14.19-16.79-.06-7.12,1.7-20.2,11.64-19.55C237.49,315.07,244.1,320.29,245.12,330.41Z" style="fill:#e0e0e0;stroke:#263238;stroke-linecap:round;stroke-linejoin:round"></path><path d="M245.2,331.73c-3.92-1.43-7.52,1.53-9.55.7-2.67-1.1-5.49-9.11-5.49-9.11s-2.23,6.75-7.78,7.59c-2.67.4-3.58,1.14-3.93,1.83v1.4c.09,8.46,4.93,16.58,14.19,16.79C242.17,351.14,245.57,339.39,245.2,331.73Z" style="fill:#fff;stroke:#263238;stroke-linecap:round;stroke-linejoin:round"></path><path d="M269.81,329.19c1.11,7-2.9,19.95-10.76,19.72s-13.13-10.82-13.93-18.5c-1.07-10.12,2.66-17.76,8.84-16.53S268.33,319.79,269.81,329.19Z" style="fill:#e0e0e0;stroke:#263238;stroke-linecap:round;stroke-linejoin:round"></path><path d="M270,330.43c-4.41-1.2-7.67,1.75-9.41.83-2.31-1.23-5.4-9.09-5.4-9.09s.3,8.12-5.75,6.18c-2.92-.94-4-.07-4.38.64,0,.47,0,.95.1,1.42.8,7.68,5.69,17.78,13.93,18.5C265.24,349.45,270.88,339.52,270,330.43Z" style="fill:#fff;stroke:#263238;stroke-linecap:round;stroke-linejoin:round"></path><path d="M177.91,355c-.11,8.1-6.19,17.59-13.59,17.3-7.89-.31-13.92-12.06-13.75-20.47.19-9.37,7.24-14.05,15-15C174.51,335.68,178,348.25,177.91,355Z" style="fill:#e0e0e0;stroke:#263238;stroke-linecap:round;stroke-linejoin:round"></path><path d="M177.83,356.28c-4-3.2-7.78-1.93-9.52-2.58-2.29-.86-4.2-8.15-4.2-8.15s-1.22,8.42-8.27,5.86c-3.39-1.24-4.69-1.26-5.17-.86,0,.42-.09.85-.1,1.28-.17,8.41,5.42,19.72,13.75,20.47C171,372.9,177.12,365.6,177.83,356.28Z" style="fill:#fff;stroke:#263238;stroke-linecap:round;stroke-linejoin:round"></path><path d="M206.38,355.17c.06,8.86-5.36,17.25-14.34,18.32-9.51,1.14-14.26-10.53-14.13-18.49.15-9,6.9-16.48,14.43-18C200.57,335.38,206.33,347.5,206.38,355.17Z" style="fill:#e0e0e0;stroke:#263238;stroke-linecap:round;stroke-linejoin:round"></path><path d="M206.33,356.48c-4-3-8.49-1.85-10.42-2.36-2.54-.67-4.58-8.08-4.58-8.08s-1.31,9.66-8.25,7.78c-3.34-.9-4.6-.68-5.08-.18,0,.44-.08.9-.09,1.36-.19,8,4.46,19.28,14.13,18.49C199.89,372.85,206.61,364.12,206.33,356.48Z" style="fill:#fff;stroke:#263238;stroke-linecap:round;stroke-linejoin:round"></path><path d="M233.15,353.38c.27,9-6.62,18.22-13.86,20.11-7.58,2-12.6-11.56-12.91-18.32-.34-7.43,5.91-16.62,12.47-18.76C226.74,333.84,232.94,346.65,233.15,353.38Z" style="fill:#e0e0e0;stroke:#263238;stroke-linecap:round;stroke-linejoin:round"></path><path d="M233.13,354.72c-4.4-2.83-9.22-.83-10.84-1.21-2.15-.49-3.89-7.91-3.89-7.91s-1,9.77-7.18,8.13c-3-.79-4.32-.48-4.79,0,0,.46-.05.92-.05,1.39,0,7,5.28,20.28,12.91,18.32C226.13,371.74,233.13,363.35,233.13,354.72Z" style="fill:#fff;stroke:#263238;stroke-linecap:round;stroke-linejoin:round"></path><path d="M259.55,351.31c.46,8-3.67,17.22-12.12,18.92-9.22,1.85-14.09-9.44-14.28-16.85-.22-8.51,6.26-19.54,12.58-20.71C252.27,331.46,259.11,343.67,259.55,351.31Z" style="fill:#e0e0e0;stroke:#263238;stroke-linecap:round;stroke-linejoin:round"></path><path d="M259.57,352.62c-3.74-2.8-7.37-1.11-9.16-2.07-2.37-1.27-4.73-8.55-4.73-8.55s-.17,10.52-7.25,9.49c-3.41-.49-4.78-.11-5.26.46,0,.48,0,.95,0,1.43.16,7.44,5,19.36,14.28,16.85C254.26,368.38,259.58,362.15,259.57,352.62Z" style="fill:#fff;stroke:#263238;stroke-linecap:round;stroke-linejoin:round"></path><path d="M284.82,344.18c.46,9.06-4,18.94-12,22.53-6.67,3-12.67-5.36-13.28-15.4-.47-7.73,3-17.35,11-20C278.05,328.81,284.34,334.5,284.82,344.18Z" style="fill:#e0e0e0;stroke:#263238;stroke-linecap:round;stroke-linejoin:round"></path><path d="M284.84,345.45c-2.9-1.51-7.39,1.64-9.15,1.57-2.33-.1-4.89-6.93-4.89-6.93s-1.66,8.93-7,9.26c-2.59.16-3.86,0-4.25.57,0,.46,0,.92,0,1.39.51,10.15,6.59,18.39,13.28,15.4C280.41,363.31,285,354.13,284.84,345.45Z" style="fill:#fff;stroke:#263238;stroke-linecap:round;stroke-linejoin:round"></path><path d="M163.92,375.68c.2,9.83-6.3,17.54-12.76,14.69-7.46-3.3-12.77-13.18-13.2-21.68-.47-9.42,4.82-16,12.12-13.73C158.93,357.72,163.73,366.75,163.92,375.68Z" style="fill:#e0e0e0;stroke:#263238;stroke-linecap:round;stroke-linejoin:round"></path><path d="M163.88,377c-4.15-2.71-8-2.2-10-3.53-2.59-1.76-4.7-10.13-4.7-10.13s-.2,7.32-6.59,4.82c-3.08-1.2-4.31-1.11-4.67-.71,0,.42,0,.84,0,1.28.43,8.5,5.74,18.38,13.2,21.68C157.34,393.1,163.5,386.3,163.88,377Z" style="fill:#fff;stroke:#263238;stroke-linecap:round;stroke-linejoin:round"></path><path d="M191.63,377c0,8-5,19.32-13.93,18.17-8.22-1.07-13.7-11.26-13.78-19.45-.08-7.32,4.49-18.95,13.5-17.33C185.93,359.89,191.62,368.29,191.63,377Z" style="fill:#e0e0e0;stroke:#263238;stroke-linecap:round;stroke-linejoin:round"></path><path d="M191.59,378.25c-4.26-2.21-8.49-.34-10.46-1.35-2.6-1.34-4.65-9.63-4.65-9.63s-1.55,7.59-7.67,6.51c-2.94-.53-4.38,0-4.85.54,0,.45-.05.9,0,1.36.12,8.23,5.44,18.24,13.78,19.45C185.62,396.27,191.76,385.35,191.59,378.25Z" style="fill:#fff;stroke:#263238;stroke-linecap:round;stroke-linejoin:round"></path><path d="M219,377c-.07,7.8-3.8,19.15-12.72,18.6-8.32-.52-14.6-10.1-14.61-18.61s5.19-19.28,14.34-18.35C214.24,359.45,219,368.74,219,377Z" style="fill:#e0e0e0;stroke:#263238;stroke-linecap:round;stroke-linejoin:round"></path><path d="M218.92,378.27c-3.33-2-7.41-.16-9.2-1.09-2.36-1.23-4.56-9.47-4.56-9.47s-1,8.51-8.29,7c-3.49-.74-4.72.29-5.2.9,0,.45,0,.91,0,1.38.05,8.49,6,17.76,14.61,18.61C213.08,396.24,218.53,387.75,218.92,378.27Z" style="fill:#fff;stroke:#263238;stroke-linecap:round;stroke-linejoin:round"></path><path d="M247.09,373.73c-.06,8.33-4.32,20.21-14.05,20.62S218.87,385.44,219,377c.08-8.28,3.4-20.65,13.82-20C241.65,357.46,247.14,365,247.09,373.73Z" style="fill:#e0e0e0;stroke:#263238;stroke-linecap:round;stroke-linejoin:round"></path><path d="M247.05,375c-3.88-1.52-7.89,1.24-9.92.49-2.68-1-5.07-9.21-5.07-9.21s-2.92,7.66-8.87,7.93c-2.86.12-3.81.74-4.19,1.37,0,.45,0,.92,0,1.37-.09,8.47,4.43,17.75,14.08,17.38C242.33,394,246.65,383,247.05,375Z" style="fill:#fff;stroke:#263238;stroke-linecap:round;stroke-linejoin:round"></path><path d="M272.45,370c-.12,7.73-4.77,19.29-12.82,20.81-6.28,1.18-12.38-7.23-12.54-17.07-.13-7.6,3.33-18.82,12.25-19C265.93,354.67,272.59,361,272.45,370Z" style="fill:#e0e0e0;stroke:#263238;stroke-linecap:round;stroke-linejoin:round"></path><path d="M272.4,371.18c-3.85-1-7.47,2.06-9.16,1.43-2.23-.82-4.31-8.71-4.31-8.71s-.86,8.62-7.13,7.53c-3-.52-4.25.26-4.68.93,0,.46,0,.92,0,1.37.11,9.89,6.19,18.21,12.54,17.07C267.38,389.41,271.78,378.6,272.4,371.18Z" style="fill:#fff;stroke:#263238;stroke-linecap:round;stroke-linejoin:round"></path><path d="M178.21,398.14c.34,10.25-5.42,18.32-11.82,16.91-8.32-1.84-13.75-13.14-14.6-21.68-1-9.8,5-15,12.59-14.81C173.48,378.81,177.94,390.32,178.21,398.14Z" style="fill:#e0e0e0;stroke:#263238;stroke-linecap:round;stroke-linejoin:round"></path><path d="M178.21,399.45c-4-3.15-7.77-1.84-9.57-2.73-2.39-1.18-4.86-9.23-4.86-9.23s-.64,8.69-7.3,5.67c-3.21-1.45-4.37-1.53-4.76-1.14,0,.44,0,.89.07,1.35.85,8.54,6.28,19.84,14.6,21.68C172.52,416.4,178.08,409.06,178.21,399.45Z" style="fill:#fff;stroke:#263238;stroke-linecap:round;stroke-linejoin:round"></path><path d="M206.67,398.58c.08,8.4-4.79,18-13.75,18.41-9.28.46-14.32-10.73-14.71-18.85-.43-8.9,5.53-17.42,13.89-18.33C201.06,378.83,206.59,390.37,206.67,398.58Z" style="fill:#e0e0e0;stroke:#263238;stroke-linecap:round;stroke-linejoin:round"></path><path d="M206.63,399.91c-3.9-3-8.3-1.5-10.29-2.16-2.62-.88-5-8.79-5-8.79s-1.17,9.5-8.14,7.79c-3.36-.82-4.57-.55-5,0,0,.46,0,.93,0,1.41.28,8.24,5.16,19.07,14.71,18.85C200.89,416.8,207,407.3,206.63,399.91Z" style="fill:#fff;stroke:#263238;stroke-linecap:round;stroke-linejoin:round"></path><path d="M233.43,397.36c-.23,8.62-7.46,18.87-14.68,19.94s-12-11.65-12.08-18.72c-.14-8.89,5.1-17,12.64-18.79S233.62,390,233.43,397.36Z" style="fill:#e0e0e0;stroke:#263238;stroke-linecap:round;stroke-linejoin:round"></path><path d="M233.34,398.71c-4.23-2.69-9.37-.58-11-1.12-2.15-.71-3.73-8.58-3.73-8.58s-1.52,9.5-7.34,8c-2.79-.73-4.12-.38-4.56.17,0,.46-.05.94,0,1.42.06,7.1,4.71,19.77,12.08,18.72C225.58,416.33,232.94,407,233.34,398.71Z" style="fill:#fff;stroke:#263238;stroke-linecap:round;stroke-linejoin:round"></path><path d="M259.87,393.66c-.56,8.38-5.09,18.42-13.78,20.53-9,2.2-12.84-9.92-12.66-16.83.21-8.86,6.61-19.34,14.08-20.87S260.36,386.24,259.87,393.66Z" style="fill:#e0e0e0;stroke:#263238;stroke-linecap:round;stroke-linejoin:round"></path><path d="M259.75,395c-3.4-2.18-7.23.06-9-.66-2.29-.94-4.1-8.52-4.1-8.52s-1,10.14-7.91,9.44c-3.35-.33-4.75.09-5.26.69,0,.47-.07.95-.08,1.44-.2,6.94,3.59,19,12.66,16.83C254.35,412.2,258.9,403,259.75,395Z" style="fill:#fff;stroke:#263238;stroke-linecap:round;stroke-linejoin:round"></path><path d="M283.69,384.34c-1.16,9.09-6.17,19.08-13.85,23.41-5.83,3.29-10.43-4-10-14.09.38-8.37,4.77-17.91,13-21.18C280,369.63,284.9,374.8,283.69,384.34Z" style="fill:#e0e0e0;stroke:#263238;stroke-linecap:round;stroke-linejoin:round"></path><path d="M283.5,385.6c-2.48-1-6.66,2.41-8.2,2.43-2,0-3.48-6.82-3.48-6.82s-2.17,9-7.55,9.82c-2.59.39-3.85.62-4.29,1.24,0,.46-.09.92-.11,1.39-.53,10.11,4.12,17.38,10,14.09C277.18,403.63,282,394.25,283.5,385.6Z" style="fill:#fff;stroke:#263238;stroke-linecap:round;stroke-linejoin:round"></path><path d="M166.56,420.43c1.16,9.7-3.39,15.88-8.66,12.55-7-4.43-12.2-14-14.25-22.27-2.23-9,1.63-14.86,8.29-12C160.4,402.23,165.49,411.46,166.56,420.43Z" style="fill:#e0e0e0;stroke:#263238;stroke-linecap:round;stroke-linejoin:round"></path><path d="M166.66,421.68c-4-3.23-7.26-2.84-9.06-4.28-2.37-1.89-5.31-10.31-5.31-10.31s.57,7.44-5,3.92c-2.7-1.69-3.64-1.84-3.86-1.53.08.41.15.82.26,1.23,2,8.3,7.24,17.84,14.25,22.27C162.94,436.17,167.25,430.77,166.66,421.68Z" style="fill:#fff;stroke:#263238;stroke-linecap:round;stroke-linejoin:round"></path><path d="M192.67,422.59c.3,10-6.16,18.08-12.13,17.11-8-1.3-13.06-11.5-14-19.27-1.14-9.73,4.51-17.7,11.47-16.67C186.64,405,192.42,413.93,192.67,422.59Z" style="fill:#e0e0e0;stroke:#263238;stroke-linecap:round;stroke-linejoin:round"></path><path d="M192.67,423.89c-4.19-2.52-8.19-.71-10.08-1.67-2.49-1.25-4.88-9.42-4.88-9.42s-.78,8.14-6.79,6.39c-2.89-.84-4.09-.59-4.46-.11,0,.45,0,.9.1,1.35.92,7.77,5.94,18,14,19.27C186.25,440.63,192.48,433.33,192.67,423.89Z" style="fill:#fff;stroke:#263238;stroke-linecap:round;stroke-linejoin:round"></path><path d="M218.19,423c-.6,10.07-6,18.24-12,17.65-8.15-.8-13.24-10.22-13.49-18.07-.26-8.27,5-19,13.63-18.33C214.5,404.92,218.67,415,218.19,423Z" style="fill:#e0e0e0;stroke:#263238;stroke-linecap:round;stroke-linejoin:round"></path><path d="M218.1,424.33c-2.95-2.4-6.92-.63-8.48-1.54-2.07-1.2-4.07-9.35-4.07-9.35s-.92,8.53-7.82,7.14c-3.33-.67-4.6,0-5,.62,0,.46,0,.92,0,1.39.25,7.86,5.34,17.27,13.49,18.07C212,441.23,217.27,434,218.1,424.33Z" style="fill:#fff;stroke:#263238;stroke-linecap:round;stroke-linejoin:round"></path><path d="M245.15,420c-1.36,7.78-6.09,19.41-15.13,20.24-7,.64-12.22-7.09-11.83-17.27.34-8.66,4.4-19.6,14.63-19.85C241.08,403,246.39,412.89,245.15,420Z" style="fill:#e0e0e0;stroke:#263238;stroke-linecap:round;stroke-linejoin:round"></path><path d="M245,421.39c-3.35-1.76-7.45.93-9.28.25-2.43-.91-4.12-9.07-4.12-9.07s-3.57,8.38-9.27,8.06c-2.74-.15-3.61.36-4,1,0,.47-.08.94-.11,1.41-.45,10.24,4.79,17.89,11.83,17.27C238.63,439.52,243.69,429.27,245,421.39Z" style="fill:#fff;stroke:#263238;stroke-linecap:round;stroke-linejoin:round"></path><path d="M268.49,413.34c-1.74,8.23-7,18.84-14.76,22-5.4,2.18-9.64-4.94-8.58-15.27.85-8.32,5.28-19,14-20.73C265.51,398,270.53,403.7,268.49,413.34Z" style="fill:#e0e0e0;stroke:#263238;stroke-linecap:round;stroke-linejoin:round"></path><path d="M268.2,414.62c-2.75-.93-6.42,2.38-7.85,2-1.89-.48-2.71-8.09-2.71-8.09s-2,8.94-7.77,8.73c-2.8-.11-4,.63-4.52,1.33-.08.48-.15,1-.2,1.44-1.11,10.37,3.14,17.43,8.58,15.27C261.2,432.35,266.13,422.43,268.2,414.62Z" style="fill:#fff;stroke:#263238;stroke-linecap:round;stroke-linejoin:round"></path><path d="M181.42,444.82c1,9.06-1.89,15.78-6.67,13.51-7.22-3.42-12.92-12.5-15.25-20.33-2.52-8.49,1.5-13.53,8.07-12.15C175.71,427.56,180.57,436.91,181.42,444.82Z" style="fill:#e0e0e0;stroke:#263238;stroke-linecap:round;stroke-linejoin:round"></path><path d="M181.5,446c-3.53-2.74-6.71-1.72-8.36-2.77-2.18-1.39-5.12-9-5.12-9s.29,7.64-5.14,4.24c-2.61-1.64-3.46-1.87-3.67-1.58.09.39.18.78.29,1.18,2.33,7.83,8,16.91,15.25,20.33C179.32,460.5,182,454.39,181.5,446Z" style="fill:#fff;stroke:#263238;stroke-linecap:round;stroke-linejoin:round"></path><path d="M206.39,445.81c-.31,9.12-4.25,15.72-10.76,15.49s-13.23-7.41-14.21-16.48,4.42-16.72,11.87-16.73C202.08,428.07,206.65,437.92,206.39,445.81Z" style="fill:#e0e0e0;stroke:#263238;stroke-linecap:round;stroke-linejoin:round"></path><path d="M206.31,447c-3.13-2.6-7-1.09-8.81-1.82-2.38-1-4.71-8.36-4.71-8.36s-1,8.13-7.17,6.71c-3-.68-4-.42-4.29.05,0,.41,0,.82.09,1.25,1,9.07,7.71,16.25,14.21,16.48C201.86,461.52,205.67,455.52,206.31,447Z" style="fill:#fff;stroke:#263238;stroke-linecap:round;stroke-linejoin:round"></path><path d="M229.65,445.5c-1.48,9.35-9.71,16.71-14.1,16.67s-9.41-7.18-9.16-16.36,6.12-16.7,11.84-17.23S231.13,436.14,229.65,445.5Z" style="fill:#e0e0e0;stroke:#263238;stroke-linecap:round;stroke-linejoin:round"></path><path d="M229.41,446.7c-3.34-2.23-8.47-.27-9.82-.91-1.78-.85-2.53-8.31-2.53-8.31s-2.4,8.19-6.88,6.88c-2.16-.64-3.33-.31-3.72.19,0,.42-.06.84-.07,1.26-.25,9.18,4.77,16.32,9.16,16.36C219.75,462.21,227.52,455.45,229.41,446.7Z" style="fill:#fff;stroke:#263238;stroke-linecap:round;stroke-linejoin:round"></path><path d="M252.65,440.26c-2.32,7.48-7.68,16.49-15,19.18-5.14,1.88-9.51-4.61-8-13.94,1.36-8.49,7.11-17.3,15.21-19.89C251.32,423.55,255.42,431.36,252.65,440.26Z" style="fill:#e0e0e0;stroke:#263238;stroke-linecap:round;stroke-linejoin:round"></path><path d="M252.27,441.43c-2.25-1.24-6,1.35-7.34,1-1.79-.49-2.14-7.63-2.14-7.63s-2.32,8.86-8.23,8.58c-2.84-.13-4.14.29-4.66.84-.09.43-.18.86-.25,1.3-1.48,9.35,2.47,15.63,8,13.94C243,457.82,249.29,450,252.27,441.43Z" style="fill:#fff;stroke:#263238;stroke-linecap:round;stroke-linejoin:round"></path><path d="M271.38,428.77A74,74,0,0,1,255.25,450c-4,3.49-5.28-.69-2.6-9.7,2.48-8.3,7.43-17.48,15-21.74C273.45,415.26,275.69,420.38,271.38,428.77Z" style="fill:#e0e0e0;stroke:#263238;stroke-linecap:round;stroke-linejoin:round"></path><path d="M270.79,429.89c-1.12-.23-4.71,3.27-5.67,3.45-1.28.23-.36-6-.36-6s-3.48,8.38-7.93,9.78c-2.14.68-3.27,1.27-3.77,1.91-.14.42-.28.84-.41,1.26-2.69,9-1.38,13.19,2.6,9.7C261.39,444.57,266.69,437.22,270.79,429.89Z" style="fill:#fff;stroke:#263238;stroke-linecap:round;stroke-linejoin:round"></path></g><g id="freepik--Coconut--inject-55"><path d="M167.33,317.53l19.74,8.3c14.3,6,30.32,20.59,35.47,44.05S221.11,419.36,212,434s-22.6,24-44.63,31.46-39.76,6-55.77-.28-25.75-14-30-21.74S68.94,399.62,81,372.74s43.48-38.33,57.78-43.2A263.75,263.75,0,0,0,167.33,317.53Z" style="fill:#FFC100;stroke:#263238;stroke-linecap:round;stroke-linejoin:round"></path><path d="M210.24,361.87c-4-10-6-18.31-12.3-24.32S178.49,325,173.63,321.82s-5.44-4.29-8.3-4.29-4-.57-4.86,0a26.11,26.11,0,0,0-2.58,2.29s-8-.57-10-1.15-4-2.86-8-1.43-5.43,0-16,4S107.26,326.11,97,333s-21.74,24.31-25.46,30.89-7.15,30.89-7.15,40.05,7.15,29.17,10.3,33.75,21.16,17.45,33.18,22,28.6,5.15,37.47,2.58,20.31-4.87,32.89-14.3,25.17-34.33,29.75-44.63S214.24,371.88,210.24,361.87Z" style="fill:#263238"></path><path d="M150.74,321.54s-.37-.1-1.05-.22a44,44,0,0,0-18.68.79c-10.3,2.86-24.89,8.58-32.9,14.59s-21.74,24.88-25.74,35.46-4.58,31.76-2.86,40.34S73.8,434,89,444.25s33.75,18.3,43.19,16.59,23.74-7.15,31.75-10.3,24.89-22,30.32-30.61,10-26.6,10-44.33-5.43-31.47-11.15-38.33-20.88-12.87-27.46-14S150.74,321.54,150.74,321.54Z" style="fill:#e5e5e5"></path><path d="M204.23,375.6a81.43,81.43,0,0,0-1.19-14c-3.94-6.49-13.54-20.79-19.4-21.77C176.77,338.7,151,336.7,151,336.7l-18.59,1.71s-8.13,5.37-13.15,9a58.66,58.66,0,0,1,28.34,13.76c14.25,13,14.25,38.22,8.1,49.89s-18.14,21.05-33.37,22a132.38,132.38,0,0,1-25.14-.89A9.74,9.74,0,0,0,99.83,436c7.72,7.72,10.87,17.16,34.61,19.45,4.39.43,9.23.68,14.22.79,5.72-2,11.26-4.09,15.24-5.65,8-3.15,24.89-22,30.32-30.61S204.23,393.33,204.23,375.6Z" style="fill:#c7c7c7"></path><path d="M150.74,321.54s-.37-.1-1.05-.22a44,44,0,0,0-18.68.79c-10.3,2.86-24.89,8.58-32.9,14.59s-21.74,24.88-25.74,35.46-4.58,31.76-2.86,40.34S73.8,434,89,444.25A136.23,136.23,0,0,0,105.82,454a61.27,61.27,0,0,0,5.16-8.9c2.29-4.86,3.44-6.29,2.58-8.58s-2.29-6.58-2.29-6.58A26.34,26.34,0,0,1,99,421.36c-5.15-6.58-10.3-26.6-10.3-28.89s-.86-2.29.29-7.72a95.34,95.34,0,0,1,4.86-15.16c1.14-2.57.86-3.15,3.72-6a38.42,38.42,0,0,1,6-5.15A151.49,151.49,0,0,1,123,348.71c5.43-2,12-3.72,13.73-4.29s1.71-1.43,4-1.43a25.32,25.32,0,0,1,8.87,2.29c2.29,1.14.86,1.43,3.72,1.43h4.86a15.71,15.71,0,0,1,2.29.28,137,137,0,0,0,8-12c2.29-4.29,3.43-7.72,3.43-8.58,0-.45-.62-1.2-1.21-1.83a41.52,41.52,0,0,0-5.08-1.32C159,322.11,150.74,321.54,150.74,321.54Z" style="fill:#fff"></path><path d="M153.32,346.71l-2-.22A4.26,4.26,0,0,0,153.32,346.71Z" style="fill:#969696"></path><path d="M171.91,326.4c0-.45-.62-1.2-1.21-1.83a41.52,41.52,0,0,0-5.08-1.32c-4.37-.76-9.47-1.26-12.42-1.52l2.41,1.81c1.14.86,4.86,2.29,3.71,3.72a19.93,19.93,0,0,0-4.57,10c-1.15,6-1.43,9.44-1.43,9.44h4.86a15.71,15.71,0,0,1,2.29.28,137,137,0,0,0,8-12C170.77,330.69,171.91,327.26,171.91,326.4Z" style="fill:#c7c7c7"></path><path d="M194.22,419.93c5.44-8.58,10-26.6,10-44.33s-5.43-31.47-11.15-38.33c-4.48-5.37-14.73-10.21-22.13-12.61-.62,1.65-4.36,11.49-6.19,14.9-2,3.71-2.86,8.29-2.29,9.72s6.58,4.86,11.73,6.58,5.43.57,6.86,3.43,2,3.44,2.58,6.87,1.71,18.3,1.71,22-1.71,11.73-2.28,13.45-1.43,4.57-2,6.29-1.71,4.58-2.86,4.86-4.57,3.15-6.29,4.29-.86.86-4,3.44-10,8.58-12.59,10-2.86,3.14-6.58,3.72-5.43,1.43-7.44,1.43H135c-2.57,0-4.29.28-6.58.28s-2.57.57-4,0-4.87-1.43-7.44-2.86-1.14-1.14-4.58-2.86-6.86,8.87-6.58,10,1.72.86,1.72,2,0,3.44-1.14,3.72-4,5.44-4,5.44,0,.36.1.93c11.5,6,22.91,9.73,29.65,8.51,9.44-1.72,23.74-7.15,31.75-10.3S188.79,428.51,194.22,419.93Z" style="fill:#fff"></path><path d="M89.53,369.88,74.6,367.26c-.51,1-1,1.94-1.38,2.85Z" style="fill:#e5e5e5"></path><path d="M69.94,382c-.11.72-.22,1.46-.32,2.21l17.91-.92Z" style="fill:#e5e5e5"></path><path d="M69,390.42c-.07.88-.13,1.77-.18,2.65l15.88-2.89Z" style="fill:#e5e5e5"></path><path d="M68.77,393.45c0,1.08-.1,2.16-.13,3.23l17.46-4.21Z" style="fill:#e5e5e5"></path><path d="M85,441.3q1.66,1.38,3.58,2.7l5.78-7.48Z" style="fill:#e5e5e5"></path><path d="M111,344.7,103.84,333c-.78.44-1.54.88-2.26,1.33Z" style="fill:#e5e5e5"></path><path d="M85.81,403.63l-17,2.9c.08,1.18.18,2.28.3,3.28Z" style="fill:#e5e5e5"></path><path d="M70.09,415.31c.21,1,.45,2,.72,3.1L89,411.35Z" style="fill:#e5e5e5"></path><path d="M93.53,365.87l-13.1-8.4c-.72,1.08-1.42,2.17-2.09,3.25Z" style="fill:#e5e5e5"></path><path d="M75.48,430.13c.47.8,1,1.61,1.52,2.41l18.25-11.18Z" style="fill:#e5e5e5"></path><path d="M92.39,416.79,71.27,420.1c.39,1.33.84,2.71,1.38,4.11Z" style="fill:#e5e5e5"></path><path d="M112.25,328.86l8.17,13.27-6.48-14Z" style="fill:#e5e5e5"></path><path d="M120.53,325.51c-.8.29-1.6.6-2.41.91l4.88,6.27Z" style="fill:#e5e5e5"></path><path d="M129.19,322.63l6.11,18.07s-3.2-13.84-4.44-18.55Z" style="fill:#e5e5e5"></path><path d="M94.68,441.1l-5.49,3.3c1,.64,1.92,1.26,2.9,1.89Z" style="fill:#e5e5e5"></path><path d="M77.64,433.45a40.3,40.3,0,0,0,2.71,3.36l12.33-8.87Z" style="fill:#e5e5e5"></path><path d="M91.1,343.49c-.93,1.05-1.88,2.16-2.83,3.33l15.28,7.9Z" style="fill:#e5e5e5"></path><path d="M98.58,336.36c-.16.12-.32.22-.47.34-.35.26-.71.55-1.07.86l13.66,13.15Z" style="fill:#e5e5e5"></path><path d="M196.19,341.77a32.67,32.67,0,0,0-3.11-4.5c-.14-.17-.3-.33-.45-.49L188.5,347Z" style="fill:#e5e5e5"></path><path d="M179.19,438.14c-4.1,2.94-9,6.39-9,6.39l-2.28-3.43.75,6.59A93.49,93.49,0,0,0,179.19,438.14Z" style="fill:#e5e5e5"></path><path d="M168.29,448l-7-8.58L163,450.9l.93-.36A20.83,20.83,0,0,0,168.29,448Z" style="fill:#e5e5e5"></path><path d="M138.58,459.33c1.69-.46,3.43-1,5.19-1.53l-3.32-15Z" style="fill:#e5e5e5"></path><path d="M127.61,461l.25-5.87-1.78,5.72C126.61,460.9,127.12,461,127.61,461Z" style="fill:#e5e5e5"></path><path d="M196.51,347l-3.15,2.29h6.3L197.08,351s.86-.29.86,1.14a67.51,67.51,0,0,0,1.14,6.87l1.72,3.72a10.72,10.72,0,0,1,2.75,2.24,67.18,67.18,0,0,0-5.24-19.1Z" style="fill:#e5e5e5"></path><path d="M198.23,397.05c-1.72,4.86-2.58,10-4.58,12.3s-2.86,9.44-3.72,11.16-.29,2-2.29,5.43a15.67,15.67,0,0,0-1.64,4.72,102.51,102.51,0,0,0,8.22-10.73c5.44-8.58,10-26.6,10-44.33a82.48,82.48,0,0,0-.57-9.78v7.49l-2.86,2.86,1.72,3.43-1.72,1.72S199.94,392.19,198.23,397.05Z" style="fill:#e5e5e5"></path><path d="M162.47,349.28c.57,1.43,6.58,4.86,11.73,6.58,3.51,1.17,4.76,1,5.65,1.7-.14-.4-.36-.69-.5-1.13-.29-.86-2-2.86-3.72-4.57a62.92,62.92,0,0,0-5.15-4.29s-5.72-1.72-7.15-1.44c-.59.12-.88.91-1,1.8A3.79,3.79,0,0,0,162.47,349.28Z" style="fill:#c7c7c7"></path></g></svg>