<svg xmlns="http://www.w3.org/2000/svg" viewBox="0 0 500 500"><g id="freepik--background-simple--inject-92"><path d="M402.12,428.84a118.5,118.5,0,0,0,38.24-40.42C497.52,289,484.61,142.26,374.53,79.36c-50.88-29.07-124.12-47.47-179.1-17.61-44.6,24.22-71.94,69.81-94.55,111.3-14.23,26.09-25.94,54.17-43.45,78.58C34.7,283.29,9.69,325.57,34.94,362.35c34.41,50.1,99.4,73,158.34,88,63.94,16.34,135.83,18.66,194.89-13.21Q395.34,433.31,402.12,428.84Z" style="fill:#FFC100"></path><path d="M402.12,428.84a118.5,118.5,0,0,0,38.24-40.42C497.52,289,484.61,142.26,374.53,79.36c-50.88-29.07-124.12-47.47-179.1-17.61-44.6,24.22-71.94,69.81-94.55,111.3-14.23,26.09-25.94,54.17-43.45,78.58C34.7,283.29,9.69,325.57,34.94,362.35c34.41,50.1,99.4,73,158.34,88,63.94,16.34,135.83,18.66,194.89-13.21Q395.34,433.31,402.12,428.84Z" style="fill:#fff;opacity:0.7000000000000001"></path></g><g id="freepik--Floor--inject-92"><line x1="22" y1="458" x2="487" y2="458" style="fill:none;stroke:#263238;stroke-linecap:round;stroke-linejoin:round"></line></g><g id="freepik--Frame--inject-92"><rect x="32" y="64" width="436" height="309" transform="translate(-11.09 13.38) rotate(-3)" style="fill:none;stroke:#263238;stroke-miterlimit:10"></rect><rect x="47" y="77" width="406" height="283" transform="translate(-11.09 13.38) rotate(-3)" style="fill:none;stroke:#263238;stroke-miterlimit:10"></rect></g><g id="freepik--Hearts--inject-92"><path d="M394.42,56.57a12.5,12.5,0,0,1-3.67,8.86l-3.32,3.32L369.7,86.48,352,68.75l-3.32-3.32a12.54,12.54,0,0,1,17.73-17.74L369.7,51,373,47.69a12.54,12.54,0,0,1,21.4,8.88Z" style="fill:#FFC100;stroke:#263238;stroke-linecap:round;stroke-linejoin:round"></path><path d="M130,126.5a8.34,8.34,0,0,1-2.45,5.92l-2.21,2.22-11.85,11.84-11.84-11.84-2.22-2.22a8.37,8.37,0,1,1,11.84-11.84l2.22,2.22,2.22-2.22A8.37,8.37,0,0,1,130,126.5Z" style="fill:#FFC100;stroke:#263238;stroke-linecap:round;stroke-linejoin:round"></path><path d="M464,290.5a8.34,8.34,0,0,1-2.45,5.92l-2.22,2.22-11.84,11.84-11.84-11.84-2.22-2.22a8.37,8.37,0,1,1,11.84-11.84l2.22,2.22,2.22-2.22A8.37,8.37,0,0,1,464,290.5Z" style="fill:#FFC100;stroke:#263238;stroke-linecap:round;stroke-linejoin:round"></path><path d="M57,244.5a8.34,8.34,0,0,1-2.45,5.92l-2.21,2.22L40.49,264.48,28.65,252.64l-2.22-2.22a8.37,8.37,0,1,1,11.84-11.84l2.22,2.22,2.22-2.22A8.37,8.37,0,0,1,57,244.5Z" style="fill:#FFC100;stroke:#263238;stroke-linecap:round;stroke-linejoin:round"></path><path d="M230.15,25.5a6.9,6.9,0,0,1-2,4.9l-1.83,1.84L216.49,42l-9.79-9.79-1.84-1.84a6.92,6.92,0,0,1,4.9-11.82,6.87,6.87,0,0,1,4.89,2l1.84,1.84,1.83-1.84a6.93,6.93,0,0,1,11.83,4.9Z" style="fill:#FFC100;stroke:#263238;stroke-linecap:round;stroke-linejoin:round"></path><path d="M265.65,396.06a6.94,6.94,0,0,1-2,4.9l-1.83,1.84-9.8,9.79-9.8-9.79L240.37,401a6.92,6.92,0,0,1,4.9-11.82,6.87,6.87,0,0,1,4.89,2L252,393l1.83-1.84a6.92,6.92,0,0,1,11.82,4.9Z" style="fill:#FFC100;stroke:#263238;stroke-linecap:round;stroke-linejoin:round"></path></g><g id="freepik--Plants--inject-92"><path d="M465.54,401.1s1.18-2.83,1.23-3c.6-2.18.46-6.75-1.66-8.13a3,3,0,0,0-4.27,1.28c-.82,1.58-.31,3.72.42,5.25C462.11,398.27,465.54,401.1,465.54,401.1Z" style="fill:#263238"></path><path d="M421.1,394.43c1.7,1,6.12,1.48,6.12,1.48s-.57-3-.64-3.19c-.7-2.15-3.33-5.88-5.86-5.86a3,3,0,0,0-2.86,3.42C418.05,392.06,419.65,393.56,421.1,394.43Z" style="fill:#263238"></path><path d="M421,407.39c1.83.51,5.91-.13,6.23-.18a52.91,52.91,0,0,0,1.55,6.9c.38,1.32.8,2.64,1.24,4-.29-.57-.55-1.08-.6-1.15-1.25-1.88-4.77-4.78-7.21-4.1a3,3,0,0,0-1.85,4.05c.65,1.67,2.6,2.7,4.22,3.15s5.14,0,6.06-.15c.18.5.35,1,.52,1.51.85,2.41,1.71,4.82,2.48,7.2.27.84.51,1.68.75,2.52-.26-.51-.49-.94-.53-1-1.25-1.88-4.77-4.78-7.2-4.1a3,3,0,0,0-1.86,4.05c.65,1.67,2.6,2.69,4.22,3.15s4.8,0,5.9-.13c.22.87.44,1.73.61,2.58.11.58.25,1.13.32,1.72s.17,1.16.26,1.73c.12,1.11.25,2.25.34,3.33.06.75.12,1.47.17,2.19-.26-.84-.81-2.47-.87-2.6-.95-2-4-5.46-6.5-5.15a3,3,0,0,0-2.45,3.73c.4,1.74,2.16,3,3.7,3.74,1.7.77,5.66.78,6.16.77.08,1.2.15,2.36.2,3.46.18,3.81.19,7,.16,9.2l1.7.22v-.2c0-2.25-.09-5.46-.36-9.3-.08-1.22-.19-2.51-.32-3.84a32.09,32.09,0,0,0,3.64-1.18,21.85,21.85,0,0,0,4.59,3.87c-.59,1-1.17,2.05-1.74,3-1.95,3.27-3.69,5.92-4.94,7.76l1.87.24c1.17-1.84,2.7-4.3,4.37-7.25.6-1.06,1.23-2.2,1.85-3.38.46.16,4.23,1.44,6.08,1.26,1.68-.16,3.78-.83,4.71-2.35a3,3,0,0,0-1.11-4.31c-2.28-1.11-6.26,1.13-7.82,2.76-.09.1-1,1.26-1.52,2,.26-.49.51-.95.76-1.45.52-1,1-2,1.52-3.06.24-.53.47-1.06.71-1.6s.44-1.12.67-1.68c.5-1.32.94-2.68,1.35-4.06.87.45,4,2,5.65,2.09s3.86-.25,5-1.62a3,3,0,0,0-.45-4.43c-2.08-1.44-6.35.17-8.14,1.55-.12.09-1.29,1.22-1.92,1.86.24-.84.48-1.66.7-2.51.63-2.45,1.19-5,1.76-7.44.17-.76.35-1.52.53-2.28.31.16,3.95,2.07,5.84,2.18,1.69.1,3.86-.25,5-1.61a3,3,0,0,0-.45-4.43c-2.08-1.44-6.35.17-8.15,1.55-.13.1-1.82,1.73-2.23,2.17.4-1.67.81-3.34,1.28-5a53.2,53.2,0,0,1,2.3-6.44c.14.07,3.93,2.08,5.87,2.2,1.69.09,3.86-.25,5-1.62a3,3,0,0,0-.45-4.43c-2.09-1.44-6.36.17-8.15,1.55-.12.09-1.4,1.33-2,1.94l-.12-.08a38.08,38.08,0,0,1,3.44-6c.71-1,1.45-2,2.2-2.92.66.45,3.74,2.46,5.47,2.75s3.86.18,5.16-1.05a3,3,0,0,0,0-4.46c-1.92-1.65-6.34-.52-8.27.65-.11.07-1.1.83-1.82,1.4.34-.41.69-.84,1-1.22,1.25-1.45,2.49-2.69,3.59-3.79.64-.62,1.22-1.17,1.77-1.67.89.1,4.45.44,6.1-.09s3.51-1.62,4.1-3.31a3,3,0,0,0-2-4c-2.46-.59-5.87,2.45-7,4.38-.1.17-1.39,3-1.34,3h.05c-.54.48-1.11,1-1.73,1.57-1.13,1.07-2.4,2.3-3.69,3.72a56.26,56.26,0,0,0-3.94,4.8,39.53,39.53,0,0,0-3.6,5.94l0,.07c.11-.73.34-2.79.34-2.95,0-2.26-1.34-6.63-3.75-7.4a3,3,0,0,0-3.79,2.36c-.37,1.75.69,3.68,1.79,5,1.25,1.44,5,3.16,5.3,3.29a54.77,54.77,0,0,0-2.52,6.61c-.41,1.31-.79,2.65-1.14,4,.07-.64.13-1.21.13-1.29,0-2.26-1.34-6.62-3.75-7.39a3,3,0,0,0-3.79,2.35c-.37,1.75.69,3.68,1.79,5s4.3,2.82,5.14,3.21c-.13.52-.27,1-.4,1.55-.62,2.48-1.23,5-1.91,7.37-.23.85-.5,1.68-.76,2.51.06-.56.11-1,.11-1.11,0-2.26-1.34-6.63-3.75-7.4a3,3,0,0,0-3.78,2.35c-.37,1.75.68,3.68,1.79,5s4,2.67,5,3.14c-.29.85-.58,1.69-.91,2.49-.23.55-.42,1.08-.68,1.62l-.74,1.58c-.51,1-1,2-1.55,3-.36.67-.71,1.29-1.07,1.93.25-.85.69-2.51.72-2.65a11.72,11.72,0,0,0-.83-5.81,3.71,3.71,0,0,0,0-.67,3,3,0,0,0-3.31-3c-2.51.34-4.59,4.4-5,6.62,0,.13-.13,1.58-.17,2.5-.06-.54-.1-1.07-.17-1.63-.11-1.1-.26-2.2-.42-3.39-.09-.57-.19-1.14-.29-1.72s-.25-1.18-.37-1.77c-.31-1.38-.69-2.75-1.11-4.13,1-.11,4.4-.53,5.87-1.38s3.08-2.34,3.29-4.11a3,3,0,0,0-2.82-3.45c-2.53,0-5.2,3.65-5.94,5.78,0,.14-.4,1.73-.58,2.61-.25-.83-.5-1.65-.79-2.48-.83-2.39-1.74-4.78-2.64-7.17-.28-.74-.54-1.47-.81-2.2.34,0,4.43-.45,6.07-1.4,1.46-.85,3.08-2.34,3.3-4.11a3,3,0,0,0-2.82-3.46c-2.53,0-5.21,3.65-5.94,5.79-.06.16-.56,2.46-.66,3.05-.59-1.62-1.17-3.23-1.67-4.85a51,51,0,0,1-1.64-6.64c.16,0,4.43-.42,6.11-1.4,1.46-.85,3.08-2.34,3.29-4.11a3,3,0,0,0-2.82-3.46c-2.53,0-5.2,3.65-5.93,5.79-.05.14-.44,1.89-.61,2.72h-.14a38.63,38.63,0,0,1-.42-6.87c0-1.26.11-2.47.22-3.64.81,0,4.48,0,6.09-.73s3.32-2,3.72-3.72a3,3,0,0,0-2.42-3.74c-2.51-.33-5.57,3-6.54,5.1-.05.11-.46,1.3-.74,2.17.06-.53.11-1.08.18-1.58.24-1.9.58-3.62.9-5.15.19-.86.37-1.64.55-2.37.79-.4,4-2.08,5-3.43s2-3.29,1.59-5a3,3,0,0,0-3.87-2.21c-2.38.87-3.54,5.29-3.46,7.54,0,.2.48,3.24.52,3.22l.05,0c-.19.7-.38,1.45-.58,2.27-.35,1.52-.73,3.24-1,5.14a53,53,0,0,0-.64,6.17,39.06,39.06,0,0,0,.27,6.94.24.24,0,0,0,0,.08c-.32-.67-1.26-2.52-1.35-2.65-1.25-1.88-4.77-4.79-7.21-4.1a3,3,0,0,0-1.86,4.05C417.42,405.9,419.36,406.93,421,407.39Z" style="fill:#263238"></path><path d="M421.1,394.43c1.7,1,6.12,1.48,6.12,1.48s-.57-3-.64-3.19c-.7-2.15-3.33-5.88-5.86-5.86a3,3,0,0,0-2.86,3.42C418.05,392.06,419.65,393.56,421.1,394.43Z" style="fill:#263238;opacity:0.30000000000000004"></path><path d="M465.54,401.1s1.18-2.83,1.23-3c.6-2.18.46-6.75-1.66-8.13a3,3,0,0,0-4.27,1.28c-.82,1.58-.31,3.72.42,5.25C462.11,398.27,465.54,401.1,465.54,401.1Z" style="fill:#263238;opacity:0.30000000000000004"></path><path d="M421,407.39c1.83.51,5.91-.13,6.23-.18a52.91,52.91,0,0,0,1.55,6.9c.38,1.32.8,2.64,1.24,4-.29-.57-.55-1.08-.6-1.15-1.25-1.88-4.77-4.78-7.21-4.1a3,3,0,0,0-1.85,4.05c.65,1.67,2.6,2.7,4.22,3.15s5.14,0,6.06-.15c.18.5.35,1,.52,1.51.85,2.41,1.71,4.82,2.48,7.2.27.84.51,1.68.75,2.52-.26-.51-.49-.94-.53-1-1.25-1.88-4.77-4.78-7.2-4.1a3,3,0,0,0-1.86,4.05c.65,1.67,2.6,2.69,4.22,3.15s4.8,0,5.9-.13c.22.87.44,1.73.61,2.58.11.58.25,1.13.32,1.72s.17,1.16.26,1.73c.12,1.11.25,2.25.34,3.33.06.75.12,1.47.17,2.19-.26-.84-.81-2.47-.87-2.6-.95-2-4-5.46-6.5-5.15a3,3,0,0,0-2.45,3.73c.4,1.74,2.16,3,3.7,3.74,1.7.77,5.66.78,6.16.77.08,1.2.15,2.36.2,3.46.18,3.81.19,7,.16,9.2l1.7.22v-.2c0-2.25-.09-5.46-.36-9.3-.08-1.22-.19-2.51-.32-3.84a32.09,32.09,0,0,0,3.64-1.18,21.85,21.85,0,0,0,4.59,3.87c-.59,1-1.17,2.05-1.74,3-1.95,3.27-3.69,5.92-4.94,7.76l1.87.24c1.17-1.84,2.7-4.3,4.37-7.25.6-1.06,1.23-2.2,1.85-3.38.46.16,4.23,1.44,6.08,1.26,1.68-.16,3.78-.83,4.71-2.35a3,3,0,0,0-1.11-4.31c-2.28-1.11-6.26,1.13-7.82,2.76-.09.1-1,1.26-1.52,2,.26-.49.51-.95.76-1.45.52-1,1-2,1.52-3.06.24-.53.47-1.06.71-1.6s.44-1.12.67-1.68c.5-1.32.94-2.68,1.35-4.06.87.45,4,2,5.65,2.09s3.86-.25,5-1.62a3,3,0,0,0-.45-4.43c-2.08-1.44-6.35.17-8.14,1.55-.12.09-1.29,1.22-1.92,1.86.24-.84.48-1.66.7-2.51.63-2.45,1.19-5,1.76-7.44.17-.76.35-1.52.53-2.28.31.16,3.95,2.07,5.84,2.18,1.69.1,3.86-.25,5-1.61a3,3,0,0,0-.45-4.43c-2.08-1.44-6.35.17-8.15,1.55-.13.1-1.82,1.73-2.23,2.17.4-1.67.81-3.34,1.28-5a53.2,53.2,0,0,1,2.3-6.44c.14.07,3.93,2.08,5.87,2.2,1.69.09,3.86-.25,5-1.62a3,3,0,0,0-.45-4.43c-2.09-1.44-6.36.17-8.15,1.55-.12.09-1.4,1.33-2,1.94l-.12-.08a38.08,38.08,0,0,1,3.44-6c.71-1,1.45-2,2.2-2.92.66.45,3.74,2.46,5.47,2.75s3.86.18,5.16-1.05a3,3,0,0,0,0-4.46c-1.92-1.65-6.34-.52-8.27.65-.11.07-1.1.83-1.82,1.4.34-.41.69-.84,1-1.22,1.25-1.45,2.49-2.69,3.59-3.79.64-.62,1.22-1.17,1.77-1.67.89.1,4.45.44,6.1-.09s3.51-1.62,4.1-3.31a3,3,0,0,0-2-4c-2.46-.59-5.87,2.45-7,4.38-.1.17-1.39,3-1.34,3h.05c-.54.48-1.11,1-1.73,1.57-1.13,1.07-2.4,2.3-3.69,3.72a56.26,56.26,0,0,0-3.94,4.8,39.53,39.53,0,0,0-3.6,5.94l0,.07c.11-.73.34-2.79.34-2.95,0-2.26-1.34-6.63-3.75-7.4a3,3,0,0,0-3.79,2.36c-.37,1.75.69,3.68,1.79,5,1.25,1.44,5,3.16,5.3,3.29a54.77,54.77,0,0,0-2.52,6.61c-.41,1.31-.79,2.65-1.14,4,.07-.64.13-1.21.13-1.29,0-2.26-1.34-6.62-3.75-7.39a3,3,0,0,0-3.79,2.35c-.37,1.75.69,3.68,1.79,5s4.3,2.82,5.14,3.21c-.13.52-.27,1-.4,1.55-.62,2.48-1.23,5-1.91,7.37-.23.85-.5,1.68-.76,2.51.06-.56.11-1,.11-1.11,0-2.26-1.34-6.63-3.75-7.4a3,3,0,0,0-3.78,2.35c-.37,1.75.68,3.68,1.79,5s4,2.67,5,3.14c-.29.85-.58,1.69-.91,2.49-.23.55-.42,1.08-.68,1.62l-.74,1.58c-.51,1-1,2-1.55,3-.36.67-.71,1.29-1.07,1.93.25-.85.69-2.51.72-2.65a11.72,11.72,0,0,0-.83-5.81,3.71,3.71,0,0,0,0-.67,3,3,0,0,0-3.31-3c-2.51.34-4.59,4.4-5,6.62,0,.13-.13,1.58-.17,2.5-.06-.54-.1-1.07-.17-1.63-.11-1.1-.26-2.2-.42-3.39-.09-.57-.19-1.14-.29-1.72s-.25-1.18-.37-1.77c-.31-1.38-.69-2.75-1.11-4.13,1-.11,4.4-.53,5.87-1.38s3.08-2.34,3.29-4.11a3,3,0,0,0-2.82-3.45c-2.53,0-5.2,3.65-5.94,5.78,0,.14-.4,1.73-.58,2.61-.25-.83-.5-1.65-.79-2.48-.83-2.39-1.74-4.78-2.64-7.17-.28-.74-.54-1.47-.81-2.2.34,0,4.43-.45,6.07-1.4,1.46-.85,3.08-2.34,3.3-4.11a3,3,0,0,0-2.82-3.46c-2.53,0-5.21,3.65-5.94,5.79-.06.16-.56,2.46-.66,3.05-.59-1.62-1.17-3.23-1.67-4.85a51,51,0,0,1-1.64-6.64c.16,0,4.43-.42,6.11-1.4,1.46-.85,3.08-2.34,3.29-4.11a3,3,0,0,0-2.82-3.46c-2.53,0-5.2,3.65-5.93,5.79-.05.14-.44,1.89-.61,2.72h-.14a38.63,38.63,0,0,1-.42-6.87c0-1.26.11-2.47.22-3.64.81,0,4.48,0,6.09-.73s3.32-2,3.72-3.72a3,3,0,0,0-2.42-3.74c-2.51-.33-5.57,3-6.54,5.1-.05.11-.46,1.3-.74,2.17.06-.53.11-1.08.18-1.58.24-1.9.58-3.62.9-5.15.19-.86.37-1.64.55-2.37.79-.4,4-2.08,5-3.43s2-3.29,1.59-5a3,3,0,0,0-3.87-2.21c-2.38.87-3.54,5.29-3.46,7.54,0,.2.48,3.24.52,3.22l.05,0c-.19.7-.38,1.45-.58,2.27-.35,1.52-.73,3.24-1,5.14a53,53,0,0,0-.64,6.17,39.06,39.06,0,0,0,.27,6.94.24.24,0,0,0,0,.08c-.32-.67-1.26-2.52-1.35-2.65-1.25-1.88-4.77-4.79-7.21-4.1a3,3,0,0,0-1.86,4.05C417.42,405.9,419.36,406.93,421,407.39Z" style="fill:#263238;opacity:0.30000000000000004"></path><path d="M40.9,410.93s-1-2.32-1-2.48c-.49-1.79-.38-5.54,1.36-6.67a2.46,2.46,0,0,1,3.51,1,5.13,5.13,0,0,1-.34,4.32C43.72,408.61,40.9,410.93,40.9,410.93Z" style="fill:#263238"></path><path d="M77.41,405.45c-1.4.83-5,1.22-5,1.22s.47-2.47.52-2.63c.59-1.76,2.75-4.82,4.82-4.81A2.46,2.46,0,0,1,80.07,402,5.11,5.11,0,0,1,77.41,405.45Z" style="fill:#263238"></path><path d="M77.5,416.09c-1.51.42-4.86-.1-5.12-.14a43.85,43.85,0,0,1-1.27,5.67c-.31,1.08-.66,2.17-1,3.25.24-.47.45-.89.49-.94,1-1.55,3.92-3.93,5.92-3.37A2.47,2.47,0,0,1,78,423.89a5.16,5.16,0,0,1-3.47,2.58,16.36,16.36,0,0,1-5-.12c-.15.41-.29.83-.43,1.24-.7,2-1.4,4-2,5.92-.23.69-.42,1.37-.62,2.06l.43-.81c1-1.55,3.92-3.94,5.92-3.37a2.45,2.45,0,0,1,1.53,3.33,5.16,5.16,0,0,1-3.47,2.58,15.7,15.7,0,0,1-4.84-.11c-.18.71-.37,1.43-.51,2.12-.09.48-.2.93-.26,1.42l-.21,1.42c-.1.91-.21,1.84-.28,2.73-.06.62-.1,1.21-.14,1.8.21-.69.66-2,.71-2.14.78-1.68,3.28-4.48,5.34-4.22a2.46,2.46,0,0,1,2,3.06,5.12,5.12,0,0,1-3,3.08c-1.39.62-4.65.63-5,.63-.07,1-.13,1.94-.17,2.84-.15,3.12-.15,5.73-.13,7.56l-1.4.18v-.16c0-1.85.08-4.49.3-7.65.06-1,.16-2.06.26-3.16a26,26,0,0,1-3-1,18.13,18.13,0,0,1-3.77,3.18c.48.85,1,1.68,1.43,2.46,1.6,2.69,3,4.87,4.06,6.38l-1.54.19c-1-1.5-2.22-3.52-3.59-5.95-.49-.87-1-1.81-1.52-2.78-.38.13-3.47,1.18-5,1a5.15,5.15,0,0,1-3.88-1.93,2.47,2.47,0,0,1,.92-3.55c1.87-.91,5.14.93,6.42,2.28.08.07.8,1,1.25,1.63-.21-.39-.42-.78-.63-1.19-.42-.81-.81-1.63-1.24-2.51l-.59-1.32c-.2-.43-.36-.91-.55-1.38-.4-1.08-.77-2.2-1.11-3.33a16.06,16.06,0,0,1-4.64,1.71,5.14,5.14,0,0,1-4.12-1.32,2.45,2.45,0,0,1,.37-3.64c1.71-1.18,5.22.14,6.69,1.27.09.07,1.06,1,1.58,1.52-.2-.68-.4-1.36-.58-2.06-.52-2-1-4.06-1.44-6.11-.15-.62-.3-1.25-.44-1.87-.26.13-3.25,1.7-4.8,1.79a5.12,5.12,0,0,1-4.12-1.32,2.46,2.46,0,0,1,.36-3.64c1.72-1.18,5.23.14,6.7,1.27.11.09,1.49,1.43,1.83,1.79-.33-1.38-.66-2.75-1-4.08A42.88,42.88,0,0,0,45.63,419c-.11.06-3.23,1.71-4.82,1.8a5.12,5.12,0,0,1-4.12-1.32,2.45,2.45,0,0,1,.37-3.64c1.71-1.18,5.22.14,6.69,1.27.09.08,1.15,1.1,1.64,1.59l.1-.06a31.7,31.7,0,0,0-2.82-4.9c-.59-.86-1.2-1.64-1.81-2.4a16.44,16.44,0,0,1-4.5,2.26,5.14,5.14,0,0,1-4.24-.86,2.46,2.46,0,0,1,0-3.66c1.57-1.36,5.2-.43,6.79.53.08.05.9.68,1.49,1.15-.28-.34-.56-.69-.84-1-1-1.19-2-2.22-3-3.12-.52-.51-1-.95-1.45-1.37a16.64,16.64,0,0,1-5-.07,5.13,5.13,0,0,1-3.36-2.72,2.46,2.46,0,0,1,1.65-3.27c2-.48,4.82,2,5.79,3.61.08.13,1.14,2.43,1.1,2.43h0c.45.39.92.81,1.43,1.29.92.88,2,1.88,3,3.06a39.65,39.65,0,0,1,3.24,3.94,32.16,32.16,0,0,1,3,4.87l0,.07c-.09-.61-.28-2.3-.28-2.43,0-1.86,1.1-5.44,3.08-6.08a2.46,2.46,0,0,1,3.11,1.94A5.16,5.16,0,0,1,50.37,416c-1,1.18-4.11,2.59-4.35,2.7a43.88,43.88,0,0,1,2.07,5.43c.34,1.08.64,2.17.94,3.28-.06-.53-.11-1-.11-1.06,0-1.86,1.1-5.44,3.08-6.08a2.47,2.47,0,0,1,3.11,1.94,5.16,5.16,0,0,1-1.47,4.07,16.31,16.31,0,0,1-4.22,2.64l.33,1.27c.51,2,1,4.08,1.56,6.06.2.7.42,1.38.63,2.06,0-.46-.09-.86-.09-.92,0-1.85,1.1-5.44,3.08-6.07A2.46,2.46,0,0,1,58,433.22a5.15,5.15,0,0,1-1.47,4.07,15.7,15.7,0,0,1-4.1,2.59c.24.69.48,1.38.75,2,.19.45.34.89.56,1.33s.41.87.61,1.3c.42.81.85,1.65,1.28,2.43.29.55.58,1.06.87,1.58-.2-.69-.57-2.06-.59-2.18a9.66,9.66,0,0,1,.68-4.77,3.26,3.26,0,0,1,0-.54,2.46,2.46,0,0,1,2.72-2.45c2.06.27,3.77,3.61,4.1,5.43,0,.11.1,1.3.14,2.06,0-.45.08-.88.13-1.34.1-.91.22-1.81.35-2.78l.24-1.42c.07-.48.2-1,.3-1.46.26-1.13.57-2.26.92-3.39a15.94,15.94,0,0,1-4.82-1.13A5.16,5.16,0,0,1,58,431.21a2.45,2.45,0,0,1,2.32-2.83c2.08,0,4.27,3,4.88,4.75,0,.11.32,1.42.47,2.14.21-.68.42-1.36.65-2,.68-2,1.43-3.93,2.17-5.89.23-.6.45-1.2.67-1.81-.28,0-3.64-.36-5-1.15A5.14,5.14,0,0,1,61.43,421a2.47,2.47,0,0,1,2.32-2.84c2.08,0,4.27,3,4.88,4.75,0,.14.46,2,.54,2.5.49-1.32,1-2.65,1.37-4A41.41,41.41,0,0,0,71.89,416c-.13,0-3.64-.35-5-1.15a5.16,5.16,0,0,1-2.71-3.38,2.47,2.47,0,0,1,2.32-2.84c2.08,0,4.28,3,4.88,4.76,0,.11.36,1.55.49,2.24H72a31.26,31.26,0,0,0,.34-5.64c0-1-.09-2-.18-3a16.93,16.93,0,0,1-5-.6,5.17,5.17,0,0,1-3.06-3.06,2.46,2.46,0,0,1,2-3.07c2.06-.27,4.58,2.51,5.37,4.19,0,.09.38,1.06.62,1.78,0-.43-.09-.88-.15-1.3-.2-1.56-.48-3-.74-4.23-.16-.71-.31-1.35-.46-1.94a16.63,16.63,0,0,1-4.14-2.82,5.18,5.18,0,0,1-1.3-4.13A2.46,2.46,0,0,1,68.44,390c2,.71,2.91,4.34,2.84,6.19,0,.17-.39,2.66-.43,2.64l0,0c.16.58.32,1.19.48,1.86.29,1.25.6,2.67.84,4.23a42.32,42.32,0,0,1,.52,5.07,32.52,32.52,0,0,1-.22,5.7s0,0,0,.07c.26-.55,1-2.07,1.11-2.18,1-1.55,3.92-3.93,5.92-3.37A2.46,2.46,0,0,1,81,413.51,5.14,5.14,0,0,1,77.5,416.09Z" style="fill:#263238"></path><path d="M77.41,405.45c-1.4.83-5,1.22-5,1.22s.47-2.47.52-2.63c.59-1.76,2.75-4.82,4.82-4.81A2.46,2.46,0,0,1,80.07,402,5.11,5.11,0,0,1,77.41,405.45Z" style="fill:#263238;opacity:0.30000000000000004"></path><path d="M40.9,410.93s-1-2.32-1-2.48c-.49-1.79-.38-5.54,1.36-6.67a2.46,2.46,0,0,1,3.51,1,5.13,5.13,0,0,1-.34,4.32C43.72,408.61,40.9,410.93,40.9,410.93Z" style="fill:#263238;opacity:0.30000000000000004"></path><path d="M77.5,416.09c-1.51.42-4.86-.1-5.12-.14a43.85,43.85,0,0,1-1.27,5.67c-.31,1.08-.66,2.17-1,3.25.24-.47.45-.89.49-.94,1-1.55,3.92-3.93,5.92-3.37A2.47,2.47,0,0,1,78,423.89a5.16,5.16,0,0,1-3.47,2.58,16.36,16.36,0,0,1-5-.12c-.15.41-.29.83-.43,1.24-.7,2-1.4,4-2,5.92-.23.69-.42,1.37-.62,2.06l.43-.81c1-1.55,3.92-3.94,5.92-3.37a2.45,2.45,0,0,1,1.53,3.33,5.16,5.16,0,0,1-3.47,2.58,15.7,15.7,0,0,1-4.84-.11c-.18.71-.37,1.43-.51,2.12-.09.48-.2.93-.26,1.42l-.21,1.42c-.1.91-.21,1.84-.28,2.73-.06.62-.1,1.21-.14,1.8.21-.69.66-2,.71-2.14.78-1.68,3.28-4.48,5.34-4.22a2.46,2.46,0,0,1,2,3.06,5.12,5.12,0,0,1-3,3.08c-1.39.62-4.65.63-5,.63-.07,1-.13,1.94-.17,2.84-.15,3.12-.15,5.73-.13,7.56l-1.4.18v-.16c0-1.85.08-4.49.3-7.65.06-1,.16-2.06.26-3.16a26,26,0,0,1-3-1,18.13,18.13,0,0,1-3.77,3.18c.48.85,1,1.68,1.43,2.46,1.6,2.69,3,4.87,4.06,6.38l-1.54.19c-1-1.5-2.22-3.52-3.59-5.95-.49-.87-1-1.81-1.52-2.78-.38.13-3.47,1.18-5,1a5.15,5.15,0,0,1-3.88-1.93,2.47,2.47,0,0,1,.92-3.55c1.87-.91,5.14.93,6.42,2.28.08.07.8,1,1.25,1.63-.21-.39-.42-.78-.63-1.19-.42-.81-.81-1.63-1.24-2.51l-.59-1.32c-.2-.43-.36-.91-.55-1.38-.4-1.08-.77-2.2-1.11-3.33a16.06,16.06,0,0,1-4.64,1.71,5.14,5.14,0,0,1-4.12-1.32,2.45,2.45,0,0,1,.37-3.64c1.71-1.18,5.22.14,6.69,1.27.09.07,1.06,1,1.58,1.52-.2-.68-.4-1.36-.58-2.06-.52-2-1-4.06-1.44-6.11-.15-.62-.3-1.25-.44-1.87-.26.13-3.25,1.7-4.8,1.79a5.12,5.12,0,0,1-4.12-1.32,2.46,2.46,0,0,1,.36-3.64c1.72-1.18,5.23.14,6.7,1.27.11.09,1.49,1.43,1.83,1.79-.33-1.38-.66-2.75-1-4.08A42.88,42.88,0,0,0,45.63,419c-.11.06-3.23,1.71-4.82,1.8a5.12,5.12,0,0,1-4.12-1.32,2.45,2.45,0,0,1,.37-3.64c1.71-1.18,5.22.14,6.69,1.27.09.08,1.15,1.1,1.64,1.59l.1-.06a31.7,31.7,0,0,0-2.82-4.9c-.59-.86-1.2-1.64-1.81-2.4a16.44,16.44,0,0,1-4.5,2.26,5.14,5.14,0,0,1-4.24-.86,2.46,2.46,0,0,1,0-3.66c1.57-1.36,5.2-.43,6.79.53.08.05.9.68,1.49,1.15-.28-.34-.56-.69-.84-1-1-1.19-2-2.22-3-3.12-.52-.51-1-.95-1.45-1.37a16.64,16.64,0,0,1-5-.07,5.13,5.13,0,0,1-3.36-2.72,2.46,2.46,0,0,1,1.65-3.27c2-.48,4.82,2,5.79,3.61.08.13,1.14,2.43,1.1,2.43h0c.45.39.92.81,1.43,1.29.92.88,2,1.88,3,3.06a39.65,39.65,0,0,1,3.24,3.94,32.16,32.16,0,0,1,3,4.87l0,.07c-.09-.61-.28-2.3-.28-2.43,0-1.86,1.1-5.44,3.08-6.08a2.46,2.46,0,0,1,3.11,1.94A5.16,5.16,0,0,1,50.37,416c-1,1.18-4.11,2.59-4.35,2.7a43.88,43.88,0,0,1,2.07,5.43c.34,1.08.64,2.17.94,3.28-.06-.53-.11-1-.11-1.06,0-1.86,1.1-5.44,3.08-6.08a2.47,2.47,0,0,1,3.11,1.94,5.16,5.16,0,0,1-1.47,4.07,16.31,16.31,0,0,1-4.22,2.64l.33,1.27c.51,2,1,4.08,1.56,6.06.2.7.42,1.38.63,2.06,0-.46-.09-.86-.09-.92,0-1.85,1.1-5.44,3.08-6.07A2.46,2.46,0,0,1,58,433.22a5.15,5.15,0,0,1-1.47,4.07,15.7,15.7,0,0,1-4.1,2.59c.24.69.48,1.38.75,2,.19.45.34.89.56,1.33s.41.87.61,1.3c.42.81.85,1.65,1.28,2.43.29.55.58,1.06.87,1.58-.2-.69-.57-2.06-.59-2.18a9.66,9.66,0,0,1,.68-4.77,3.26,3.26,0,0,1,0-.54,2.46,2.46,0,0,1,2.72-2.45c2.06.27,3.77,3.61,4.1,5.43,0,.11.1,1.3.14,2.06,0-.45.08-.88.13-1.34.1-.91.22-1.81.35-2.78l.24-1.42c.07-.48.2-1,.3-1.46.26-1.13.57-2.26.92-3.39a15.94,15.94,0,0,1-4.82-1.13A5.16,5.16,0,0,1,58,431.21a2.45,2.45,0,0,1,2.32-2.83c2.08,0,4.27,3,4.88,4.75,0,.11.32,1.42.47,2.14.21-.68.42-1.36.65-2,.68-2,1.43-3.93,2.17-5.89.23-.6.45-1.2.67-1.81-.28,0-3.64-.36-5-1.15A5.14,5.14,0,0,1,61.43,421a2.47,2.47,0,0,1,2.32-2.84c2.08,0,4.27,3,4.88,4.75,0,.14.46,2,.54,2.5.49-1.32,1-2.65,1.37-4A41.41,41.41,0,0,0,71.89,416c-.13,0-3.64-.35-5-1.15a5.16,5.16,0,0,1-2.71-3.38,2.47,2.47,0,0,1,2.32-2.84c2.08,0,4.28,3,4.88,4.76,0,.11.36,1.55.49,2.24H72a31.26,31.26,0,0,0,.34-5.64c0-1-.09-2-.18-3a16.93,16.93,0,0,1-5-.6,5.17,5.17,0,0,1-3.06-3.06,2.46,2.46,0,0,1,2-3.07c2.06-.27,4.58,2.51,5.37,4.19,0,.09.38,1.06.62,1.78,0-.43-.09-.88-.15-1.3-.2-1.56-.48-3-.74-4.23-.16-.71-.31-1.35-.46-1.94a16.63,16.63,0,0,1-4.14-2.82,5.18,5.18,0,0,1-1.3-4.13A2.46,2.46,0,0,1,68.44,390c2,.71,2.91,4.34,2.84,6.19,0,.17-.39,2.66-.43,2.64l0,0c.16.58.32,1.19.48,1.86.29,1.25.6,2.67.84,4.23a42.32,42.32,0,0,1,.52,5.07,32.52,32.52,0,0,1-.22,5.7s0,0,0,.07c.26-.55,1-2.07,1.11-2.18,1-1.55,3.92-3.93,5.92-3.37A2.46,2.46,0,0,1,81,413.51,5.14,5.14,0,0,1,77.5,416.09Z" style="fill:#263238;opacity:0.30000000000000004"></path></g><g id="freepik--character-3--inject-92"><ellipse cx="280.25" cy="134.25" rx="9" ry="9.5" style="fill:#263238;stroke:#263238;stroke-linecap:round;stroke-linejoin:round"></ellipse><path d="M278.92,355.67s.33,30,3.66,47,6.67,38,6.67,38-3.33,13-4.33,13.66-7.67,4.67-5.67,6.34,21.33,0,21.33,0,2.34-2.34,1.67-7-.33-20.34-.33-20.34,2-54.66,2-63v-17l-25.67-2Z" style="fill:#fff;stroke:#263238;stroke-linecap:round;stroke-linejoin:round"></path><path d="M302.25,453.67a106.94,106.94,0,0,1-.42-11.12c-1.13,3.55-3.44,9.71-6.25,11.12-4,2-10.66.66-10.66.66-1,.67-7.67,4.67-5.67,6.34s21.33,0,21.33,0S302.92,458.33,302.25,453.67Z" style="fill:#263238;stroke:#263238;stroke-linecap:round;stroke-linejoin:round"></path><path d="M335.58,355.67s-.33,30-3.66,47-6.67,38-6.67,38,3.33,13,4.33,13.66,7.67,4.67,5.67,6.34-21.33,0-21.33,0-2.34-2.34-1.67-7,.33-20.34.33-20.34-2-54.66-2-63v-17l25.67-2Z" style="fill:#fff;stroke:#263238;stroke-linecap:round;stroke-linejoin:round"></path><path d="M312.25,453.67a106.94,106.94,0,0,0,.42-11.12c1.13,3.55,3.44,9.71,6.25,11.12,4,2,10.66.66,10.66.66,1,.67,7.67,4.67,5.67,6.34s-21.33,0-21.33,0S311.58,458.33,312.25,453.67Z" style="fill:#263238;stroke:#263238;stroke-linecap:round;stroke-linejoin:round"></path><path d="M276.92,239s-10,26-13,45.67S251.25,342.33,253.25,345s7.67,3.33,7.67,3.33l-.34,5.34s11,4.66,21.67,5,19.33-2.67,25.33-1.34,24.34,2.67,29,0,10-5,10.34-6.33a21.09,21.09,0,0,0,0-4.67l5-2.33s-1.34-34.67-4.67-54.67-8.33-36.66-10.67-42.66-11-7.34-11-7.34Z" style="fill:#263238;stroke:#263238;stroke-linecap:round;stroke-linejoin:round"></path><line x1="260.92" y1="348.33" x2="263.58" y2="313.33" style="fill:none;stroke:#263238;stroke-linecap:round;stroke-linejoin:round"></line><line x1="346.92" y1="346.33" x2="340.92" y2="300.67" style="fill:none;stroke:#263238;stroke-linecap:round;stroke-linejoin:round"></line><path d="M292.5,152.25,291,166.5s-28.25,11.5-29.25,13,17.25,62,17.25,62,9,6.5,25.25,6.25,25.5-8.5,25.5-8.5S340,179.5,338.25,176s-28-11-28-11l-.5-10.75Z" style="fill:#FFC100;stroke:#263238;stroke-linecap:round;stroke-linejoin:round"></path><path d="M301,200l16.73-32.73c-4.26-1.35-7.48-2.27-7.48-2.27l-.5-10.75-19.36-3.76.61,16s-2.21.9-5.41,2.23Z" style="fill:#fff;stroke:#263238;stroke-linecap:round;stroke-linejoin:round"></path><path d="M310.07,161.21l-.32-7-19.36-3.76.15,4c2.14,2.78,7.2,8.88,11.23,10C304.47,165.24,307.64,163.29,310.07,161.21Z" style="fill:#263238;stroke:#263238;stroke-linecap:round;stroke-linejoin:round"></path><path d="M284.25,137.25s-.14-.34-.37-.81c-.81-1.66-2.77-5-4.13-1.69-1.75,4.25.25,7.5,2,9.5a3.53,3.53,0,0,0,4,1s4.75,8.25,8.5,12.5,11,5,14,1.75,6.6-5.68,8.1-13.68c.34-1.79.27-5.32.51-7.34a105.15,105.15,0,0,0,.64-18.73c-.5-5.25-3.75-13-9.75-16.25S290,102,284.5,109s-7,14.5-4.75,18a33,33,0,0,1,3,5.5Z" style="fill:#fff;stroke:#263238;stroke-linecap:round;stroke-linejoin:round"></path><path d="M280.3,133.79l3.95,3.46s-.14-.34-.37-.81C283.17,135,281.59,132.28,280.3,133.79Z" style="fill:#fff;stroke:#263238;stroke-linecap:round;stroke-linejoin:round"></path><path d="M307.75,103.5c-6-3.25-17.75-1.5-23.25,5.5s-7,14.5-4.75,18a33,33,0,0,1,3,5.5l1.5,4.75s0-6.25,1-8.75,5.5-14.25,18-14.5,12.25,11.75,13.5,14.75a4.72,4.72,0,0,0,.8,1.25,78.85,78.85,0,0,0-.05-10.25C317,114.5,313.75,106.75,307.75,103.5Z" style="fill:#263238;stroke:#263238;stroke-linecap:round;stroke-linejoin:round"></path><path d="M307,133.75s-.5,5,.5,5.5,3.25.75,2.75,2.5S307.5,144,307.5,144" style="fill:none;stroke:#263238;stroke-linecap:round;stroke-linejoin:round"></path><path d="M297.75,146.25s1.75,3.75,9,3.5" style="fill:none;stroke:#263238;stroke-linecap:round;stroke-linejoin:round"></path><path d="M292.25,136.25a7.65,7.65,0,0,1,7,.25" style="fill:none;stroke:#263238;stroke-linecap:round;stroke-linejoin:round"></path><path d="M308.75,136.25s3.75-1.75,6,.75" style="fill:none;stroke:#263238;stroke-linecap:round;stroke-linejoin:round"></path><path d="M291.75,130.5a7.14,7.14,0,0,1,9.25-1.25" style="fill:none;stroke:#263238;stroke-linecap:round;stroke-linejoin:round"></path><path d="M308.25,130.25s5-3.75,8,.25" style="fill:none;stroke:#263238;stroke-linecap:round;stroke-linejoin:round"></path><path d="M268.5,176.75s-9.5,2.75-9.75,4.25,6,47.25,6,47.25-3.25,3-2,4.75,4,5.25,4,5.25a3.64,3.64,0,0,0,1,3.75c1.75,1.5,6.75,20.5,11.75,29.5a109.48,109.48,0,0,0,11.25,16.25s3.5,6.5,6,8.25,4.25,3.25,5.75,2.5,3-6.75,3.25-10.5-7.75-8.5-8.75-9a25.36,25.36,0,0,1-3.5-3s-6.75-14.25-8-21.25S281,237,281,237s1.75-4.25,1.75-5.25-2.75-3.5-2.75-4.5v-7.5l-2.25-26" style="fill:#FFC100;stroke:#263238;stroke-linecap:round;stroke-linejoin:round"></path><path d="M297,279a25.36,25.36,0,0,1-3.5-3s-6.75-14.25-8-21.25c-.55-3.07-1.48-6.86-2.36-10.15-6.47-2.06-10.87.48-13.12,2.47,2.39,6.63,5.93,18,9.48,24.43a109.48,109.48,0,0,0,11.25,16.25s3.5,6.5,6,8.25,4.25,3.25,5.75,2.5,3-6.75,3.25-10.5S298,279.5,297,279Z" style="fill:#fff;stroke:#263238;stroke-linecap:round;stroke-linejoin:round"></path><path d="M269,236.5s6.25-4.25,10.5-2.5" style="fill:none;stroke:#263238;stroke-linecap:round;stroke-linejoin:round"></path><path d="M265,234s8-5.75,13-3.25" style="fill:none;stroke:#263238;stroke-linecap:round;stroke-linejoin:round"></path><path d="M328.5,194.75l-2,34.75s-4,5.5-3.5,7a11.9,11.9,0,0,1,.5,3.25l-2.25,2.75-14,37.25s-6,4.25-6.25,5.25-2.5,7.75-2.5,9.25-.5,1.5,1.25,1.5,3.75-5.5,3.75-5.5l-.75,6.5a31.87,31.87,0,0,1-4.5,1c-1,0,1.5,3.5,5.5,3s6.5-2.25,7.75-6.25,3-16,3-16S337.75,248,340,244.25s3-7.25,2.75-9a10.06,10.06,0,0,1,.5-5.25c.75-2.5,1-4.75.5-5.5s1-25.25.25-33.75S341,178,338.25,176s-7.5-2.75-7.5-2.75" style="fill:#FFC100;stroke:#263238;stroke-linecap:round;stroke-linejoin:round"></path><path d="M321,243.1l-13.78,36.65s-6,4.25-6.25,5.25-2.5,7.75-2.5,9.25-.5,1.5,1.25,1.5,3.75-5.5,3.75-5.5l-.75,6.5a31.87,31.87,0,0,1-4.5,1c-1,0,1.5,3.5,5.5,3s6.5-2.25,7.75-6.25,3-16,3-16,14.67-19.24,21.83-29C332.19,242.77,324.76,242.66,321,243.1Z" style="fill:#fff;stroke:#263238;stroke-linecap:round;stroke-linejoin:round"></path><path d="M326.25,238s7-3.75,12,1" style="fill:none;stroke:#263238;stroke-linecap:round;stroke-linejoin:round"></path><path d="M338.5,232.75s-7.25-1-11.75,3" style="fill:none;stroke:#263238;stroke-linecap:round;stroke-linejoin:round"></path></g><g id="freepik--character-4--inject-92"><path d="M357.58,416.67l-2,27.66s-9.33,9-11.33,10.34-10.67,2.33-9.33,5,7,2.33,7,2.33h26a12.38,12.38,0,0,0,1-7.33c-.67-4.34-1.34-12.34-1.34-12.34l5-25Z" style="fill:#fff;stroke:#263238;stroke-linecap:round;stroke-linejoin:round"></path><path d="M341.92,462h26a12.38,12.38,0,0,0,1-7.33c-.17-1.06-.33-2.34-.48-3.67h-9.86s-.66-3.33-1-7c-.16-1.77-1-1.9-1.86-1.58l-.14,1.91s-9.33,9-11.33,10.34-10.67,2.33-9.33,5S341.92,462,341.92,462Z" style="fill:#fff;stroke:#263238;stroke-linecap:round;stroke-linejoin:round"></path><path d="M404.92,418l3.33,36.33s1.67,10,3.67,10.34,10,1.66,11.33-2.67-5.33-17.67-5.33-17.67L420.58,418Z" style="fill:#fff;stroke:#263238;stroke-linecap:round;stroke-linejoin:round"></path><path d="M408.25,454.33s1.67,10,3.67,10.34,10,1.66,11.33-2.67-5.33-17.67-5.33-17.67-3.34-2.66-5-.66a18,18,0,0,0-2.67,5l-2.62-1.09Z" style="fill:#fff;stroke:#263238;stroke-linecap:round;stroke-linejoin:round"></path><path d="M355.58,276a250.68,250.68,0,0,0-2,33.67c0,20.33,1.67,104.33,1.67,104.33l19.33-.67,10.34-90.66,2.33,3.33,13.67,87.33s5,2.67,8.33,2.67,13-3,13-3-1.33-100-1-105.67S419.58,285,419.58,285s-9.33,2.67-25.33.33-25.33-5.66-28-7S355.58,276,355.58,276Z" style="fill:#263238;stroke:#263238;stroke-linecap:round;stroke-linejoin:round"></path><line x1="379.75" y1="323.5" x2="393.25" y2="318" style="fill:none;stroke:gray;stroke-linecap:round;stroke-linejoin:round"></line><path d="M362.75,287s-1,6.5-6.5,14.5" style="fill:none;stroke:gray;stroke-linecap:round;stroke-linejoin:round"></path><path d="M409.75,291.5a27.15,27.15,0,0,0,9,12.5" style="fill:none;stroke:gray;stroke-linecap:round;stroke-linejoin:round"></path><path d="M393.45,172.73s-31.12,9.64-31.93,11.65-26.62,49.8-24.82,51.21,18.8.39,19.6,0,7.83-18.27,7.83-18.27-.4,18.87-.4,20.27,0,11-3.61,18.28-6.23,21.28-6.23,22.88v2.61S375.18,295,391.44,292.8a182.77,182.77,0,0,0,29.11-6.43s-.6-12.44-2.21-18.27-5-24.69-5-26.7,2.61-5.82,2.81-6.43,9.24-31.92,9.24-31.92l7.63,25.7,13.05-2s-4.22-39.75-6.83-42-33.93-10.44-33.93-10.44Z" style="fill:#fff"></path><path d="M356.3,235.58a15.13,15.13,0,0,0,1.69-3.32H337.53c-.76,1.91-1.09,3.12-.83,3.33C338.51,237,355.5,236,356.3,235.58Z" style="fill:#FFC100"></path><path d="M361.54,252.38a28.51,28.51,0,0,1-1.42,3.48,48.16,48.16,0,0,0-2.66,6.9h59.63c-.66-3.12-1.39-6.88-2-10.38Z" style="fill:#FFC100"></path><path d="M419.23,272.5H355a52.37,52.37,0,0,0-1.06,6.24v2.61s.95.61,2.57,1.53h63.87C420.13,280.07,419.77,276,419.23,272.5Z" style="fill:#FFC100"></path><path d="M416.93,232.26h-53.1c-.06,2.74-.1,4.89-.1,5.32s0,2.5-.24,5.07h49.95c-.07-.59-.12-1-.12-1.25,0-2,2.61-5.82,2.81-6.43C416.17,234.87,416.47,233.85,416.93,232.26Z" style="fill:#FFC100"></path><path d="M419.75,222.53c1-3.46,2.06-7.15,3-10.38h-75.6c-1.84,3.61-3.63,7.17-5.18,10.38h20.08c1.19-2.94,2.08-5.22,2.08-5.22s0,2.23-.11,5.22Z" style="fill:#FFC100"></path><path d="M393.45,172.73s-19.54,6.06-28.05,9.57h67.66c-9.86-3.25-27.77-8-27.77-8Z" style="fill:#FFC100"></path><path d="M357.58,192c-1.55,3-3.43,6.54-5.42,10.38H443c-.54-3.77-1.12-7.4-1.68-10.38Z" style="fill:#FFC100"></path><path d="M428.07,212.15l3.08,10.38h14.43c-.3-2.66-.73-6.34-1.24-10.38Z" style="fill:#FFC100"></path><path d="M393.45,172.73s-31.12,9.64-31.93,11.65-26.62,49.8-24.82,51.21,18.8.39,19.6,0,7.83-18.27,7.83-18.27-.4,18.87-.4,20.27,0,11-3.61,18.28-6.23,21.28-6.23,22.88v2.61S375.18,295,391.44,292.8a182.77,182.77,0,0,0,29.11-6.43s-.6-12.44-2.21-18.27-5-24.69-5-26.7,2.61-5.82,2.81-6.43,9.24-31.92,9.24-31.92l7.63,25.7,13.05-2s-4.22-39.75-6.83-42-33.93-10.44-33.93-10.44Z" style="fill:none;stroke:#263238;stroke-linecap:round;stroke-linejoin:round"></path><polygon points="396.06 158.28 391.44 174.54 397.06 193.01 408.5 176.75 413.52 167.72 396.06 158.28" style="fill:#fff;stroke:#263238;stroke-linecap:round;stroke-linejoin:round"></polygon><path d="M395.37,160.71l-1.4,4.93.53,2.83a22.47,22.47,0,0,0,5.78,8.91,14.85,14.85,0,0,0,5.78,2.85l2.45-3.48,4.51-8.12Z" style="fill:#263238;stroke:#263238;stroke-linecap:round;stroke-linejoin:round"></path><path d="M393.9,142.66s-1.06-3-1.27-9.31,1.06-12.07,3.18-11,1.69,4.44,1.69,4.44a14.29,14.29,0,0,1,12.7-9.31c9.95-.63,7.19,3.39,7.19,3.39s15.88-1.27,21.38,5.5,4.44,13.33,3,13.33h-3.17s4.87,14.19,1.27,16.94-10.16-7-10.16-7-.85,3.39-2.54,4.24a20.48,20.48,0,0,1-3.18,1.26s-6.56-1.9-9.94-4.44-8.68-10.16-8.68-10.16-5.71,7-7.83,7.83a31.57,31.57,0,0,0-3.6,1.7Z" style="fill:#263238;stroke:#263238;stroke-linecap:round;stroke-linejoin:round"></path><path d="M395.51,146.71s0-8.08-2.81-5.27-3.86,7.73-2.1,10.19l1.75,2.46,1.76,1.41s-1.41,6.32,0,10.19,3.86,9.13,9.84,8.43,11-3.47,13.44-8.39S425,153,425,153s-8.78-.35-13.7-7.38-6-11.24-6-11.24S400.43,144.61,395.51,146.71Z" style="fill:#fff;stroke:#263238;stroke-linecap:round;stroke-linejoin:round"></path><path d="M399.62,151.12a5,5,0,0,0,5.5,2.54" style="fill:none;stroke:#263238;stroke-linecap:round;stroke-linejoin:round"></path><path d="M410.62,156a4.92,4.92,0,0,0,6.35,3.18" style="fill:none;stroke:#263238;stroke-linecap:round;stroke-linejoin:round"></path><path d="M402.16,161.49s.63,2.33,4.65,1.49" style="fill:none;stroke:#263238;stroke-linecap:round;stroke-linejoin:round"></path><path d="M399.4,162.55s.43,4.66,7.84,4.66" style="fill:none;stroke:#263238;stroke-linecap:round;stroke-linejoin:round"></path><path d="M401.1,147.74a7,7,0,0,1,5.92,2.54" style="fill:none;stroke:#263238;stroke-linecap:round;stroke-linejoin:round"></path><path d="M412.31,153.24s3.39-.42,5.93,4" style="fill:none;stroke:#263238;stroke-linecap:round;stroke-linejoin:round"></path><path d="M393.05,147.24s-3.22,0-3.42,1.4,0,20.88,1.61,31.52,3.61,21.49,4.21,21.69,18.28-31.12,19.08-32.33" style="fill:none;stroke:#263238;stroke-linecap:round;stroke-linejoin:round"></path><polygon points="362.63 207.47 365.44 236.18 376.88 235.58 374.47 206.66 362.63 207.47" style="fill:#263238;stroke:#263238;stroke-miterlimit:10"></polygon><path d="M357.91,233.77l2.21-12.85,3.41-5.82.2,5s10.44-7,10.64-5.42-7.63,7.83-7.63,7.83v1.8s7.23-4,8-4.21,2.82-2,2.62-.2-2.82,3.41-3.82,4.21-5.22,3.42-5.22,3.42,8-4.42,8-3-2,3.22-2.61,3.82-2.61,3.41-3.81,4.82-9.64,4.41-9.64,4.41S340,246,336.43,246.82s-3.88-8.22-1.47-11.23,4.68-3.43,7.89-4.23S357.91,233.77,357.91,233.77Z" style="fill:#fff;stroke:#263238;stroke-miterlimit:10"></path><path d="M373.57,236s1.2,9.84,4,14.45,10.44,6.83,14.05,3.22S397.26,242,397.06,232s-1.61-30.11-1.61-30.11" style="fill:none;stroke:#263238;stroke-linecap:round;stroke-linejoin:round"></path><polygon points="352.92 406.67 354.25 420.33 376.58 420.33 377.25 407 352.92 406.67" style="fill:#fff;stroke:#263238;stroke-linecap:round;stroke-linejoin:round"></polygon><polygon points="398.92 409 400.58 420.33 423.58 420.67 424.25 407.33 398.92 409" style="fill:#fff;stroke:#263238;stroke-linecap:round;stroke-linejoin:round"></polygon><path d="M420.15,159.08l-1.61,6.83s-8.63,5-9,7.23,19.47,50.59,21.28,53.8,4,8.64,9.44,7.43,7.63-9,5.82-12.65-29.92-46-29.92-46l11.25-10.24s.2-9.24-.2-11.25-.61-2.81-.61-2.81S421.35,157.88,420.15,159.08Z" style="fill:#fff;stroke:#263238;stroke-linecap:round;stroke-linejoin:round"></path><polyline points="421.63 157.98 421.63 166.7 419.86 169.7" style="fill:none;stroke:#263238;stroke-linecap:round;stroke-linejoin:round"></polyline><path d="M424,155.14s.27,9.25.27,10.34a6.67,6.67,0,0,1-1.09,2.72" style="fill:none;stroke:#263238;stroke-linecap:round;stroke-linejoin:round"></path><path d="M425.45,153.35s.81,10.49.81,11.58a4,4,0,0,1-.95,2.18" style="fill:none;stroke:#263238;stroke-linecap:round;stroke-linejoin:round"></path></g><g id="freepik--character-2--inject-92"><path d="M234.5,439.33l5.75,8.42s18.86,10.4,19.59,10.64.73,2.18-.48,2.42-5.57.72-5.57.72H214.14s-1-3.86-1.46-6,.73-9.19.73-9.19l.24-6.29Z" style="fill:#fff;stroke:#263238;stroke-linecap:round;stroke-linejoin:round"></path><path d="M170.5,253.67,171.83,293l5.67,131-2.33,7,3.33,10.67s4-4,9-1.67a30.5,30.5,0,0,1,8,5.33,50.18,50.18,0,0,0,2.67-5.66,23.27,23.27,0,0,0,1-7.34c0-1,4.66-5.66,4.66-7.33s-4-8.67-4-8.67L206.17,292l7.33,131.33s-2,2.34-2,3.34,2.67,17,2.67,17,.33.33,4.33.33,9.33-1,11-2.67,5-2,5-2l.67-7.33-1.34-5.33L238.17,346V264.67l.33-12.34-68.67-1Z" style="fill:#263238;stroke:#263238;stroke-linecap:round;stroke-linejoin:round"></path><path d="M183.17,152l-24.34,13-14.66,55.33L124.83,250l7,5.67,26-25.34,7.34-9.33,2.66,17s-5,12-2.33,14.33a22.89,22.89,0,0,0,6.33,3.67H238.5a42.7,42.7,0,0,0,1.33-6c0-1.33-1.66-12.67-1.66-12.67l1-23.33,3.66,20.67L246.17,271l10-.33,2-48.67-14-57-28-11.67Z" style="fill:#fff;stroke:#263238;stroke-linecap:round;stroke-linejoin:round"></path><polygon points="189.25 142.75 184.5 143.25 180 151.75 183.25 172.5 198.5 161.75 213.75 173 219 151.5 212.75 142.5 189.25 142.75" style="fill:#fff;stroke:#263238;stroke-linecap:round;stroke-linejoin:round"></polygon><path d="M187.75,135,187,147.75l12.5,15,11.25-15.5-1-12.5S196.75,138.25,187.75,135Z" style="fill:#fff;stroke:#263238;stroke-linecap:round;stroke-linejoin:round"></path><path d="M210.14,139.6l-.39-4.85s-13,3.5-22,.25l-.19,3.22c1.9,3.5,6.24,10.38,11.23,10.81C203,149.39,207.41,143.82,210.14,139.6Z" style="fill:#263238;stroke:#263238;stroke-linecap:round;stroke-linejoin:round"></path><path d="M181.5,114.75s-1.75-3.75-2.75-.75,3,9.25,3,9.25l.75-8.25Z" style="fill:#fff;stroke:#263238;stroke-linecap:round;stroke-linejoin:round"></path><path d="M214.84,114.75s1.75-3.75,2.75-.75-3,9.25-3,9.25l-.75-8.25Z" style="fill:#fff;stroke:#263238;stroke-linecap:round;stroke-linejoin:round"></path><path d="M213.5,119s.5.25,1.25-1.5S216,105.75,216,105.75s5-7.5,2.25-12.75-12-7.5-18.75-9-17,1.25-20.25,5-6.5,8.25-4.5,10.75a42.58,42.58,0,0,0,6.5,5.75s-.75,7.75.25,9.25l1,1.5L183.75,106s8.75-1,14-2.75,7.75-2.5,7.75-2.5,2.25,4.25,4,5.5a12.14,12.14,0,0,1,2.5,2.25Z" style="fill:#263238;stroke:#263238;stroke-linecap:round;stroke-linejoin:round"></path><path d="M182.75,104s-1.75,21.75-.25,25,7.75,15.25,17.5,14.25,13.5-10.75,14-16.5-.5-21.25-.5-21.25-4.75-2-5.25-4a27.63,27.63,0,0,1-.5-5.25S193,105.25,182.75,104Z" style="fill:#fff;stroke:#263238;stroke-linecap:round;stroke-linejoin:round"></path><path d="M199,122.75a14.51,14.51,0,0,0-7.25,3c-3.5,2.75-5.5,3-5.5,3s4.5,5.5,11.25,5.5,11-3.25,11.75-5.5l.75-2.25a24.1,24.1,0,0,1-7.25-2A19.81,19.81,0,0,0,199,122.75Z" style="fill:#263238;stroke:#263238;stroke-linecap:round;stroke-linejoin:round"></path><path d="M196.5,117.5s-.5,5.5,0,6.5,4.25,3,4.75.75,0-7.25,0-7.25" style="fill:#fff;stroke:#263238;stroke-linecap:round;stroke-linejoin:round"></path><ellipse cx="190.88" cy="115.5" rx="1.38" ry="1.75" style="fill:#263238"></ellipse><ellipse cx="205.75" cy="115.5" rx="1.38" ry="1.75" style="fill:#263238"></ellipse><path d="M186.75,110.75s1.25-4,7.5-1.75" style="fill:none;stroke:#263238;stroke-linecap:round;stroke-linejoin:round"></path><path d="M201.5,108.75s3.5-3.25,7.75,1" style="fill:none;stroke:#263238;stroke-linecap:round;stroke-linejoin:round"></path><polyline points="160.17 183.33 165.17 221 155.83 193.67" style="fill:none;stroke:#263238;stroke-linecap:round;stroke-linejoin:round"></polyline><line x1="199.5" y1="166.33" x2="202.83" y2="236.67" style="fill:none;stroke:#263238;stroke-linecap:round;stroke-linejoin:round"></line><line x1="239.17" y1="214" x2="239.5" y2="180.33" style="fill:none;stroke:#263238;stroke-linecap:round;stroke-linejoin:round"></line><line x1="200.5" y1="293" x2="213.83" y2="284.67" style="fill:none;stroke:gray;stroke-linecap:round;stroke-linejoin:round"></line><path d="M179.31,440.56l-2.9,9.19s-6.77,10.88-6.53,11.85,26.84,0,26.84,0,1.94,0,1.7-4.11a121.52,121.52,0,0,0-1.94-12.33s-2.9-7.5-8.46-8.71S179.31,439.11,179.31,440.56Z" style="fill:#fff;stroke:#263238;stroke-linecap:round;stroke-linejoin:round"></path><polygon points="256.69 286.31 254.75 298.6 253.65 298.05 256.69 286.31" style="fill:none;stroke:#263238;stroke-linecap:round;stroke-linejoin:round"></polygon><path d="M246.17,271l-2.29,10.88,1,11.23,1.64.18.62-7.92L248.3,298l4.89.93s3.26-10.71,3.5-12.57-.52-15.64-.52-15.64Z" style="fill:#fff;stroke:#263238;stroke-linecap:round;stroke-linejoin:round"></path><line x1="249.63" y1="297.86" x2="251.46" y2="284.34" style="fill:none;stroke:#263238;stroke-linecap:round;stroke-linejoin:round"></line><line x1="251.09" y1="298.41" x2="254.38" y2="285.43" style="fill:none;stroke:#263238;stroke-linecap:round;stroke-linejoin:round"></line><path d="M124.83,250s-8,3.67-10,4.33-2.66,3-5,4.67-5.33,3.67-3.66,4.33a7.82,7.82,0,0,0,3.66.34l3-3.67-5.33,11.67-.33,4.33,4,1.67,9.33-5,11.33-17Z" style="fill:#fff;stroke:#263238;stroke-linecap:round;stroke-linejoin:round"></path><path d="M112.83,260s3.92,3.29,6.35,2.6,4.34-5.73,4.34-5.73" style="fill:#fff;stroke:#263238;stroke-linecap:round;stroke-linejoin:round"></path><line x1="107.55" y1="274.23" x2="113.11" y2="266.07" style="fill:#fff;stroke:#263238;stroke-linecap:round;stroke-linejoin:round"></line><line x1="109.12" y1="276.48" x2="115.54" y2="267.28" style="fill:#fff;stroke:#263238;stroke-linecap:round;stroke-linejoin:round"></line><line x1="111.17" y1="277.67" x2="118.66" y2="268.67" style="fill:#fff;stroke:#263238;stroke-linecap:round;stroke-linejoin:round"></line></g><g id="freepik--character-1--inject-92"><path d="M135.75,438.65a31.46,31.46,0,0,0,2,5.25c1,1.75,2.5,7.75,4.5,8.75s2.75,4,2.75,6-.5,2.5-1.75,2.5h-25s-.25-3.25-.25-6.25.5-7.75.5-9v-8a106.69,106.69,0,0,1,11.25-.75C135,437.15,135.75,438.65,135.75,438.65Z" style="fill:#fff;stroke:#263238;stroke-linecap:round;stroke-linejoin:round"></path><path d="M92,437.9l-4.5,11.5s-5.75,5.5-5.75,7.75,1.25,3.25,2,3.25h25.5a21.84,21.84,0,0,0,.25-8c-.75-3.75-2.25-9.5-2.25-9.5l-10-5.25Z" style="fill:#fff;stroke:#263238;stroke-linecap:round;stroke-linejoin:round"></path><path d="M87.25,337.15,92,425.65s-3.25,5.5-2.5,7a45,45,0,0,1,1.75,6.75l9.25,5.5s6.5-1,6.75-2,1-6.5,1.25-10-1.25-6.75-1-10.25S113,351.4,113,351.4l1.75-.5,3.75,81a18.71,18.71,0,0,0-1.25,4c-.25,1.75,2.25,5.25,2.25,5.25s0,3,1.5,3.5,4.75-.5,5.75-1.5.5-4,2.75-4.5,6.75,1.75,6.75,1.75a66.34,66.34,0,0,0,0-7.25c-.25-2.25-2.75-5.75-2.75-5.75l3.25-65.25-1-25Z" style="fill:#263238;stroke:#263238;stroke-linecap:round;stroke-linejoin:round"></path><path d="M150.25,296.4l-2,48s2,11.5,2,12.25-1,5.75-2.75,7.25a1.66,1.66,0,0,1-2.75-.5l.5-2.75-1.25-6-1.75,6.75s-2.25.25-1.75-2.75.25-8.25.75-10a18.89,18.89,0,0,0,.5-4.25s-5-25.75-5-26.5-1.25-19.75-1.25-19.75Z" style="fill:#fff;stroke:#263238;stroke-linecap:round;stroke-linejoin:round"></path><circle cx="68.88" cy="321.02" r="18.88" style="fill:#fff;stroke:#263238;stroke-linecap:round;stroke-linejoin:round"></circle><path d="M60.5,283.65s-8.25,10.25-8.75,11.5-8.75,29-8,31.75,3.75,8.75,4.5,10.75,9,6.25,11.75,6.25c1.58,0,3.58-1.16,5-2.15a1.34,1.34,0,0,0-.15-2.29,28.53,28.53,0,0,1-3.09-1.81c-1.75-1.25-3.25-2.5-3.25-2.5s3.5,2.75,3.75.75-2-3.5-2.75-5a27.35,27.35,0,0,0-5-5.5l-3-2s-1-8,1.25-11.75A19.57,19.57,0,0,1,58,305.9l5-7.5,4.75-4Z" style="fill:#fff;stroke:#263238;stroke-linecap:round;stroke-linejoin:round"></path><line x1="58.5" y1="335.15" x2="52" y2="331.65" style="fill:#fff;stroke:#263238;stroke-linecap:round;stroke-linejoin:round"></line><path d="M105.75,248.15l-24.5,8.5L57,284.65l11.25,14.5,17-11.75.5,51.5a101.47,101.47,0,0,0,24,5c13,1,27-5,27-5l2-35.75L156,297.9s-12-33.25-14.25-37.25S119.5,249.4,119.5,249.4,111.25,247.15,105.75,248.15Z" style="fill:#FFC100;stroke:#263238;stroke-linecap:round;stroke-linejoin:round"></path><line x1="138.75" y1="303.15" x2="139.5" y2="269.15" style="fill:#fff;stroke:#263238;stroke-linecap:round;stroke-linejoin:round"></line><line x1="85.25" y1="287.4" x2="82.5" y2="272.65" style="fill:#fff;stroke:#263238;stroke-linecap:round;stroke-linejoin:round"></line><path d="M104.25,238.4s.75,11,.5,13,1,9,6,9.75,9.75-8.25,10.25-9-.5-7.5-.5-7.5Z" style="fill:#fff;stroke:#263238;stroke-linecap:round;stroke-linejoin:round"></path><path d="M121.14,251c0-2.14-.64-6.35-.64-6.35l-16.25-6.25s.1,1.47.21,3.43a20.83,20.83,0,0,0,9.33,7A56.36,56.36,0,0,0,121.14,251Z" style="fill:#263238;stroke:#263238;stroke-linecap:round;stroke-linejoin:round"></path><path d="M127.25,210.15s-2.75-6.25-12.5-8S94.25,204.9,90.5,213.9,95,232.15,95,232.15s8.5,8.25,10.25,10,4,4.25,8.5,4.75,11.25,1.25,13.75,0,3.5-6,4-7,2.5-8.75,1-12.5a16.33,16.33,0,0,0-3.75-5.75S129,214.4,127.25,210.15Z" style="fill:#fff;stroke:#263238;stroke-linecap:round;stroke-linejoin:round"></path><path d="M126.25,212.15a11.24,11.24,0,0,0,1.22-1.41c-.07-.2-.14-.4-.22-.59,0,0-2.75-6.25-12.5-8S94.25,204.9,90.5,213.9,95,232.15,95,232.15L97.91,235a4.06,4.06,0,0,1,1.34-1.33c1.75-1,3.75,2.5,3.75,2.5a3.17,3.17,0,0,0,2-1.75c.75-1.5-2.5-6.25-2.5-6.25a17.73,17.73,0,0,1,3.5-4.75c2.5-2.5,6.75-10,6.75-10l.5,3.75a11.46,11.46,0,0,0,4-1.5c1.25-1,3.5-3,3.5-3l-.5,4A37.64,37.64,0,0,0,126.25,212.15Z" style="fill:#263238;stroke:#263238;stroke-linecap:round;stroke-linejoin:round"></path><path d="M126.75,228.15s4.25,3.25,3,4.75a4.23,4.23,0,0,1-3,1.5" style="fill:none;stroke:#263238;stroke-linecap:round;stroke-linejoin:round"></path><path d="M119.5,237.65a6.49,6.49,0,0,0,7.25,1" style="fill:none;stroke:#263238;stroke-linecap:round;stroke-linejoin:round"></path><path d="M119,228.46c.15.95-.28,1.81-1,1.92s-1.36-.58-1.5-1.54.28-1.81,1-1.92S118.84,227.5,119,228.46Z" style="fill:#263238"></path><path d="M128,225c.15.95-.28,1.81-1,1.92s-1.36-.58-1.5-1.54.28-1.81,1-1.92S127.84,224,128,225Z" style="fill:#263238"></path><path d="M114,225.65a5.22,5.22,0,0,1,4.75-3" style="fill:none;stroke:#263238;stroke-linecap:round;stroke-linejoin:round"></path><path d="M124.25,221.4s2.5-2.25,4-2" style="fill:none;stroke:#263238;stroke-linecap:round;stroke-linejoin:round"></path><path d="M105.75,236.4s-3.25-7-6.75-6.5-3.75,6-.75,9,7,1.25,7,1.25" style="fill:#fff;stroke:#263238;stroke-linecap:round;stroke-linejoin:round"></path></g></svg>