<svg xmlns="http://www.w3.org/2000/svg" viewBox="0 0 500 500"><g id="freepik--background-complete--inject-60"><path d="M238.4,337.8H45.3a5.71,5.71,0,0,1-5.71-5.71V60.66A5.71,5.71,0,0,1,45.3,55H238.4a5.71,5.71,0,0,1,5.71,5.71V332.09A5.71,5.71,0,0,1,238.4,337.8ZM45.3,55.2a5.47,5.47,0,0,0-5.46,5.46V332.09a5.47,5.47,0,0,0,5.46,5.46H238.4a5.47,5.47,0,0,0,5.46-5.46V60.66a5.47,5.47,0,0,0-5.46-5.46Z" style="fill:#ebebeb"></path><path d="M454.7,337.8H261.6a5.71,5.71,0,0,1-5.71-5.71V60.66A5.71,5.71,0,0,1,261.6,55H454.7a5.71,5.71,0,0,1,5.71,5.71V332.09A5.71,5.71,0,0,1,454.7,337.8ZM261.6,55.2a5.47,5.47,0,0,0-5.46,5.46V332.09a5.47,5.47,0,0,0,5.46,5.46H454.7a5.47,5.47,0,0,0,5.46-5.46V60.66a5.47,5.47,0,0,0-5.46-5.46Z" style="fill:#ebebeb"></path><rect x="416.78" y="398.49" width="33.12" height="0.25" style="fill:#ebebeb"></rect><rect x="322.53" y="401.21" width="8.69" height="0.25" style="fill:#ebebeb"></rect><rect x="396.59" y="389.21" width="19.19" height="0.25" style="fill:#ebebeb"></rect><rect x="52.46" y="390.89" width="43.19" height="0.25" style="fill:#ebebeb"></rect><rect x="104.56" y="390.89" width="6.33" height="0.25" style="fill:#ebebeb"></rect><rect y="382.4" width="500" height="0.25" style="fill:#ebebeb"></rect><path d="M395.28,244.46h0c-.06-.82-.15-.77,0-.17-.1-.3-.07.65.06,2.67C395.34,245.76,395.31,245,395.28,244.46ZM70.9,347.51l-.09-1.77A1.5,1.5,0,0,0,70.9,347.51Z" style="fill:#e6e6e6"></path><path d="M435.78,382.26h2.32v0Z" style="fill:#f5f5f5"></path><path d="M300.75,359.88c-1.74,2.73-3.51,5.52-5.41,8.57.12-.32,2.2-5.85,4.35-14C300.08,356.27,300.44,358.07,300.75,359.88Z" style="fill:#fafafa"></path><path d="M303.78,355.09c-.81,4.26-1.47,8.52-1.91,12.78-.29-2.67-.66-5.34-1.12-8C301.76,358.28,302.77,356.7,303.78,355.09Z" style="fill:#fafafa"></path><path d="M423.69,382.29l12.09,0c-4,.05-8.22.16-12.09.18Z" style="fill:#f5f5f5"></path><path d="M451.38,298.53q0-3.31-.15-6.62A56.23,56.23,0,0,1,451.38,298.53Z" style="fill:#f5f5f5"></path><ellipse id="freepik--path--inject-60" cx="250" cy="415.69" rx="193.89" ry="11.32" style="fill:#f5f5f5"></ellipse><rect x="48.41" y="95.78" width="173.02" height="77.66" rx="18.16" transform="translate(269.83 269.23) rotate(180)" style="fill:#e0e0e0"></rect><rect x="57.52" y="96.36" width="173.02" height="77.66" rx="18.16" transform="translate(288.07 270.38) rotate(180)" style="fill:#f5f5f5"></rect><path d="M65.46,103.68H221.59a0,0,0,0,1,0,0V120a12.68,12.68,0,0,1-12.68,12.68H78.14A12.68,12.68,0,0,1,65.46,120V103.68A0,0,0,0,1,65.46,103.68Z" transform="translate(287.05 236.34) rotate(180)" style="fill:#e0e0e0"></path><path d="M78.14,136.58H208.91a12.68,12.68,0,0,1,12.68,12.68v16.29a0,0,0,0,1,0,0H65.46a0,0,0,0,1,0,0V149.26A12.68,12.68,0,0,1,78.14,136.58Z" transform="translate(287.05 302.12) rotate(180)" style="fill:#e0e0e0"></path><rect x="106.93" y="109.29" width="22.13" height="23.56" style="fill:#e6e6e6"></rect><rect x="129.05" y="109.29" width="5.67" height="23.56" style="fill:#f5f5f5"></rect><rect x="101.12" y="105.66" width="16.62" height="27.19" style="fill:#e6e6e6"></rect><rect x="117.74" y="105.66" width="4.81" height="27.19" style="fill:#f5f5f5"></rect><rect x="98.83" y="109.29" width="14.02" height="23.56" style="fill:#ebebeb"></rect><rect x="112.85" y="109.29" width="3.2" height="23.56" style="fill:#f5f5f5"></rect><rect x="82.99" y="113.28" width="18.38" height="19.57" style="fill:#e6e6e6"></rect><rect x="101.38" y="113.28" width="4.71" height="19.57" style="fill:#f5f5f5"></rect><rect x="78.17" y="110.26" width="13.81" height="22.59" style="fill:#e6e6e6"></rect><rect x="91.98" y="110.26" width="3.99" height="22.59" style="fill:#f5f5f5"></rect><rect x="74.5" y="113.28" width="13.41" height="19.57" style="fill:#e6e6e6"></rect><rect x="87.92" y="113.28" width="2.66" height="19.57" style="fill:#f0f0f0"></rect><rect x="175.79" y="141.1" width="22.13" height="23.56" style="fill:#e6e6e6"></rect><rect x="197.92" y="141.1" width="5.67" height="23.56" style="fill:#f5f5f5"></rect><rect x="169.99" y="137.47" width="16.62" height="27.19" style="fill:#e6e6e6"></rect><rect x="186.6" y="137.47" width="4.81" height="27.19" style="fill:#f5f5f5"></rect><rect x="100.29" y="141.1" width="22.13" height="23.56" style="fill:#e6e6e6"></rect><rect x="122.42" y="141.1" width="5.67" height="23.56" style="fill:#f5f5f5"></rect><rect x="94.49" y="137.47" width="16.62" height="27.19" style="fill:#e6e6e6"></rect><rect x="111.11" y="137.47" width="4.81" height="27.19" style="fill:#f5f5f5"></rect><rect x="167.7" y="141.1" width="14.02" height="23.56" style="fill:#ebebeb"></rect><rect x="181.71" y="141.1" width="3.2" height="23.56" style="fill:#f5f5f5"></rect><rect x="151.86" y="145.09" width="18.38" height="19.57" style="fill:#e6e6e6"></rect><rect x="170.24" y="145.09" width="4.71" height="19.57" style="fill:#f5f5f5"></rect><rect x="147.04" y="142.07" width="13.81" height="22.59" style="fill:#e6e6e6"></rect><rect x="160.84" y="142.07" width="3.99" height="22.59" style="fill:#f5f5f5"></rect><rect x="143.36" y="145.09" width="13.41" height="19.57" style="fill:#e6e6e6"></rect><rect x="156.78" y="145.09" width="2.66" height="19.57" style="fill:#f0f0f0"></rect><path d="M176,110a2.37,2.37,0,0,1,2.53-1.26,2.52,2.52,0,0,1,1.88,2.18,2.09,2.09,0,0,1,2.39-.06,2.39,2.39,0,0,1,1,2.32,1.76,1.76,0,0,1,2.56.52,2,2,0,0,1-.79,2.63,1.27,1.27,0,0,1-.06,2.52,1.37,1.37,0,0,1,1.26,1.21,1.42,1.42,0,0,1-1,1.49,1.15,1.15,0,0,1,.28,1.78,1,1,0,0,1-1.64-.52.34.34,0,0,1-.54.08.38.38,0,0,1,.11-.56.63.63,0,0,1-1.09-.28,1.56,1.56,0,0,1-2.11,1.67,1,1,0,0,1-.62,1.28,2.16,2.16,0,0,1-1.53-.3,3.47,3.47,0,0,0-1.5-.5,4.89,4.89,0,0,0-1.33.37,4,4,0,0,1-4.08-1.08,1.74,1.74,0,0,1-2.91-.44,1.33,1.33,0,0,1-1.15,1,1.28,1.28,0,0,1-1.24-.9c0,.25,0,.5,0,.75a1.55,1.55,0,0,1-1.58-2.07,1.57,1.57,0,0,1-1.5-1.37,1.63,1.63,0,0,1,1.12-1.74,3.06,3.06,0,0,1-2.12-2.88,3.1,3.1,0,0,1,2.06-2.93,1.46,1.46,0,0,1,1.39.19.89.89,0,0,1,0,1.33,2.8,2.8,0,0,1,1.2-3.16,2.49,2.49,0,0,1,3.15.67,1.57,1.57,0,0,1,0-1.74,1.37,1.37,0,0,1,1.57-.53,1.59,1.59,0,0,1,1.71-1.3,1.65,1.65,0,0,1,1.28,1.76.8.8,0,0,1,1.45-.27C176.53,109.79,176,110,176,110Z" style="fill:#ebebeb"></path><path d="M175.69,117.57a1.4,1.4,0,0,1,1.08-.26,1,1,0,0,1,.79.74.77.77,0,0,1-.53.89c-.45.11-.9-.27-1.36-.2a4.19,4.19,0,0,0-.47.14,2.32,2.32,0,0,1-1.87-.66,1.9,1.9,0,0,1-.52-.5.69.69,0,0,1-.05-.68.89.89,0,0,1,.9-.29,3.58,3.58,0,0,1,1.84.76l-.06-.31Z" style="fill:#fafafa"></path><path d="M166.09,117a1.78,1.78,0,0,1,.58-.3.58.58,0,0,1,.6.17.61.61,0,0,1-.17.79,1.68,1.68,0,0,1-.84.28c-.31,0-.69.06-.84-.21a.53.53,0,0,1,.14-.61,1.67,1.67,0,0,1,.6-.29Z" style="fill:#fafafa"></path><path d="M181.25,112a2.14,2.14,0,0,1,1.23,1.47c0,.19,0,.44-.14.54a.49.49,0,0,1-.41,0l-1.76-.41a2.31,2.31,0,0,1,.79.42.74.74,0,0,1-.51,1.35,1.79,1.79,0,0,1-1-.39,1.26,1.26,0,0,1-.61-.9c0-.38.47-.73.76-.48a6.88,6.88,0,0,1-1.89-.86,1.76,1.76,0,0,1-.54-.51.74.74,0,0,1-.06-.72c.6-1.09,1.36.51,1.73.65C179.57,112.45,180.36,111.64,181.25,112Z" style="fill:#fafafa"></path><path d="M184,116.67a.59.59,0,0,1-.15.61.38.38,0,0,1-.56-.12,1.93,1.93,0,0,1,1,.59.69.69,0,0,1-.21,1,1,1,0,0,1-.72-.16,13,13,0,0,1-1.82-1.2c.17.4-.24.86-.68.9a2.13,2.13,0,0,1-1.22-.43c-.46-.28-1-.71-.87-1.23a.89.89,0,0,1,1.14-.52,2.51,2.51,0,0,1,1.1.84c-.25-.36.1-.89.54-.95a1.29,1.29,0,0,1,1.09.51c-.48-.27-.59-1,.06-1C183.16,115.45,183.88,116.31,184,116.67Z" style="fill:#fafafa"></path><path d="M170.57,115.1a.71.71,0,1,1,.36,1.36,1,1,0,0,1,.74.39.55.55,0,0,1,.16.43.52.52,0,0,1-.53.4,1.55,1.55,0,0,1-.68-.19,1.18,1.18,0,0,1,.67.2.43.43,0,0,1,.1.62.58.58,0,0,1-.56.06,2.75,2.75,0,0,1-1.15-.65,1.1,1.1,0,0,1-1,.41.66.66,0,0,1-.55-.79.68.68,0,0,1,.59-.43,1.79,1.79,0,0,1,.76.12,1.43,1.43,0,0,1-.61-.68c-.09-.29.11-.69.42-.67s.52.5.8.67C170.47,116,169.83,115.38,170.57,115.1Z" style="fill:#fafafa"></path><path d="M176.83,113.65a1.42,1.42,0,0,1,.51,1.28,1.46,1.46,0,0,1-.75,1.29,1.2,1.2,0,0,1-1.55-.93,1.69,1.69,0,0,1,1-1.7A.94.94,0,0,1,176.83,113.65Z" style="fill:#fafafa"></path><path d="M172.4,113.09l-.16.14a.81.81,0,0,1,1.15-.09.82.82,0,0,1,0,1.16.83.83,0,0,1-1.16-.09,1.19,1.19,0,0,1-1.39-.26.9.9,0,0,1,.19-1.31.74.74,0,0,1,1.07.63l.19-.22Z" style="fill:#fafafa"></path><path d="M167.51,113.88a2.4,2.4,0,0,1,.75,1.06.85.85,0,0,1-.5,1.07c-.42.11-.83-.24-1.07-.6a1.35,1.35,0,0,1-.26-1.12c.13-.37.67-.59.94-.3Z" style="fill:#fafafa"></path><path d="M174.56,111.31a.72.72,0,0,1,1-.28.88.88,0,0,1,.31,1,1.12,1.12,0,0,1-.91.65c-.48,0-1.05-.34-.94-.81a1,1,0,0,1-.92.35,2.44,2.44,0,0,1-1-.36c-.4-.23-.83-.59-.79-1.06a.81.81,0,0,1,.76-.68,1.41,1.41,0,0,1,1,.37,7.1,7.1,0,0,0,.64.59.81.81,0,0,0,.83.12Z" style="fill:#fafafa"></path><polygon points="168.53 132.84 180.66 132.84 181.85 120.62 167.35 120.62 168.53 132.84" style="fill:#f0f0f0"></polygon><polygon points="166.41 121.25 182.91 121.25 183.21 119.63 166.11 119.63 166.41 121.25" style="fill:#fafafa"></polygon><rect x="129.05" y="114.5" width="5.67" height="2.66" style="fill:#fff"></rect><rect x="110.99" y="149.73" width="5.06" height="2.66" style="fill:#fff"></rect><rect x="101.38" y="119.11" width="4.71" height="7.64" style="fill:#fff"></rect><rect x="198.4" y="151.56" width="4.71" height="4.17" style="fill:#fff"></rect><rect x="123.39" y="127.79" width="5.67" height="2.66" style="fill:#fff"></rect><rect x="122.42" y="145.98" width="5.67" height="13.23" style="fill:#fff"></rect><rect x="170.24" y="148.26" width="4.71" height="13.23" style="fill:#fff"></rect><rect x="88.35" y="114.77" width="1.79" height="16.59" style="fill:#fff"></rect><rect x="271.3" y="102.19" width="169.99" height="176.8" style="fill:#e0e0e0"></rect><path d="M443.52,279.31v29.45h-7c-14.45,0-35.42-.21-56.62-1-7.22-.26-14.48-.59-21.51-1l-6.05-.38-1-.07-6.07-.44c-16.56-1.31-30.72-3.2-38.62-5.91h0l-.84-.3-.65-.26-.7-.28-.66-.31-.58-.29c-.2-.1-.37-.21-.55-.31s-.35-.21-.5-.31l-.47-.32c-.17-.13-.34-.27-.49-.41l-.26-.25q-.17-.17-.3-.33a3.66,3.66,0,0,1-.44-.7,2.13,2.13,0,0,1-.14-.35,2.09,2.09,0,0,1-.08-.34,2.55,2.55,0,0,1,.16-1.4c0-.08.07-.16.12-.25a4.5,4.5,0,0,1,.23-.43l.13-.18a4.58,4.58,0,0,1,.35-.45,11.51,11.51,0,0,1,2.29-2s.36-.14,1.16-.39l.61-.19c.77-.23,1.81-.52,3.14-.86h0l.56-.14.6-.14c.82-.21,1.74-.42,2.74-.65l1.58-.33,1.2-.25q1.59-.33,3.42-.66l1-.19c.64-.12,1.31-.24,2-.35,1.19-.22,2.46-.43,3.79-.63.85-.14,1.71-.27,2.62-.4h0l1.77-.26c2.44-.36,5.07-.71,7.93-1.05l1.57-.2c2-.23,4.09-.47,6.27-.7l1.47-.15,2.11-.21c.82-.08,1.65-.17,2.49-.24l1-.1q2.93-.27,6.05-.52l.36,0,2.11-.17c2.51-.2,5.11-.39,7.82-.57h0l1.62-.11,2.19-.14,2-.12,1.93-.11,4.14-.23q5.83-.31,12.23-.57l5.36-.19c1.29-.05,2.61-.1,3.94-.13l2-.06,3.17-.09,3-.08,3.87-.08c3.69-.08,7.51-.14,11.44-.18l4.54-.05,1.81,0,4.63.11Z" style="fill:#fafafa"></path><path d="M443.52,263.19v26.75l-7-.16-6.93-.16c-3.69,0-7.28.07-10.78.13l-3.46.06q-7.65.15-14.69.38c-1.08,0-2.15.06-3.22.1l-3.15.12c-.8,0-1.58,0-2.37.09l-3.7.15-3.39.16-3.29.16-2.15.11-1.69.09q-4.23.24-8.14.5l-2.34.15-2.28.16-3.78.28-1.17.1c-.52,0-1,.07-1.53.12h-.07l-3.46.3c-.46,0-.91.08-1.35.12l-1.24.11-.75.06-.16,0h-.06l-.42,0c-.43,0-.86.08-1.28.12l-1.13.11h0l-2.56.26-.64.07-.7.07-2.06.22-5.67.66-2.06.26-1.89.25-1.83.25-1.67.23-2.31.34-.93.14c-4,.6-7.32,1.2-10.17,1.74l-1.28.26c-.77.15-1.5.31-2.19.46l-1.56.34-1.13.26-.88.21c-.45.1-.86.21-1.24.31l-1.06.27h0c-2.7.72-3.87,1.17-3.87,1.17-4.79,3.27-4.47,4.65-.12,6.63h0c.54.24,1.14.5,1.81.77l-29.91,0h-8.31V250.83l.89.23a39.19,39.19,0,0,1,7.42,3.05c7.09,3.62,14.21,8.63,29.37,11.1,6.23,1,12.24-1.92,17.55-4.47s11.92-5,17.8-3.22a15.56,15.56,0,0,1,6,3.62c2,1.79,3.75,3.79,6.06,5.28l.06,0a9.09,9.09,0,0,0,.91.54,13.45,13.45,0,0,0,1.92.86,14.84,14.84,0,0,0,4.13.82h.07c9.2.56,19.24-6.1,28.9-4.47,4.66.79,8.14,3.33,11.72,5.75h0c1.05.71,2.11,1.41,3.21,2.06a20.36,20.36,0,0,0,7.21,2.71c2.79.44,8.25-1.8,13.27-4.08h0c3.77-1.73,7.27-3.48,9.2-4.16,1.5-.53,3-1.08,4.53-1.58A36.44,36.44,0,0,1,443.52,263.19Z" style="fill:#ebebeb"></path><path d="M436.49,279.15l7,.16v10.63l-7-.17-6.93-.16q-5.54,0-10.78.14l-3.46.06q-7.65.15-14.69.37l-3.22.11-3.15.11-2.37.09-3.7.16-3.39.15-3.28.17-2.16.11c-.57,0-1.13.05-1.69.09-2.82.15-5.53.32-8.14.49l-2.34.16-2.28.16-3.78.28-1.17.09-1.6.13-3.46.3c-.45,0-.91.07-1.35.12l-1.24.1c-.32,0-.65.06-1,.09l-.43,0-1.28.12-1.13.12h0l-2.56.26-.64.06-2.75.3q-3,.33-5.67.66l-2.07.26-1.89.25c-.62.07-1.23.16-1.83.24l-1.67.24-2.31.33-.92.14c-4,.61-7.33,1.2-10.18,1.75l-1.28.26-2.19.45-1.56.35-1.13.26-.88.21-1.24.3-1,.28h0l-.84-.3-.65-.26-.7-.28-.66-.31-.58-.29c-.2-.1-.37-.21-.55-.31s-.35-.21-.5-.31l-.47-.32c-.17-.13-.34-.27-.49-.41l-.26-.25q-.17-.17-.3-.33a3.66,3.66,0,0,1-.44-.7,2.13,2.13,0,0,1-.14-.35,2.09,2.09,0,0,1-.08-.34,2.55,2.55,0,0,1,.16-1.4c0-.08.07-.16.12-.25a4.5,4.5,0,0,1,.23-.43l.13-.18a4.58,4.58,0,0,1,.35-.45,11.51,11.51,0,0,1,2.29-2s.36-.14,1.16-.39l.61-.19c.77-.23,1.81-.52,3.14-.86h0l.56-.14.6-.14c.82-.21,1.74-.42,2.74-.65l1.58-.33,1.2-.25q1.59-.33,3.42-.66l1-.19c.64-.12,1.31-.24,2-.35,1.19-.22,2.46-.43,3.79-.63.85-.14,1.71-.27,2.62-.4h0l1.77-.26c2.44-.36,5.07-.71,7.93-1.05l1.57-.2c2-.23,4.09-.47,6.27-.7l1.47-.15,2.11-.21c.82-.08,1.65-.17,2.49-.24l1-.1q2.93-.27,6.05-.52l.36,0,2.11-.17c2.51-.2,5.11-.39,7.82-.57h0l1.62-.11,2.19-.14,2-.12,1.93-.11,4.14-.23q5.83-.31,12.23-.57l5.36-.19c1.29-.05,2.61-.1,3.94-.13l2-.06,3.17-.09,3-.08,3.87-.08c3.69-.08,7.51-.14,11.44-.18l4.54-.05,1.81,0Z" style="fill:#fafafa"></path><path d="M266.26,308.66h8.31l70.71.06h13.15l78.06.07h7v-5.16c-2-.47-4.34-.92-7-1.33q-3.27-.48-7.28-.84c-14.94-1.32-41.94-4.06-70.78-7.09h-.07l-6.05-.64-.91-.09h-.06l-2.83-.3h0l-3.2-.34c-12.59-1.32-25.23-2.67-37.11-3.94h0l-33.59-3.62-7.42-.81-.89-.09v24.09Z" style="fill:#f0f0f0"></path><path d="M443.52,257.15v28c-2,.17-4.36.31-7,.39-1.15,0-2.36.06-3.64.06-4.43,0-9.64-.11-15.77-.5h-.14c-6.52-.4-14.09-1.08-22.85-2.13l-.28,0c-4.72-.57-9.79-1.24-15.24-2,0,0,.69-.12,1.93-.41A93.31,93.31,0,0,0,402.27,272a84.22,84.22,0,0,0,18.42-13.3,25,25,0,0,1,3.07-2.52l.24-.15c.35-.23.7-.45,1-.64a16.67,16.67,0,0,1,1.56-.81,14.37,14.37,0,0,1,9.89-.85A21.59,21.59,0,0,1,443.52,257.15Z" style="fill:#ebebeb"></path><path d="M416.94,285h0c6.34-3,10.94-7.5,12.93-12.74l.68-1.81,2.31,15.14S423.69,285.62,416.94,285Z" style="fill:#fafafa"></path><path d="M426.6,254.59s-3.35,3.56,1.71,3.21c2.07-.15-.16,4.37-3.52,9.77-6.77,10.89-14.78,17-30.7,15.34-5.74-.6-25.44-1.77-25.44-1.77h0A195.25,195.25,0,0,0,424,256.05a14.72,14.72,0,0,1,2.1-1.17Z" style="fill:#fafafa"></path><rect x="354.2" y="103.96" width="85.03" height="5.15" style="fill:#fafafa"></rect><rect x="358.14" y="307.77" width="85.03" height="5.15" style="fill:#fafafa"></rect><path d="M351.4,109.11V282.52l.91-.08c1.95-.19,4-.36,6.05-.53V109.11Zm-.06-10.17V317.31h92.18V98.94Zm85.15,213.34H358.36V104h78.13ZM351.4,109.11V282.52l.91-.08c1.95-.19,4-.36,6.05-.53V109.11Z" style="fill:#f5f5f5"></path><rect x="269.88" y="103.96" width="85.03" height="5.15" style="fill:#fafafa"></rect><rect x="266.93" y="307.77" width="85.03" height="5.15" style="fill:#fafafa"></rect><path d="M266.26,98.94V317.31h92.17V98.94Zm8.31,214V104.63l76.77-.67h.06V312.28h-.06l-72.72.64Z" style="fill:#f5f5f5"></path><rect x="271.86" y="101.51" width="1.72" height="134.47" style="fill:#e0e0e0"></rect><rect x="436.13" y="101.51" width="1.72" height="134.47" style="fill:#e0e0e0"></rect><polygon points="444.6 109.97 265.1 109.97 262.51 103.93 447.19 103.93 444.6 109.97" style="fill:#ebebeb"></polygon><polygon points="444.6 118.25 265.1 118.25 262.51 112.22 447.19 112.22 444.6 118.25" style="fill:#ebebeb"></polygon><polygon points="444.6 126.54 265.1 126.54 262.51 120.5 447.19 120.5 444.6 126.54" style="fill:#ebebeb"></polygon><polygon points="444.6 134.83 265.1 134.83 262.51 128.79 447.19 128.79 444.6 134.83" style="fill:#ebebeb"></polygon><polygon points="444.6 143.11 265.1 143.11 262.51 137.08 447.19 137.08 444.6 143.11" style="fill:#ebebeb"></polygon><polygon points="444.6 151.4 265.1 151.4 262.51 145.36 447.19 145.36 444.6 151.4" style="fill:#ebebeb"></polygon><polygon points="444.6 159.69 265.1 159.69 262.51 153.65 447.19 153.65 444.6 159.69" style="fill:#ebebeb"></polygon><polygon points="444.6 167.97 265.1 167.97 262.51 161.94 447.19 161.94 444.6 167.97" style="fill:#ebebeb"></polygon><polygon points="444.6 176.26 265.1 176.26 262.51 170.22 447.19 170.22 444.6 176.26" style="fill:#ebebeb"></polygon><polygon points="444.6 184.54 265.1 184.54 262.51 178.51 447.19 178.51 444.6 184.54" style="fill:#ebebeb"></polygon><polygon points="444.6 192.83 265.1 192.83 262.51 186.8 447.19 186.8 444.6 192.83" style="fill:#ebebeb"></polygon><polygon points="444.6 201.12 265.1 201.12 262.51 195.08 447.19 195.08 444.6 201.12" style="fill:#ebebeb"></polygon><polygon points="444.6 209.4 265.1 209.4 262.51 203.37 447.19 203.37 444.6 209.4" style="fill:#ebebeb"></polygon><polygon points="444.6 217.69 265.1 217.69 262.51 211.66 447.19 211.66 444.6 217.69" style="fill:#ebebeb"></polygon><polygon points="444.6 225.98 265.1 225.98 262.51 219.94 447.19 219.94 444.6 225.98" style="fill:#ebebeb"></polygon><polygon points="444.6 234.26 265.1 234.26 262.51 228.23 447.19 228.23 444.6 234.26" style="fill:#ebebeb"></polygon><rect x="262.51" y="234.26" width="184.68" height="3.45" style="fill:#e0e0e0"></rect><rect x="258.06" y="96.37" width="193.59" height="8.05" style="fill:#e0e0e0"></rect><path d="M259.46,177.38h0a1.39,1.39,0,0,1-1.39-1.39V129.06a1.39,1.39,0,0,1,1.39-1.39h0a1.39,1.39,0,0,1,1.39,1.39V176A1.39,1.39,0,0,1,259.46,177.38Z" style="fill:#e0e0e0"></path><rect x="258.96" y="102.81" width="1.01" height="27.88" style="fill:#e0e0e0"></rect></g><g id="freepik--Character--inject-60"><path d="M195.54,415.69h0a2.63,2.63,0,0,0,2.74-2.12l10.59-56.29H190.45l.32,53.82A5,5,0,0,0,195.54,415.69Z" style="fill:#263238"></path><path d="M195.54,415.69h0a2.63,2.63,0,0,0,2.74-2.12l10.59-56.29H190.45l.32,53.82A5,5,0,0,0,195.54,415.69Z" style="fill:#fff;opacity:0.2"></path><path d="M130,415.69h0a2.62,2.62,0,0,0,2.74-2.12l10.59-56.29H124.86l.32,53.82A5,5,0,0,0,130,415.69Z" style="fill:#263238"></path><path d="M130.55,332.83c1.81-10.05,20.8-24.66,58.58-20.35,12.42,1.42,24.84,10.65,32.63,20.43C218,335.54,155.73,342.11,130.55,332.83Z" style="fill:#263238"></path><path d="M130.55,332.83c1.81-10.05,20.8-24.66,58.58-20.35,12.42,1.42,24.84,10.65,32.63,20.43C218,335.54,155.73,342.11,130.55,332.83Z" style="fill:#fff;opacity:0.8"></path><path d="M373.67,415.69h0a2.61,2.61,0,0,1-2.73-2.12l-10.6-56.29h18.43l-.32,53.82A5,5,0,0,1,373.67,415.69Z" style="fill:#263238"></path><path d="M439.26,415.69h0a2.61,2.61,0,0,1-2.73-2.12l-10.6-56.29h18.43L444,411.1A5,5,0,0,1,439.26,415.69Z" style="fill:#263238"></path><path d="M439.26,415.69h0a2.61,2.61,0,0,1-2.73-2.12l-10.6-56.29h18.43L444,411.1A5,5,0,0,1,439.26,415.69Z" style="fill:#fff;opacity:0.2"></path><rect x="109.62" y="333.44" width="293.89" height="37.86" rx="13.36" style="fill:#263238"></rect><rect x="109.62" y="333.44" width="293.89" height="37.86" rx="13.36" style="fill:#fff;opacity:0.7000000000000001"></rect><rect x="347.08" y="333.44" width="107.48" height="37.86" rx="13.65" style="fill:#FFC100"></rect><rect x="347.08" y="333.44" width="107.48" height="37.86" rx="13.65" style="fill:#fff;opacity:0.30000000000000004"></rect><path d="M456.06,387.65c-14.77-9-23,.38-26.44.72-6.31.64-12.13-2.92-18.47-3.27-9.59-.51-18,6.36-27.63,5.74-5.58-.37-10.59-3.25-16.19-3.29-7-.07-13.74,4.28-20.28,3.72-6.54.56-13.34-3.79-20.31-3.72-5.58,0-10.6,3.71-16.17,4.08-9.58.62-18-4.68-27.63-4.17-6.34.35-12.16,3.92-18.47,3.28-3.45-.35-15.34-4.4-19.45,1.42-.59-12.84-.15-29.84,6.61-41.49s12.56-19.39,37.92-19.28l62.54.9,48,.7H401l41.49.52c7,1.21,10.75,4.45,12.08,13.56C456.06,357.37,452.05,360.49,456.06,387.65Z" style="fill:#263238"></path><path d="M456.06,387.65c-14.77-9-23,.38-26.44.72-6.31.64-12.13-2.92-18.47-3.27-9.59-.51-18,6.36-27.63,5.74-5.58-.37-10.59-3.25-16.19-3.29-7-.07-13.74,4.28-20.28,3.72a12.46,12.46,0,0,0,2.71-.52c-.74-11.43-1.58-23.58-2-35-.18-4.49-.77-10,.67-14.31,2.31-7,8.45-7.93,17-8.32,6-.26,26.62-.19,35.57-.09l41.49.53c7.06,1.2,10.75,4.44,12.09,13.55C456.06,357.37,452.05,360.49,456.06,387.65Z" style="opacity:0.2"></path><path d="M219.27,225.44c-.45-5.29-.84-10.63-1.2-15.94s-.68-10.66-1.15-15.76l0-.24v-.08a.31.31,0,0,0,0-.13,2.56,2.56,0,0,0-.08-.4,8.1,8.1,0,0,0-.46-1.12,18.19,18.19,0,0,0-1.7-2.69,54.33,54.33,0,0,0-4.88-5.51c-3.59-3.6-7.59-7.12-11.57-10.47l3-4.73a89.28,89.28,0,0,1,14.18,8.77,53.06,53.06,0,0,1,6.52,5.81,27.27,27.27,0,0,1,3,3.82,15.29,15.29,0,0,1,1.31,2.49,12.3,12.3,0,0,1,.53,1.52c.08.27.15.55.21.85l.12.67c.49,2.78.89,5.47,1.23,8.17s.68,5.38,1,8.06c.57,5.38,1,10.73,1.31,16.13Z" style="fill:#ffb573"></path><path d="M231.2,234.92c3.51-7.37,2.25-19.45,2.25-19.45l-15.7-5.74a54.66,54.66,0,0,0-.3,17.54C219,237.25,227.67,242.36,231.2,234.92Z" style="fill:#FFC100"></path><path d="M231.2,234.92c3.51-7.37,2.25-19.45,2.25-19.45l-15.7-5.74a54.66,54.66,0,0,0-.3,17.54C219,237.25,227.67,242.36,231.2,234.92Z" style="opacity:0.6000000000000001"></path><path d="M199.41,173.69l-5.1-1.17c-2.68-.61-5.77-6.34-5.68-7.55l.36-.84c2-3.22,3.48-4.51,6-1.83a18.76,18.76,0,0,0,2.59,2.41,18.77,18.77,0,0,1,4.58,4.32Z" style="fill:#ffb573"></path><path d="M227.48,227.24s13.51,21.19,13.43,65.63l-40.67,8c-1.51-6.19-5-37.86-21.55-65.8,0,0,12.82-2.61,19.39-4.24a152.74,152.74,0,0,1,17.29-3.42A77.79,77.79,0,0,1,227.48,227.24Z" style="fill:#FFC100"></path><path d="M227.48,227.24s13.51,21.19,13.43,65.63l-40.67,8c-1.51-6.19-5-37.86-21.55-65.8,0,0,12.82-2.61,19.39-4.24a152.74,152.74,0,0,1,17.29-3.42A77.79,77.79,0,0,1,227.48,227.24Z" style="opacity:0.6000000000000001"></path><path d="M185.56,238.34l-4.12-8.68c-1.43-3-2.79-6.06-4-9.21a92.26,92.26,0,0,1-3.13-9.74A47.36,47.36,0,0,1,172.8,200v-.66l.16-.61a5.8,5.8,0,0,1,.91-2,6.64,6.64,0,0,1,.94-1,7.48,7.48,0,0,1,1.37-1A10.79,10.79,0,0,1,178,194a27.5,27.5,0,0,1,2.75-.74c1.69-.36,3.27-.6,4.84-.81,3.14-.41,6.2-.66,9.26-.9s6.09-.43,9.13-.59,6-.33,9.13-.44l.25,10c-2.93.06-5.93.15-8.88.28s-5.93.33-8.87.56-5.85.54-8.67.93c-1.41.21-2.8.44-4,.72a13.2,13.2,0,0,0-1.6.45c-.18.06-.33.14-.25.11a2.54,2.54,0,0,0,.44-.32,3.78,3.78,0,0,0,.55-.62,4.12,4.12,0,0,0,.68-1.47l.14-1.27a37.83,37.83,0,0,0,1.4,8.23,70,70,0,0,0,3,8.43c1.18,2.79,2.49,5.53,3.93,8.26l4.52,8.45Z" style="fill:#ffb573"></path><path d="M209.75,196.57l2.39,4.66a4.75,4.75,0,0,0,6.68,1.88h0a4.74,4.74,0,0,0-.2-8.22,23.06,23.06,0,0,0-5-2.11Z" style="fill:#ffb573"></path><path d="M181.45,240c-5.95-8.41-6.49-14.49-6.49-14.49l12.63-11.63s5.07,9.75,8,17.53C199.23,240.81,186.05,246.51,181.45,240Z" style="fill:#FFC100"></path><path d="M181.45,240c-5.95-8.41-6.49-14.49-6.49-14.49l12.63-11.63s5.07,9.75,8,17.53C199.23,240.81,186.05,246.51,181.45,240Z" style="opacity:0.6000000000000001"></path><path d="M196,211.05c2.19,5.35,5.29,15.33,2.13,19.81a50.45,50.45,0,0,1,9.83,3.15,5.5,5.5,0,0,0,7.49-6.48l0-.09c-6.49-.25-7.24-4.89-7-9.42Z" style="fill:#ffb573"></path><path d="M201,213.9l7.34,4.12a17.57,17.57,0,0,0,.07,3.17c-2.44.12-6.2-1.83-6.95-4.27A8.38,8.38,0,0,1,201,213.9Z" style="opacity:0.2"></path><path d="M210,188.22c6.2,1.29,6.46,14.73,4.15,16.52C209.79,208.1,202.28,186.62,210,188.22Z" style="fill:#263238"></path><path d="M193.64,202.81c2,7.44,2.71,11.9,7.28,15,6.87,4.69,15.48-.6,15.8-8.47.28-7.09-3-18.06-10.92-19.6A10.48,10.48,0,0,0,193.64,202.81Z" style="fill:#ffb573"></path><path d="M186.37,198.1c.68,4.47,8,15.28,11.12,14.37s2.62-8.47-.19-14.37Z" style="fill:#263238"></path><path d="M189.47,189.66a2.61,2.61,0,0,1,0-3,4.1,4.1,0,0,1,2.76-1.57,10.68,10.68,0,0,1,3.24.11c.67.1,1.51.14,1.86-.44a2.65,2.65,0,0,0,.15-1.26,3,3,0,0,1,2.53-2.59,4.83,4.83,0,0,1,3.64,1.11,15.23,15.23,0,0,1,2.72,3,2,2,0,0,1,1.92-.24,4.43,4.43,0,0,1,1.63,1.19,7.56,7.56,0,0,1,2.08,3.76v0a3.59,3.59,0,0,1-3.09,4.05,14.7,14.7,0,0,0-4.13,1.44,47.32,47.32,0,0,1-5.66,2.71,26.83,26.83,0,0,1-8.76.92,8.54,8.54,0,0,1-4.23-.75,4.48,4.48,0,0,1-1.86-5.34A5.22,5.22,0,0,1,189.47,189.66Z" style="fill:#263238"></path><path d="M191.88,211.79a7.28,7.28,0,0,0,5.09,2.28c2.56.06,3.21-2.39,2-4.48-1.12-1.87-3.8-4.17-6.12-3.22S190.26,210.05,191.88,211.79Z" style="fill:#ffb573"></path><path d="M210.67,212c.12.62.54,1.05.94,1s.63-.64.51-1.25-.54-1-.94-1S210.55,211.4,210.67,212Z" style="fill:#263238"></path><path d="M212.41,201.29c.12.62.54,1.05,1,1s.62-.64.5-1.25-.54-1-.94-1S212.29,200.68,212.41,201.29Z" style="fill:#263238"></path><path d="M210.27,202a22.28,22.28,0,0,0,4,4.66,3.59,3.59,0,0,1-2.82,1.13Z" style="fill:#ed893e"></path><path d="M203.78,202.25a.2.2,0,0,0-.11.22.2.2,0,0,0,.23.13c2.65-.68,3.71.63,3.73.64a.18.18,0,0,0,.26,0,.19.19,0,0,0,0-.26c-.08-.07-1.23-1.46-4.08-.73Z" style="fill:#263238"></path><path d="M203,200.83a.41.41,0,0,0,.22-.19,2.91,2.91,0,0,1,2.07-1.66.36.36,0,0,0,.31-.41.36.36,0,0,0-.4-.32,3.64,3.64,0,0,0-2.64,2.07.37.37,0,0,0,.44.51Z" style="fill:#263238"></path><path d="M215.17,198.05a.31.31,0,0,0,.09-.07.37.37,0,0,0,0-.52,3.61,3.61,0,0,0-3.2-1,.36.36,0,0,0-.27.44.37.37,0,0,0,.44.27,2.94,2.94,0,0,1,2.53.82A.36.36,0,0,0,215.17,198.05Z" style="fill:#263238"></path><path d="M281.12,307.14s3.61,13.23-.16,19.14-13.08,4.77-13.08,4.77S258.52,310.24,281.12,307.14Z" style="fill:#263238"></path><path d="M281.12,307.14s3.61,13.23-.16,19.14-13.08,4.77-13.08,4.77S258.52,310.24,281.12,307.14Z" style="fill:#FFC100"></path><path d="M281.12,307.14s3.61,13.23-.16,19.14-13.08,4.77-13.08,4.77S258.52,310.24,281.12,307.14Z" style="opacity:0.4"></path><path d="M238.37,319,275,327.15l9.16,2,4.57,1,1.14.25.57.1a7.39,7.39,0,0,1,.88.27,6.6,6.6,0,0,1,.89.43c.77.52,1.54,1,2.28,1.46,1.47.91,2.82,1.68,3.77,2.35.4.26,1.09.78,1.71,1.24s1.26.94,1.88,1.42c1.24,1,2.46,2,3.69,2.93,2.44,2,5,3.85,7.58,5.57l7.84,5.11c5.21,3.42,10.48,6.77,15.72,10.15q15.76,10.08,31.77,19.83l5.39-7.48Q359.57,361.7,345,350c-4.86-3.9-9.69-7.83-14.58-11.7l-7.31-5.81c-2.41-1.95-4.89-3.77-7.47-5.48-1.27-.87-2.56-1.71-3.83-2.6-.63-.44-1.26-.89-1.88-1.35l-.94-.68-.51-.4-.6-.44c-1.58-1.14-2.89-2-4-2.84-.56-.41-1.07-.81-1.55-1.21a23.7,23.7,0,0,0-3.07-2,22.85,22.85,0,0,0-3.42-1.53l-.9-.3-.77-.23-1.12-.36-4.43-1.46-8.86-2.91L244.42,297Z" style="fill:#ffb573"></path><path d="M241.32,296l38.77,11.72-.33.31c-7.61,1-12.55,15.5-11.19,22.88h0s-26.82,2.42-34.7-5.74-10.5-27.11-10.5-27.11Z" style="fill:#263238"></path><path d="M241.32,296l38.77,11.72-.33.31c-7.61,1-12.55,15.5-11.19,22.88h0s-26.82,2.42-34.7-5.74-10.5-27.11-10.5-27.11Z" style="fill:#FFC100"></path><path d="M241.32,296l38.77,11.72-.33.31c-7.61,1-12.55,15.5-11.19,22.88h0s-26.82,2.42-34.7-5.74-10.5-27.11-10.5-27.11Z" style="opacity:0.1"></path><path d="M276.12,305.07l5.16,2.25c-5.89,5.65-9,9.61-9.64,17.57a17.78,17.78,0,0,0,.95,7.87s-2.65-.27-6.19-.57l-.28-4.23q0-.63-.06-1.26a27.44,27.44,0,0,1,8.46-20.06Z" style="fill:#FFC100"></path><g style="opacity:0.2"><path d="M276.12,305.07l5.16,2.25c-5.89,5.65-9,9.61-9.64,17.57a17.78,17.78,0,0,0,.95,7.87s-2.65-.27-6.19-.57l-.28-4.23q0-.63-.06-1.26a27.44,27.44,0,0,1,8.46-20.06Z" style="fill:#fff"></path></g><path d="M200,303.47l42.18-7.17-.64-5.85h0c-10.93,3.26-25.53,5-30.89,5.55l-11.31,1.08Z" style="fill:#FFC100"></path><path d="M200,303.47l42.18-7.17-.64-5.85h0c-10.93,3.26-25.53,5-30.89,5.55l-11.31,1.08Z" style="fill:#fff;opacity:0.2"></path><path d="M268.21,315.63s3,12.27-.78,18.18-7.91,7.26-7.91,7.26S245.6,318.73,268.21,315.63Z" style="fill:#263238"></path><path d="M268.21,315.63s3,12.27-.78,18.18-7.91,7.26-7.91,7.26S245.6,318.73,268.21,315.63Z" style="fill:#FFC100"></path><path d="M268.21,315.63s3,12.27-.78,18.18-7.91,7.26-7.91,7.26S245.6,318.73,268.21,315.63Z" style="opacity:0.4"></path><path d="M211.93,329.29l37.49,7,18.74,3.53,1.93.34q.69.14,1.38.33a10.16,10.16,0,0,1,2.61,1.16c.21.14.39.26.61.43l.17.12.23.18.47.37c.62.5,1.25,1,1.86,1.49,1.23,1,2.42,2.06,3.62,3.11a88.65,88.65,0,0,0,7.4,6c2.61,1.82,5.27,3.55,7.9,5.32,5.27,3.55,10.6,7,15.92,10.5,10.68,6.9,21.41,13.74,32.43,20.19l5.72-7.5c-9.16-8.91-18.61-17.43-28.1-25.9-4.77-4.2-9.53-8.41-14.35-12.54-2.42-2.07-4.8-4.18-7.23-6.2a89.63,89.63,0,0,0-7.74-5.51c-1.32-.87-2.65-1.74-3.94-2.65-.66-.44-1.28-.93-1.93-1.39l-1-.76c-.41-.32-.87-.66-1.32-1a41,41,0,0,0-5.73-3.38,30.94,30.94,0,0,0-3.08-1.31l-2.66-.91-18-6.21-36.06-12.42Z" style="fill:#ffb573"></path><path d="M348.45,381.54l-5.58,5.92a.79.79,0,0,0-.12,1l4.36,7a1.34,1.34,0,0,0,2.08.22c2.49-2.53,3.58-3.89,6.78-7,2-1.93,7.38-7.29,10.1-10s.43-5.69-.92-4.84c-6,3.79-12.26,6.93-15.26,7.06A2.16,2.16,0,0,0,348.45,381.54Z" style="fill:#ffb573"></path><path d="M373.09,373.86l-5.58,5.93a.8.8,0,0,0-.12,1l4.36,7a1.33,1.33,0,0,0,2.08.22c2.49-2.53,3.58-3.88,6.78-7,2-1.93,7.38-7.29,10.1-10s.44-5.7-.91-4.85c-6.06,3.8-12.27,6.93-15.27,7.06A2.23,2.23,0,0,0,373.09,373.86Z" style="fill:#ffb573"></path><path d="M261.5,313.55l4.92,1.85h0a21.8,21.8,0,0,0-9,17.55,20.79,20.79,0,0,0,1.28,7.37h0s-46.89-3.09-54.77-11.25-4-25.6-4-25.6l28.64-4.87,2.58,2.71c6.65,5,11.67,6.42,19.64,8.79Z" style="fill:#FFC100"></path><path d="M263.05,313.38l5.16,2.25c-5.89,5.65-9,9.61-9.64,17.57a17.8,17.8,0,0,0,.95,7.87s-2.66-.27-6.2-.58l-.28-4.23c0-.42,0-.83,0-1.25A27.44,27.44,0,0,1,261.45,315Z" style="fill:#FFC100"></path><g style="opacity:0.4"><path d="M263.05,313.38l5.16,2.25c-5.89,5.65-9,9.61-9.64,17.57a17.8,17.8,0,0,0,.95,7.87s-2.66-.27-6.2-.58l-.28-4.23c0-.42,0-.83,0-1.25A27.44,27.44,0,0,1,261.45,315Z" style="fill:#fff"></path></g></g><g id="freepik--Nightstand--inject-60"><path d="M68.73,367.12v43.57H59.37V367.12h9.36m5-5H54.37v48.65a4.91,4.91,0,0,0,4.91,4.92h9.53a4.92,4.92,0,0,0,4.92-4.92V362.12Z" style="fill:#FFC100"></path><path d="M124.87,367.12v43.57h-9.36V367.12h9.36m5-5H110.51v49.1a4.48,4.48,0,0,0,4.48,4.47H125.4a4.47,4.47,0,0,0,4.47-4.47v-49.1Z" style="fill:#FFC100"></path><path d="M131.14,320.33v45.92c0,2.89-1.36,5.23-3,5.23H56c-1.67,0-3-2.34-3-5.23V320.33c0-2.89,1.36-5.24,3-5.24H128.1C129.78,315.09,131.14,317.44,131.14,320.33Z" style="fill:#FFC100"></path><path d="M131.14,320.33v45.92c0,2.89-1.36,5.23-3,5.23H56c-1.67,0-3-2.34-3-5.23V320.33c0-2.89,1.36-5.24,3-5.24H128.1C129.78,315.09,131.14,317.44,131.14,320.33Z" style="fill:#fff;opacity:0.2"></path><path d="M131.14,320.33v45.92c0,2.89-1.16,5.23-2.58,5.23H75.25c-1.13,0-2-1.86-2-4.16V319.25c0-2.3.92-4.16,2-4.16h53.31C130,315.09,131.14,317.44,131.14,320.33Z" style="fill:#fff;opacity:0.2"></path><rect x="78.17" y="320.39" width="48.05" height="17.16" rx="3.91" style="fill:#fff;opacity:0.30000000000000004"></rect><path d="M83.09,340.83h38.22a4.91,4.91,0,0,1,4.91,4.91V363a4.91,4.91,0,0,1-4.91,4.91H83.09A4.92,4.92,0,0,1,78.17,363V345.74A4.92,4.92,0,0,1,83.09,340.83Z" style="fill:#fff;opacity:0.30000000000000004"></path><polygon points="107.42 324.09 99.31 324.09 98.24 321.12 108.49 321.12 107.42 324.09" style="fill:#fff"></polygon><polygon points="107.42 343.61 99.31 343.61 98.24 340.63 108.49 340.63 107.42 343.61" style="fill:#fff"></polygon></g><g id="freepik--Toys--inject-60"><path d="M103.43,276.25a3.36,3.36,0,1,0,3.41-3.31A3.37,3.37,0,0,0,103.43,276.25Z" style="fill:#FFC100"></path><path d="M103.43,276.25a3.36,3.36,0,1,0,3.41-3.31A3.37,3.37,0,0,0,103.43,276.25Z" style="fill:#fff;opacity:0.2"></path><path d="M97.2,277.15s0,2,1.11,1.86c0,0,1.76,3.07,4.29,3.48l-.06,4.86a2.87,2.87,0,0,0,.48,2.13,37.23,37.23,0,0,1-1.39,5.26c-.39,1-.77,2-1,2.6-.7,1.55-.51,1.72-.51,1.72.64.5,4.24.2,4.24.2.4-1.09-1.53-1.26-1.53-1.26l1.42-2.61v0a15.52,15.52,0,0,0,1.68-4.85h1.29a1.77,1.77,0,0,0,.23,0c1.18,3-.36,7.42-.36,7.42a2,2,0,0,0,2.8-.67s.24-1.24.33-1.65a9.71,9.71,0,0,0-.3-6.27,2.84,2.84,0,0,0,.47-1.91l.06-4.95c2.32-.59,4-3.28,4-3.28,1.08.19,1.16-1.84,1.16-1.84-.5-3-2.19-1.28-2.19-1.28-1.43-.19-.73,1.87-.73,1.87a4,4,0,0,1-3.23,2.16,2.22,2.22,0,0,0-1.19-.36l-3.27,0a2.36,2.36,0,0,0-1.27.37,4,4,0,0,1-3.53-2.28s.74-2.05-.69-1.88C99.42,275.93,97.78,274.17,97.2,277.15Z" style="fill:#263238"></path><rect x="104.8" y="274.76" width="5.02" height="3.06" rx="1.21" transform="translate(211.07 553.93) rotate(-179.27)" style="fill:#263238"></rect><path d="M108.15,276.23c0,.24.13.44.3.44s.3-.19.3-.43-.13-.44-.29-.45S108.15,276,108.15,276.23Z" style="fill:#fff"></path><path d="M106.49,276.21c0,.24.13.44.3.44s.3-.19.31-.43-.13-.45-.3-.45S106.49,276,106.49,276.21Z" style="fill:#fff"></path><path d="M104.89,282.18h3.48a.85.85,0,0,1,.85.85v1.65a.84.84,0,0,1-.84.84h-3.48a.84.84,0,0,1-.84-.84V283a.84.84,0,0,1,.84-.84Z" transform="translate(209.64 569.03) rotate(-179.27)" style="fill:#fff;opacity:0.6000000000000001"></path><path d="M107.67,295.12a6.19,6.19,0,0,0,2.7.06c-.05.32-.1.65-.18,1s-.33,1.66-.33,1.66,2.13-.06,1.71,1.42c0,0-3.63.32-4.95-.28A22.24,22.24,0,0,0,107.67,295.12Z" style="fill:#FFC100"></path><path d="M107.67,295.12a6.19,6.19,0,0,0,2.7.06c-.05.32-.1.65-.18,1s-.33,1.66-.33,1.66,2.13-.06,1.71,1.42c0,0-3.63.32-4.95-.28A22.24,22.24,0,0,0,107.67,295.12Z" style="fill:#fff;opacity:0.2"></path><path d="M100.07,299.06c.64.5,4.24.2,4.24.2.4-1.09-1.53-1.26-1.53-1.26l1.42-2.61c-.61-.07-1.66-.43-2.57-.65-.39,1-.77,2-1,2.6C99.88,298.89,100.07,299.06,100.07,299.06Z" style="fill:#FFC100"></path><path d="M100.07,299.06c.64.5,4.24.2,4.24.2.4-1.09-1.53-1.26-1.53-1.26l1.42-2.61c-.61-.07-1.66-.43-2.57-.65-.39,1-.77,2-1,2.6C99.88,298.89,100.07,299.06,100.07,299.06Z" style="fill:#fff;opacity:0.2"></path><path d="M111.82,279.05a3.87,3.87,0,0,0,.77-1.08s-.69-2.06.74-1.87c0,0,1.69-1.7,2.19,1.28,0,0-.08,2-1.15,1.84a10.63,10.63,0,0,1-1.19,1.5A4.65,4.65,0,0,0,111.82,279.05Z" style="fill:#FFC100"></path><path d="M111.82,279.05a3.87,3.87,0,0,0,.77-1.08s-.69-2.06.74-1.87c0,0,1.69-1.7,2.19,1.28,0,0-.08,2-1.15,1.84a10.63,10.63,0,0,1-1.19,1.5A4.65,4.65,0,0,0,111.82,279.05Z" style="fill:#fff;opacity:0.2"></path><path d="M97.2,277.15c.57-3,2.22-1.22,2.22-1.22,1.43-.17.69,1.88.69,1.88a3.57,3.57,0,0,0,1,1.31,7,7,0,0,1-1.5,1.58A10.26,10.26,0,0,1,98.31,279C97.23,279.18,97.2,277.15,97.2,277.15Z" style="fill:#FFC100"></path><path d="M97.2,277.15c.57-3,2.22-1.22,2.22-1.22,1.43-.17.69,1.88.69,1.88a3.57,3.57,0,0,0,1,1.31,7,7,0,0,1-1.5,1.58A10.26,10.26,0,0,1,98.31,279C97.23,279.18,97.2,277.15,97.2,277.15Z" style="fill:#fff;opacity:0.2"></path><path d="M105.72,279.73l2.29,0v-.32a.5.5,0,0,0-.48-.5l-1.31,0a.49.49,0,0,0-.49.49Z" style="fill:#FFC100"></path><path d="M105.72,279.73l2.29,0v-.32a.5.5,0,0,0-.48-.5l-1.31,0a.49.49,0,0,0-.49.49Z" style="opacity:0.1"></path></g><g id="freepik--Plant--inject-60"><polygon points="92.49 384.31 91.5 386.11 91.45 384.33 89.53 382.93 91.5 383.39 92.16 381.3 92.49 383.3 94.66 382.47 92.49 384.31" style="fill:#263238"></polygon><polygon points="82.98 396.68 84.58 397.97 82.81 397.71 81.1 398.88 81.89 397.02 80.43 395.53 82.98 396.68" style="fill:#263238"></polygon><path d="M104.27,394.71c0,6.07-4.93,16.76-11,16.76s-11-10.69-11-16.76a11,11,0,0,1,22,0Z" style="fill:#FFC100"></path><path d="M104.27,394.71c0,6.07-4.93,16.76-11,16.76s-11-10.69-11-16.76a11,11,0,0,1,22,0Z" style="fill:#fff;opacity:0.2"></path><path d="M102.06,388.11a13.61,13.61,0,0,1,.27,2.65A12.94,12.94,0,0,1,84.1,402.58c2,4.66,5.34,8.89,9.17,8.89,6.07,0,11-10.69,11-16.76A11,11,0,0,0,102.06,388.11Z" style="opacity:0.2"></path><polygon points="83.48 389.63 81.57 386.87 84.29 388.84 85.02 385.55 85.02 389.06 87.29 389.58 84.87 390.16 84.43 392.51 84.06 390.55 80.91 391.12 83.48 389.63" style="fill:#263238"></polygon><polygon points="92.8 395.71 95.14 398.11 92.13 396.62 91.2 399.01 91.37 396.53 89.05 396.4 91.33 395.42 91.37 393.03 92.07 394.9 93.58 393.91 92.8 395.71" style="fill:#263238"></polygon><polygon points="103.12 395.78 105.67 396.79 102.93 396.68 103.94 399.25 102.33 396.87 100.56 397.56 101.93 396.06 101.16 394.27 102.31 395.42 104.18 393.61 103.12 395.78" style="fill:#263238"></polygon><polygon points="94.6 388.41 93.59 386.63 95.14 387.52 97.34 386.63 95.91 388.06 97.34 389.72 95.47 388.95 94.43 390.85 94.6 388.41" style="fill:#263238"></polygon><polygon points="101.88 388.81 99.83 388.74 101.4 387.89 101.79 385.55 102.26 387.51 104.43 387.16 102.79 388.35 104.51 389.91 101.88 388.81" style="fill:#263238"></polygon><path d="M81.58,402.95H105a0,0,0,0,1,0,0V412a3.44,3.44,0,0,1-3.44,3.44H85A3.44,3.44,0,0,1,81.58,412v-9.09A0,0,0,0,1,81.58,402.95Z" style="fill:#263238"></path><path d="M81.58,402.95H105a0,0,0,0,1,0,0V412a3.44,3.44,0,0,1-3.44,3.44H85A3.44,3.44,0,0,1,81.58,412v-9.09A0,0,0,0,1,81.58,402.95Z" style="fill:#fff;opacity:0.1"></path><rect x="81.58" y="402.95" width="23.38" height="2.44" style="opacity:0.2"></rect><rect x="79.98" y="400.07" width="26.58" height="2.88" rx="1.26" style="fill:#263238"></rect></g><g id="freepik--Clock--inject-60"><path d="M88.12,315.16H83.44a1.53,1.53,0,0,1-1.53-1.53V300.26a1.53,1.53,0,0,1,1.53-1.52h4.68A1.21,1.21,0,0,0,86.91,300v14A1.21,1.21,0,0,0,88.12,315.16Z" style="fill:#FFC100"></path><path d="M88.12,315.16H83.44a1.53,1.53,0,0,1-1.53-1.53V300.26a1.53,1.53,0,0,1,1.53-1.52h4.68A1.21,1.21,0,0,0,86.91,300v14A1.21,1.21,0,0,0,88.12,315.16Z" style="opacity:0.2"></path><path d="M121.68,298.73H88.12a1.22,1.22,0,0,0-1.21,1.21v14a1.21,1.21,0,0,0,1.21,1.21h33.56a1.21,1.21,0,0,0,1.21-1.21v-14A1.22,1.22,0,0,0,121.68,298.73Zm-.49,14a1,1,0,0,1-1,1H89.58a1,1,0,0,1-1-1V301.31a1,1,0,0,1,1-1h30.58a1,1,0,0,1,1,1Z" style="fill:#FFC100"></path><path d="M121.68,298.73H88.12a1.22,1.22,0,0,0-1.21,1.21v14a1.21,1.21,0,0,0,1.21,1.21h33.56a1.21,1.21,0,0,0,1.21-1.21v-14A1.22,1.22,0,0,0,121.68,298.73Zm-.49,14a1,1,0,0,1-1,1H89.58a1,1,0,0,1-1-1V301.31a1,1,0,0,1,1-1h30.58a1,1,0,0,1,1,1Z" style="fill:#fff;opacity:0.2"></path><rect x="88.54" y="300.28" width="32.65" height="13.48" rx="1.04" style="fill:#FFC100"></rect><rect x="88.54" y="300.28" width="32.65" height="13.48" rx="1.04" style="fill:#263238"></rect><rect x="92.46" y="302.23" width="1.17" height="4.35" rx="0.47" style="fill:#fff"></rect><rect x="92.46" y="307.26" width="1.17" height="4.35" rx="0.47" style="fill:#fff"></rect><rect x="97.98" y="307.26" width="1.17" height="4.35" rx="0.47" style="fill:#fff"></rect><rect x="95.22" y="304.78" width="1.17" height="4.35" rx="0.47" transform="translate(-211.15 402.76) rotate(-90)" style="fill:#fff"></rect><rect x="95.22" y="299.72" width="1.17" height="4.35" rx="0.47" transform="translate(-206.09 397.7) rotate(-90)" style="fill:#fff"></rect><rect x="95.22" y="309.84" width="1.17" height="4.35" rx="0.47" transform="translate(407.82 216.21) rotate(90)" style="fill:#fff"></rect><rect x="111.03" y="302.23" width="1.17" height="4.35" rx="0.47" style="fill:#fff"></rect><rect x="116.55" y="307.26" width="1.17" height="4.35" rx="0.47" style="fill:#fff"></rect><rect x="113.79" y="304.78" width="1.17" height="4.35" rx="0.47" transform="translate(-192.58 421.33) rotate(-90)" style="fill:#fff"></rect><rect x="113.79" y="299.72" width="1.17" height="4.35" rx="0.47" transform="translate(-187.52 416.27) rotate(-90)" style="fill:#fff"></rect><rect x="113.79" y="309.84" width="1.17" height="4.35" rx="0.47" transform="translate(426.4 197.64) rotate(90)" style="fill:#fff"></rect><rect x="102.7" y="302.23" width="1.17" height="4.35" rx="0.47" style="fill:#fff"></rect><rect x="108.22" y="302.23" width="1.17" height="4.35" rx="0.47" style="fill:#fff"></rect><rect x="102.7" y="307.26" width="1.17" height="4.35" rx="0.47" style="fill:#fff"></rect><rect x="108.22" y="307.26" width="1.17" height="4.35" rx="0.47" style="fill:#fff"></rect><rect x="105.46" y="299.72" width="1.17" height="4.35" rx="0.47" transform="translate(-195.85 407.94) rotate(-90)" style="fill:#fff"></rect><rect x="105.46" y="309.84" width="1.17" height="4.35" rx="0.47" transform="translate(418.06 205.97) rotate(90)" style="fill:#fff"></rect><rect x="100.34" y="305.37" width="1.17" height="1.2" rx="0.46" style="fill:#fff"></rect><rect x="100.34" y="307.26" width="1.17" height="1.2" rx="0.46" style="fill:#fff"></rect></g><g id="freepik--Lamp--inject-60"><ellipse cx="70.96" cy="275.05" rx="18.14" ry="25.54" style="fill:#FFC100;opacity:0.2"></ellipse><path d="M70.9,257.53c10,0,11.74,7.73,11.74,17.26s-1.72,17.26-11.74,17.26-12.06-7.47-12.06-17S60.88,257.53,70.9,257.53Z" style="fill:#fff;opacity:0.2"></path><polygon points="79.01 292.05 63.41 292.05 67.86 257.53 68.85 249.85 73.57 249.85 74.56 257.53 79.01 292.05" style="fill:#FFC100"></polygon><polygon points="79.01 292.05 63.41 292.05 67.86 257.53 68.85 249.85 73.57 249.85 74.56 257.53 79.01 292.05" style="fill:#fff;opacity:0.5"></polygon><path d="M68,257.57a38.91,38.91,0,0,1-4.74,34.37l15.74.11s-5-5.14-6.09-17.24c-1-10.49,1.64-17.28,1.64-17.28Z" style="fill:#fff;opacity:0.2"></path><polygon points="63.41 292.05 79.01 292.05 74.79 303.57 67.64 303.57 63.41 292.05" style="fill:#263238"></polygon><polygon points="63.41 292.05 79.01 292.05 74.79 303.57 67.64 303.57 63.41 292.05" style="opacity:0.2"></polygon><polygon points="63.41 292.05 79.01 292.05 74.79 303.57 67.64 303.57 63.41 292.05" style="fill:#fff;opacity:0.1"></polygon><polygon points="79.01 315.09 63.41 315.09 67.64 303.57 74.79 303.57 79.01 315.09" style="fill:#263238"></polygon><polygon points="79.01 315.09 63.41 315.09 67.64 303.57 74.79 303.57 79.01 315.09" style="fill:#fff;opacity:0.2"></polygon><polygon points="74.56 257.53 67.86 257.53 68.85 249.85 73.57 249.85 74.56 257.53" style="fill:#263238"></polygon><polygon points="74.56 257.53 67.86 257.53 68.85 249.85 73.57 249.85 74.56 257.53" style="fill:#fff;opacity:0.1"></polygon><path d="M75,288.5a4.42,4.42,0,0,1-8.12,0,4.31,4.31,0,1,1,8.12,0Z" style="fill:#FFC100"></path><path d="M75,288.5a4.42,4.42,0,0,1-8.12,0,4.31,4.31,0,1,1,8.12,0Z" style="opacity:0.1"></path><path d="M74.94,288.69a4.38,4.38,0,0,1-8,0,4.28,4.28,0,1,1,8,0Z" style="fill:#FFC100"></path><path d="M74.69,287.44a2.82,2.82,0,0,1-1.23,2.84,4.79,4.79,0,0,1-2.54.68,5.35,5.35,0,0,1-1.56-.23,2.88,2.88,0,0,1-1.87-2,5.24,5.24,0,0,1-.2-1.76c.06-.85.47-1.81,1.3-2s1.38.39,2.1.44,1.67-.54,2.49-.34a1.72,1.72,0,0,1,1.09.9,4.1,4.1,0,0,1,.42,1.38Z" style="fill:#fff;opacity:0.1"></path><path d="M72.54,280.66a2,2,0,0,0,1.33.6,2.08,2.08,0,0,0,1.8-.55,1.68,1.68,0,0,0-.17-2.21A2.33,2.33,0,0,0,73,278,2,2,0,0,0,72.54,280.66Z" style="fill:#FFC100"></path><path d="M72.48,279.87a.88.88,0,0,1,.7-.88,4.51,4.51,0,0,1,1.22-.07.91.91,0,0,0,.43-.1.35.35,0,0,0,.16-.39c0-.14-.21-.2-.35-.24C73.25,277.8,72.26,278.38,72.48,279.87Z" style="fill:#fff;opacity:0.1"></path><path d="M75.27,280.18a1.49,1.49,0,0,1-.75.16,1.55,1.55,0,0,0-.61,0,.38.38,0,0,0-.25.48c.08.16.29.19.46.2a2,2,0,0,0,1.2-.31c.18-.12.58-.53.5-.79S75.44,280.09,75.27,280.18Z" style="fill:#fff;opacity:0.1"></path><path d="M69.27,260.3a3.87,3.87,0,0,0-.8,4.17,7.13,7.13,0,0,1,1.09,2.68c.09,2.35-2.2,4.17-2.51,6.5a3.13,3.13,0,0,0,1,2.86,2.4,2.4,0,0,0,2.87-.16c2.25-1.62-1.91-7.18,1.37-9.51C76,264.2,73.51,256.74,69.27,260.3Z" style="fill:#FFC100"></path><path d="M72.27,261.67a.83.83,0,0,0-.45.88,6.55,6.55,0,0,1-.6,3.27,10.67,10.67,0,0,0-1,3.62,9.93,9.93,0,0,0,.89,3.55,8.71,8.71,0,0,1-.13-4.77,4.38,4.38,0,0,1,1.68-2.16,3.61,3.61,0,0,0,.93-3.64,1.31,1.31,0,0,0-.79-.8A.71.71,0,0,0,72.27,261.67Z" style="fill:#fff;opacity:0.1"></path><path d="M68.35,270.86a5.88,5.88,0,0,0,.79-6,6.85,6.85,0,0,1-.55-1.31c-.1-.46-.15-1.25.58-1.37.35-.05.33.36.35.51a10.34,10.34,0,0,0,0,1.59c.12.87.08,1.12.18,2a5.78,5.78,0,0,1-.12,2.38A4.17,4.17,0,0,1,68.35,270.86Z" style="fill:#fff;opacity:0.1"></path></g></svg>
